G75*
%MOIN*%
%OFA0B0*%
%FSLAX25Y25*%
%IPPOS*%
%LPD*%
%AMOC8*
5,1,8,0,0,1.08239X$1,22.5*
%
%ADD10C,0.00197*%
%ADD11C,0.07400*%
%ADD12R,0.10713X0.00446*%
%ADD13R,0.00893X0.00446*%
%ADD14R,0.11159X0.00446*%
%ADD15R,0.01785X0.00446*%
%ADD16R,0.03571X0.00446*%
%ADD17R,0.02678X0.00446*%
%ADD18R,0.06249X0.00446*%
%ADD19R,0.11159X0.00446*%
%ADD20R,0.08481X0.00446*%
%ADD21R,0.02678X0.00446*%
%ADD22R,0.09374X0.00446*%
%ADD23R,0.00893X0.00446*%
%ADD24R,0.01339X0.00446*%
%ADD25R,0.02232X0.00446*%
%ADD26R,0.09374X0.00446*%
%ADD27R,0.02678X0.00446*%
%ADD28R,0.02232X0.00446*%
%ADD29R,0.06696X0.00446*%
%ADD30R,0.01339X0.00446*%
%ADD31R,0.03124X0.00446*%
%ADD32R,0.04910X0.00446*%
%ADD33R,0.02678X0.00446*%
%ADD34R,0.04463X0.00446*%
%ADD35R,0.03125X0.00446*%
%ADD36R,0.00446X0.00446*%
%ADD37R,0.07142X0.00446*%
%ADD38R,0.02232X0.00446*%
%ADD39R,0.07588X0.00446*%
%ADD40R,0.02678X0.00446*%
%ADD41R,0.04017X0.00446*%
%ADD42R,0.05803X0.00446*%
%ADD43R,0.05803X0.00446*%
%ADD44R,0.09820X0.00446*%
%ADD45R,0.02678X0.00446*%
%ADD46R,0.07142X0.00446*%
%ADD47R,0.10713X0.00446*%
%ADD48R,0.08035X0.00446*%
%ADD49R,0.00893X0.00446*%
%ADD50R,0.04910X0.00446*%
%ADD51R,0.09820X0.00446*%
%ADD52R,0.08035X0.00446*%
%ADD53R,0.03125X0.00446*%
%ADD54R,0.10267X0.00446*%
%ADD55R,0.11159X0.00446*%
%ADD56R,0.06249X0.00446*%
%ADD57R,0.11606X0.00446*%
%ADD58R,0.04910X0.00446*%
%ADD59R,0.11606X0.00446*%
%ADD60R,0.03571X0.00446*%
%ADD61R,0.01785X0.00446*%
%ADD62R,0.06696X0.00446*%
%ADD63R,0.00446X0.00446*%
%ADD64R,0.03571X0.00446*%
%ADD65R,0.01786X0.00446*%
%ADD66R,0.03124X0.00446*%
%ADD67R,0.00893X0.00446*%
%ADD68R,0.03124X0.00446*%
%ADD69R,0.03125X0.00446*%
%ADD70R,0.01339X0.00446*%
%ADD71R,0.06695X0.00446*%
%ADD72R,0.07142X0.00446*%
%ADD73R,0.01785X0.00446*%
%ADD74R,0.03571X0.00446*%
%ADD75R,0.04018X0.00446*%
%ADD76R,0.04464X0.00446*%
%ADD77R,0.05356X0.00446*%
%ADD78R,0.05357X0.00446*%
%ADD79R,0.04017X0.00446*%
%ADD80R,0.05803X0.00446*%
%ADD81R,0.05803X0.00446*%
%ADD82R,0.06696X0.00446*%
%ADD83R,0.06695X0.00446*%
%ADD84R,0.00446X0.00446*%
%ADD85R,0.04464X0.00446*%
%ADD86R,0.08035X0.00446*%
%ADD87R,0.05356X0.00446*%
%ADD88R,0.04464X0.00446*%
%ADD89R,0.00893X0.00446*%
%ADD90R,0.04017X0.00446*%
%ADD91R,0.05357X0.00446*%
%ADD92R,0.03571X0.00446*%
%ADD93R,0.04910X0.00446*%
%ADD94R,0.07142X0.00446*%
%ADD95R,0.06249X0.00446*%
%ADD96R,0.06250X0.00446*%
%ADD97R,0.05803X0.00446*%
%ADD98R,0.01339X0.00446*%
%ADD99R,0.07588X0.00446*%
%ADD100R,0.04018X0.00446*%
%ADD101R,0.03571X0.00446*%
%ADD102R,0.04018X0.00446*%
%ADD103R,0.02231X0.00446*%
%ADD104R,0.01339X0.00446*%
%ADD105R,0.00446X0.00446*%
%ADD106R,0.00893X0.00446*%
%ADD107R,0.00446X0.00446*%
%ADD108R,0.01786X0.00446*%
%ADD109R,0.04463X0.00446*%
%ADD110R,0.02231X0.00446*%
%ADD111R,0.06695X0.00446*%
%ADD112R,0.05356X0.00446*%
%ADD113R,0.04910X0.00446*%
%ADD114R,0.08928X0.00446*%
%ADD115R,0.08481X0.00446*%
%ADD116R,0.11159X0.00446*%
%ADD117R,0.07588X0.00446*%
%ADD118R,0.00446X0.00446*%
%ADD119R,0.01786X0.00446*%
%ADD120R,0.09374X0.00446*%
%ADD121R,0.08928X0.00446*%
%ADD122R,0.02231X0.00446*%
%ADD123R,0.08481X0.00446*%
%ADD124R,0.05803X0.00446*%
%ADD125R,0.15623X0.00446*%
%ADD126R,0.14730X0.00446*%
%ADD127R,0.13837X0.00446*%
%ADD128R,0.08927X0.00446*%
%ADD129R,0.12945X0.00446*%
%ADD130R,0.12498X0.00446*%
%ADD131R,0.09374X0.00446*%
%ADD132R,0.10267X0.00446*%
%ADD133R,0.01339X0.00446*%
%ADD134R,0.05357X0.00446*%
%ADD135R,0.07142X0.00446*%
%ADD136R,0.07589X0.00446*%
%ADD137R,0.11606X0.00446*%
%ADD138R,0.20087X0.00446*%
%ADD139R,0.08928X0.00446*%
%ADD140R,0.19640X0.00446*%
%ADD141R,0.19640X0.00446*%
%ADD142R,0.20087X0.00446*%
%ADD143R,0.08927X0.00446*%
%ADD144R,0.04910X0.00446*%
%ADD145R,0.10713X0.00446*%
%ADD146R,0.07142X0.00446*%
%ADD147R,0.09820X0.00446*%
%ADD148R,0.12052X0.00446*%
%ADD149R,0.10713X0.00446*%
%ADD150R,0.08035X0.00446*%
%ADD151R,0.09374X0.00446*%
%ADD152R,0.09374X0.00446*%
%ADD153R,0.12945X0.00446*%
%ADD154R,0.08481X0.00446*%
%ADD155R,0.11606X0.00446*%
%ADD156R,0.08035X0.00446*%
%ADD157R,0.12498X0.00446*%
%ADD158R,0.13391X0.00446*%
%ADD159R,0.12052X0.00446*%
%ADD160R,0.13838X0.00446*%
%ADD161R,0.13391X0.00446*%
%ADD162R,0.09820X0.00446*%
%ADD163R,0.13391X0.00446*%
%ADD164R,0.13391X0.00446*%
%ADD165R,0.04463X0.00446*%
%ADD166R,0.08927X0.00446*%
%ADD167R,0.06250X0.00446*%
%ADD168R,0.15177X0.00446*%
%ADD169R,0.22765X0.00446*%
%ADD170R,0.22765X0.00446*%
%ADD171R,0.22319X0.00446*%
%ADD172R,0.21872X0.00446*%
%ADD173R,0.21872X0.00446*%
%ADD174R,0.21426X0.00446*%
%ADD175R,0.21426X0.00446*%
%ADD176R,0.21426X0.00446*%
%ADD177R,0.21872X0.00446*%
%ADD178R,0.23658X0.00446*%
%ADD179R,0.23211X0.00446*%
%ADD180R,0.15177X0.00446*%
%ADD181R,0.07589X0.00446*%
%ADD182R,0.12052X0.00446*%
%ADD183R,0.12498X0.00446*%
%ADD184R,0.12052X0.00446*%
%ADD185R,0.12499X0.00446*%
%ADD186R,0.12499X0.00446*%
%ADD187R,0.11606X0.00446*%
%ADD188R,0.12945X0.00446*%
%ADD189R,0.10267X0.00446*%
%ADD190R,0.09820X0.00446*%
%ADD191R,0.11606X0.00446*%
%ADD192R,0.10267X0.00446*%
%ADD193R,0.12944X0.00446*%
%ADD194R,0.12052X0.00446*%
%ADD195R,0.16069X0.00446*%
%ADD196R,0.15623X0.00446*%
%ADD197R,0.12052X0.00446*%
%ADD198R,0.13391X0.00446*%
%ADD199R,0.08035X0.00446*%
%ADD200R,0.08481X0.00446*%
%ADD201R,0.15623X0.00446*%
%ADD202R,0.13838X0.00446*%
%ADD203R,0.13837X0.00446*%
%ADD204R,0.07589X0.00446*%
%ADD205R,0.11159X0.00446*%
%ADD206C,0.01400*%
%ADD207C,0.03962*%
%ADD208C,0.01600*%
D10*
X0003144Y0099925D02*
X0003174Y0102331D01*
X0003262Y0104735D01*
X0003410Y0107137D01*
X0003616Y0109534D01*
X0003881Y0111925D01*
X0004205Y0114309D01*
X0004587Y0116685D01*
X0005028Y0119050D01*
X0005526Y0121404D01*
X0006082Y0123745D01*
X0006695Y0126071D01*
X0007365Y0128382D01*
X0008092Y0130676D01*
X0008874Y0132951D01*
X0009713Y0135206D01*
X0010606Y0137440D01*
X0011554Y0139651D01*
X0012556Y0141839D01*
X0013611Y0144001D01*
X0014719Y0146136D01*
X0015880Y0148244D01*
X0017091Y0150323D01*
X0018353Y0152371D01*
X0019665Y0154388D01*
X0021026Y0156372D01*
X0022436Y0158322D01*
X0023893Y0160237D01*
X0025396Y0162115D01*
X0026945Y0163956D01*
X0028539Y0165759D01*
X0030176Y0167521D01*
X0031857Y0169243D01*
X0033579Y0170924D01*
X0035341Y0172561D01*
X0037144Y0174155D01*
X0038985Y0175704D01*
X0040863Y0177207D01*
X0042778Y0178664D01*
X0044728Y0180074D01*
X0046712Y0181435D01*
X0048729Y0182747D01*
X0050777Y0184009D01*
X0052856Y0185220D01*
X0054964Y0186381D01*
X0057099Y0187489D01*
X0059261Y0188544D01*
X0061449Y0189546D01*
X0063660Y0190494D01*
X0065894Y0191387D01*
X0068149Y0192226D01*
X0070424Y0193008D01*
X0072718Y0193735D01*
X0075029Y0194405D01*
X0077355Y0195018D01*
X0079696Y0195574D01*
X0082050Y0196072D01*
X0084415Y0196513D01*
X0086791Y0196895D01*
X0089175Y0197219D01*
X0091566Y0197484D01*
X0093963Y0197690D01*
X0096365Y0197838D01*
X0098769Y0197926D01*
X0101175Y0197956D01*
X0103581Y0197926D01*
X0105985Y0197838D01*
X0108387Y0197690D01*
X0110784Y0197484D01*
X0113175Y0197219D01*
X0115559Y0196895D01*
X0117935Y0196513D01*
X0120300Y0196072D01*
X0122654Y0195574D01*
X0124995Y0195018D01*
X0127321Y0194405D01*
X0129632Y0193735D01*
X0131926Y0193008D01*
X0134201Y0192226D01*
X0136456Y0191387D01*
X0138690Y0190494D01*
X0140901Y0189546D01*
X0143089Y0188544D01*
X0145251Y0187489D01*
X0147386Y0186381D01*
X0149494Y0185220D01*
X0151573Y0184009D01*
X0153621Y0182747D01*
X0155638Y0181435D01*
X0157622Y0180074D01*
X0159572Y0178664D01*
X0161487Y0177207D01*
X0163365Y0175704D01*
X0165206Y0174155D01*
X0167009Y0172561D01*
X0168771Y0170924D01*
X0170493Y0169243D01*
X0172174Y0167521D01*
X0173811Y0165759D01*
X0175405Y0163956D01*
X0176954Y0162115D01*
X0178457Y0160237D01*
X0179914Y0158322D01*
X0181324Y0156372D01*
X0182685Y0154388D01*
X0183997Y0152371D01*
X0185259Y0150323D01*
X0186470Y0148244D01*
X0187631Y0146136D01*
X0188739Y0144001D01*
X0189794Y0141839D01*
X0190796Y0139651D01*
X0191744Y0137440D01*
X0192637Y0135206D01*
X0193476Y0132951D01*
X0194258Y0130676D01*
X0194985Y0128382D01*
X0195655Y0126071D01*
X0196268Y0123745D01*
X0196824Y0121404D01*
X0197322Y0119050D01*
X0197763Y0116685D01*
X0198145Y0114309D01*
X0198469Y0111925D01*
X0198734Y0109534D01*
X0198940Y0107137D01*
X0199088Y0104735D01*
X0199176Y0102331D01*
X0199206Y0099925D01*
X0199176Y0097519D01*
X0199088Y0095115D01*
X0198940Y0092713D01*
X0198734Y0090316D01*
X0198469Y0087925D01*
X0198145Y0085541D01*
X0197763Y0083165D01*
X0197322Y0080800D01*
X0196824Y0078446D01*
X0196268Y0076105D01*
X0195655Y0073779D01*
X0194985Y0071468D01*
X0194258Y0069174D01*
X0193476Y0066899D01*
X0192637Y0064644D01*
X0191744Y0062410D01*
X0190796Y0060199D01*
X0189794Y0058011D01*
X0188739Y0055849D01*
X0187631Y0053714D01*
X0186470Y0051606D01*
X0185259Y0049527D01*
X0183997Y0047479D01*
X0182685Y0045462D01*
X0181324Y0043478D01*
X0179914Y0041528D01*
X0178457Y0039613D01*
X0176954Y0037735D01*
X0175405Y0035894D01*
X0173811Y0034091D01*
X0172174Y0032329D01*
X0170493Y0030607D01*
X0168771Y0028926D01*
X0167009Y0027289D01*
X0165206Y0025695D01*
X0163365Y0024146D01*
X0161487Y0022643D01*
X0159572Y0021186D01*
X0157622Y0019776D01*
X0155638Y0018415D01*
X0153621Y0017103D01*
X0151573Y0015841D01*
X0149494Y0014630D01*
X0147386Y0013469D01*
X0145251Y0012361D01*
X0143089Y0011306D01*
X0140901Y0010304D01*
X0138690Y0009356D01*
X0136456Y0008463D01*
X0134201Y0007624D01*
X0131926Y0006842D01*
X0129632Y0006115D01*
X0127321Y0005445D01*
X0124995Y0004832D01*
X0122654Y0004276D01*
X0120300Y0003778D01*
X0117935Y0003337D01*
X0115559Y0002955D01*
X0113175Y0002631D01*
X0110784Y0002366D01*
X0108387Y0002160D01*
X0105985Y0002012D01*
X0103581Y0001924D01*
X0101175Y0001894D01*
X0098769Y0001924D01*
X0096365Y0002012D01*
X0093963Y0002160D01*
X0091566Y0002366D01*
X0089175Y0002631D01*
X0086791Y0002955D01*
X0084415Y0003337D01*
X0082050Y0003778D01*
X0079696Y0004276D01*
X0077355Y0004832D01*
X0075029Y0005445D01*
X0072718Y0006115D01*
X0070424Y0006842D01*
X0068149Y0007624D01*
X0065894Y0008463D01*
X0063660Y0009356D01*
X0061449Y0010304D01*
X0059261Y0011306D01*
X0057099Y0012361D01*
X0054964Y0013469D01*
X0052856Y0014630D01*
X0050777Y0015841D01*
X0048729Y0017103D01*
X0046712Y0018415D01*
X0044728Y0019776D01*
X0042778Y0021186D01*
X0040863Y0022643D01*
X0038985Y0024146D01*
X0037144Y0025695D01*
X0035341Y0027289D01*
X0033579Y0028926D01*
X0031857Y0030607D01*
X0030176Y0032329D01*
X0028539Y0034091D01*
X0026945Y0035894D01*
X0025396Y0037735D01*
X0023893Y0039613D01*
X0022436Y0041528D01*
X0021026Y0043478D01*
X0019665Y0045462D01*
X0018353Y0047479D01*
X0017091Y0049527D01*
X0015880Y0051606D01*
X0014719Y0053714D01*
X0013611Y0055849D01*
X0012556Y0058011D01*
X0011554Y0060199D01*
X0010606Y0062410D01*
X0009713Y0064644D01*
X0008874Y0066899D01*
X0008092Y0069174D01*
X0007365Y0071468D01*
X0006695Y0073779D01*
X0006082Y0076105D01*
X0005526Y0078446D01*
X0005028Y0080800D01*
X0004587Y0083165D01*
X0004205Y0085541D01*
X0003881Y0087925D01*
X0003616Y0090316D01*
X0003410Y0092713D01*
X0003262Y0095115D01*
X0003174Y0097519D01*
X0003144Y0099925D01*
D11*
X0120335Y0129097D03*
X0127376Y0044000D03*
X0143124Y0044000D03*
D12*
X0123323Y0079176D03*
X0092970Y0138097D03*
X0055921Y0144347D03*
X0097880Y0194340D03*
X0185815Y0080515D03*
X0098326Y0013113D03*
X0097880Y0013559D03*
X0097880Y0006864D03*
X0097433Y0005971D03*
D13*
X0089399Y0006418D03*
X0060384Y0014899D03*
X0037173Y0030522D03*
X0031370Y0053733D03*
X0041190Y0070249D03*
X0054135Y0074713D03*
X0053689Y0078730D03*
X0056367Y0081855D03*
X0058153Y0075605D03*
X0068866Y0072481D03*
X0066187Y0063107D03*
X0068866Y0059982D03*
X0070651Y0059090D03*
X0076900Y0063107D03*
X0077347Y0064000D03*
X0080918Y0068463D03*
X0081364Y0078730D03*
X0085828Y0080962D03*
X0093416Y0084086D03*
X0093862Y0087211D03*
X0093416Y0088104D03*
X0096094Y0089443D03*
X0096094Y0090336D03*
X0096094Y0091228D03*
X0099665Y0088104D03*
X0099665Y0087211D03*
X0108146Y0088104D03*
X0110825Y0091228D03*
X0110825Y0092567D03*
X0112610Y0098817D03*
X0112610Y0099709D03*
X0113057Y0100602D03*
X0117074Y0105066D03*
X0121091Y0103727D03*
X0122877Y0105959D03*
X0131358Y0116672D03*
X0127340Y0124706D03*
X0127340Y0130956D03*
X0123323Y0147025D03*
X0106807Y0129170D03*
X0096094Y0133187D03*
X0087167Y0129170D03*
X0087167Y0126045D03*
X0085381Y0122921D03*
X0089399Y0117564D03*
X0087613Y0116672D03*
X0085381Y0114440D03*
X0087613Y0109083D03*
X0089399Y0105066D03*
X0092077Y0100602D03*
X0089399Y0097478D03*
X0096094Y0102834D03*
X0099665Y0101941D03*
X0091631Y0111315D03*
X0091631Y0115332D03*
X0097880Y0115332D03*
X0100112Y0115332D03*
X0108593Y0111315D03*
X0129572Y0092567D03*
X0139839Y0102834D03*
X0140285Y0103727D03*
X0142071Y0103727D03*
X0138053Y0108191D03*
X0135821Y0108191D03*
X0135821Y0105959D03*
X0135821Y0105066D03*
X0159033Y0091228D03*
X0164836Y0088104D03*
X0154123Y0078730D03*
X0152784Y0072481D03*
X0158586Y0068463D03*
X0164836Y0071588D03*
X0165282Y0073373D03*
X0169299Y0068463D03*
X0168853Y0067124D03*
X0164836Y0057750D03*
X0159033Y0060875D03*
X0158586Y0042127D03*
X0138053Y0027397D03*
X0120645Y0007757D03*
X0087613Y0047484D03*
X0087167Y0048377D03*
X0093416Y0062214D03*
X0114842Y0068463D03*
X0114842Y0070249D03*
X0123323Y0059982D03*
X0126894Y0067124D03*
X0077347Y0098817D03*
X0072883Y0084979D03*
X0068866Y0084979D03*
X0066187Y0084979D03*
X0064402Y0098817D03*
X0064402Y0102834D03*
X0054135Y0102834D03*
X0051903Y0102834D03*
X0052350Y0094353D03*
X0050118Y0090336D03*
X0047886Y0092567D03*
X0043422Y0089443D03*
X0045654Y0116672D03*
X0058153Y0133187D03*
X0064848Y0129170D03*
X0066187Y0127831D03*
X0068866Y0129170D03*
X0070651Y0122921D03*
X0072883Y0122921D03*
X0068419Y0136312D03*
X0080918Y0138544D03*
X0034941Y0148810D03*
X0070651Y0187645D03*
X0190279Y0127831D03*
X0184030Y0056858D03*
D14*
X0098103Y0017130D03*
X0098103Y0007757D03*
X0097657Y0006418D03*
X0111048Y0182288D03*
X0098103Y0193001D03*
D15*
X0112610Y0148810D03*
X0116627Y0144793D03*
X0116181Y0142561D03*
X0119306Y0147918D03*
X0122430Y0144793D03*
X0126001Y0133187D03*
X0125555Y0132295D03*
X0124662Y0120689D03*
X0121538Y0115332D03*
X0113057Y0115332D03*
X0114842Y0108191D03*
X0114842Y0105959D03*
X0106807Y0105066D03*
X0099665Y0105959D03*
X0099665Y0103727D03*
X0096094Y0103727D03*
X0096094Y0105066D03*
X0096094Y0105959D03*
X0092523Y0105959D03*
X0092523Y0112208D03*
X0092970Y0117564D03*
X0095201Y0122921D03*
X0086720Y0120689D03*
X0098773Y0133187D03*
X0103683Y0139437D03*
X0085381Y0141668D03*
X0076900Y0147918D03*
X0072883Y0138544D03*
X0070205Y0132295D03*
X0070651Y0130956D03*
X0068866Y0127831D03*
X0069312Y0126045D03*
X0072436Y0126045D03*
X0067973Y0122921D03*
X0062170Y0130956D03*
X0062616Y0132295D03*
X0065741Y0132295D03*
X0065295Y0138544D03*
X0046547Y0121582D03*
X0043869Y0119796D03*
X0039405Y0118457D03*
X0041637Y0109083D03*
X0036727Y0105066D03*
X0043869Y0100602D03*
X0044315Y0099709D03*
X0041637Y0094353D03*
X0042976Y0088104D03*
X0035834Y0091228D03*
X0035834Y0084979D03*
X0041637Y0073373D03*
X0037620Y0070249D03*
X0052796Y0073373D03*
X0062170Y0075605D03*
X0067973Y0070249D03*
X0065295Y0068463D03*
X0070651Y0073373D03*
X0078686Y0068463D03*
X0081810Y0070249D03*
X0088952Y0074713D03*
X0087167Y0078730D03*
X0093862Y0074713D03*
X0094309Y0068463D03*
X0092077Y0067124D03*
X0099665Y0065339D03*
X0095201Y0059090D03*
X0085828Y0051501D03*
X0086274Y0050608D03*
X0069312Y0060875D03*
X0062170Y0060875D03*
X0058599Y0084086D03*
X0058153Y0089443D03*
X0058153Y0091228D03*
X0065295Y0090336D03*
X0069312Y0089443D03*
X0080471Y0095692D03*
X0086720Y0093460D03*
X0088952Y0090336D03*
X0090292Y0089443D03*
X0089845Y0095692D03*
X0075561Y0103727D03*
X0074668Y0105066D03*
X0074668Y0105959D03*
X0041637Y0127831D03*
X0009498Y0077837D03*
X0021996Y0074713D03*
X0110825Y0084979D03*
X0116627Y0089443D03*
X0123770Y0089443D03*
X0134929Y0095692D03*
X0135375Y0097478D03*
X0137607Y0103727D03*
X0142517Y0118457D03*
X0142517Y0119796D03*
X0159033Y0089443D03*
X0157247Y0084086D03*
X0155908Y0080962D03*
X0141178Y0088104D03*
X0118859Y0072481D03*
X0118859Y0071588D03*
X0118413Y0070249D03*
X0119306Y0064000D03*
X0119306Y0063107D03*
X0122877Y0057750D03*
X0168407Y0064000D03*
X0191618Y0074713D03*
X0112164Y0006418D03*
X0173763Y0159523D03*
X0153676Y0178271D03*
D16*
X0151445Y0174700D03*
X0147874Y0168451D03*
X0155908Y0166219D03*
X0157247Y0168004D03*
X0158140Y0159970D03*
X0159479Y0158631D03*
X0160372Y0157738D03*
X0165728Y0157738D03*
X0166621Y0158631D03*
X0167960Y0159970D03*
X0169746Y0161755D03*
X0168407Y0164880D03*
X0167960Y0165326D03*
X0179120Y0148364D03*
X0174656Y0142115D03*
X0143410Y0125153D03*
X0142963Y0122028D03*
X0138500Y0118903D03*
X0134482Y0126492D03*
X0130019Y0127385D03*
X0113503Y0111762D03*
X0107700Y0119350D03*
X0103683Y0125599D03*
X0094309Y0118011D03*
X0084935Y0124260D03*
X0078239Y0125153D03*
X0080025Y0139883D03*
X0061724Y0137651D03*
X0040298Y0119350D03*
X0025121Y0141222D03*
X0021996Y0145239D03*
X0021104Y0146579D03*
X0013515Y0131848D03*
X0038066Y0153721D03*
X0079578Y0108637D03*
X0087167Y0091675D03*
X0067973Y0086765D03*
X0067080Y0087657D03*
X0066187Y0088550D03*
X0063063Y0096138D03*
X0056813Y0093907D03*
X0046993Y0080069D03*
X0054582Y0067571D03*
X0063063Y0064892D03*
X0080471Y0063553D03*
X0086274Y0056411D03*
X0098326Y0068017D03*
X0121537Y0060429D03*
X0150998Y0068017D03*
X0157694Y0051055D03*
X0155462Y0048823D03*
X0154123Y0047930D03*
X0152784Y0047037D03*
X0158140Y0040342D03*
X0155908Y0038556D03*
X0155015Y0037664D03*
X0155015Y0031414D03*
X0162604Y0030075D03*
X0164389Y0031414D03*
X0164389Y0034093D03*
X0163943Y0034539D03*
X0163943Y0040788D03*
X0191618Y0078284D03*
X0143410Y0110422D03*
X0106807Y0097031D03*
X0050564Y0034093D03*
X0048332Y0031414D03*
X0040298Y0035432D03*
X0038512Y0033200D03*
X0033602Y0035432D03*
X0029585Y0043466D03*
X0033602Y0047037D03*
X0040744Y0041681D03*
X0024228Y0060429D03*
X0035834Y0065785D03*
X0036727Y0095246D03*
X0094309Y0016684D03*
X0088059Y0006864D03*
X0126894Y0179610D03*
X0109039Y0194340D03*
D17*
X0102344Y0192109D03*
X0102344Y0190323D03*
X0106807Y0185859D03*
X0106807Y0184967D03*
X0106807Y0184074D03*
X0102790Y0184074D03*
X0102790Y0184967D03*
X0102790Y0183181D03*
X0102790Y0182735D03*
X0102790Y0181842D03*
X0093862Y0183181D03*
X0093862Y0184074D03*
X0093862Y0184967D03*
X0093862Y0185859D03*
X0093862Y0186306D03*
X0093862Y0187199D03*
X0093862Y0190323D03*
X0093862Y0192109D03*
X0088952Y0192109D03*
X0088952Y0192555D03*
X0088952Y0190323D03*
X0089399Y0189430D03*
X0089399Y0188984D03*
X0089399Y0187199D03*
X0089845Y0184967D03*
X0089845Y0184074D03*
X0090292Y0182735D03*
X0090292Y0181842D03*
X0081810Y0180057D03*
X0081364Y0181842D03*
X0080918Y0182735D03*
X0080918Y0183181D03*
X0079132Y0188984D03*
X0069312Y0180057D03*
X0067080Y0184967D03*
X0057706Y0176486D03*
X0056367Y0178717D03*
X0054582Y0181842D03*
X0051457Y0174700D03*
X0060384Y0171575D03*
X0036727Y0159970D03*
X0037173Y0159077D03*
X0037173Y0158631D03*
X0037620Y0157738D03*
X0027353Y0138097D03*
X0027353Y0137651D03*
X0025121Y0132741D03*
X0024675Y0131848D03*
X0018425Y0132741D03*
X0017979Y0131848D03*
X0013962Y0134527D03*
X0014855Y0136758D03*
X0015747Y0138990D03*
X0010391Y0123367D03*
X0009498Y0119350D03*
X0035834Y0108637D03*
X0036727Y0106405D03*
X0041637Y0107298D03*
X0038959Y0111762D03*
X0039851Y0121135D03*
X0039405Y0122028D03*
X0041190Y0126492D03*
X0060831Y0140329D03*
X0062616Y0132741D03*
X0067973Y0122474D03*
X0074668Y0128724D03*
X0079132Y0126492D03*
X0076454Y0135866D03*
X0077793Y0138990D03*
X0081364Y0138990D03*
X0076454Y0145239D03*
X0104129Y0140329D03*
X0121538Y0137651D03*
X0123323Y0134527D03*
X0128679Y0138097D03*
X0132251Y0137651D03*
X0129572Y0128277D03*
X0145642Y0128277D03*
X0143856Y0111762D03*
X0141624Y0104620D03*
X0127787Y0090782D03*
X0121538Y0095246D03*
X0119306Y0092121D03*
X0118859Y0091675D03*
X0118413Y0090782D03*
X0110825Y0107298D03*
X0110378Y0108637D03*
X0114396Y0109530D03*
X0090292Y0107744D03*
X0090292Y0107298D03*
X0084935Y0113101D03*
X0085828Y0113993D03*
X0078686Y0107744D03*
X0078686Y0107298D03*
X0083596Y0093907D03*
X0077793Y0075159D03*
X0073329Y0068910D03*
X0071097Y0063553D03*
X0063063Y0063553D03*
X0061723Y0068017D03*
X0064848Y0068910D03*
X0057706Y0072034D03*
X0050118Y0078284D03*
X0044315Y0069802D03*
X0040744Y0072034D03*
X0029585Y0058643D03*
X0029585Y0058197D03*
X0030477Y0057304D03*
X0030924Y0056411D03*
X0031370Y0055519D03*
X0024228Y0058197D03*
X0024228Y0058643D03*
X0018872Y0055519D03*
X0018872Y0055072D03*
X0018425Y0056411D03*
X0020211Y0053287D03*
X0020657Y0052394D03*
X0028246Y0041681D03*
X0037173Y0031414D03*
X0043869Y0031414D03*
X0043869Y0030968D03*
X0043869Y0033200D03*
X0044315Y0035432D03*
X0056367Y0027843D03*
X0055921Y0026951D03*
X0057706Y0030075D03*
X0053689Y0022933D03*
X0052350Y0019809D03*
X0059938Y0016238D03*
X0060831Y0017577D03*
X0061723Y0019362D03*
X0066187Y0018470D03*
X0066634Y0019362D03*
X0066634Y0019809D03*
X0067080Y0020701D03*
X0067973Y0022487D03*
X0067973Y0022933D03*
X0068419Y0023826D03*
X0068866Y0024719D03*
X0064848Y0025165D03*
X0071097Y0019809D03*
X0071097Y0019362D03*
X0070651Y0018470D03*
X0070205Y0017577D03*
X0070205Y0016684D03*
X0069312Y0014452D03*
X0064402Y0014452D03*
X0071544Y0021594D03*
X0082703Y0019809D03*
X0082703Y0019362D03*
X0082703Y0018470D03*
X0081810Y0014452D03*
X0081810Y0013559D03*
X0081810Y0013113D03*
X0081364Y0011328D03*
X0081364Y0010435D03*
X0093862Y0014452D03*
X0093862Y0016238D03*
X0102344Y0011328D03*
X0102344Y0010435D03*
X0102344Y0009989D03*
X0102344Y0009096D03*
X0102344Y0008203D03*
X0110825Y0017577D03*
X0112164Y0010435D03*
X0112164Y0009989D03*
X0112164Y0009096D03*
X0112610Y0007310D03*
X0112610Y0006864D03*
X0121091Y0008203D03*
X0121091Y0009096D03*
X0121091Y0009989D03*
X0120645Y0011328D03*
X0124662Y0013559D03*
X0124662Y0014452D03*
X0123770Y0016684D03*
X0123770Y0017577D03*
X0123323Y0018470D03*
X0123323Y0019362D03*
X0122877Y0020701D03*
X0119306Y0019809D03*
X0119306Y0019362D03*
X0119306Y0018470D03*
X0126894Y0020701D03*
X0127340Y0019362D03*
X0127787Y0018470D03*
X0127787Y0017577D03*
X0129126Y0014452D03*
X0129572Y0013559D03*
X0125555Y0011328D03*
X0125555Y0010435D03*
X0137607Y0016238D03*
X0137607Y0016684D03*
X0137160Y0017577D03*
X0141624Y0019362D03*
X0142071Y0018470D03*
X0142517Y0017577D03*
X0143410Y0016238D03*
X0138500Y0024719D03*
X0146534Y0028290D03*
X0159479Y0054179D03*
X0156355Y0060429D03*
X0173763Y0051948D03*
X0184030Y0057304D03*
X0185815Y0060429D03*
X0186262Y0061321D03*
X0186262Y0061768D03*
X0187601Y0064446D03*
X0187601Y0064892D03*
X0189386Y0069802D03*
X0190725Y0073820D03*
X0181351Y0080069D03*
X0180012Y0075159D03*
X0180012Y0074266D03*
X0177334Y0068017D03*
X0175995Y0064892D03*
X0175549Y0064446D03*
X0175102Y0063553D03*
X0156801Y0082747D03*
X0164389Y0083640D03*
X0193850Y0087657D03*
X0194296Y0090782D03*
X0194296Y0091675D03*
X0192511Y0119350D03*
X0192064Y0121135D03*
X0181351Y0119350D03*
X0180012Y0125153D03*
X0173317Y0146132D03*
X0165729Y0151489D03*
X0163050Y0154613D03*
X0142517Y0171575D03*
X0142517Y0172468D03*
X0142517Y0173361D03*
X0142071Y0175593D03*
X0137607Y0180057D03*
X0138500Y0181842D03*
X0140285Y0185859D03*
X0130019Y0188984D03*
X0129572Y0187199D03*
X0129126Y0185859D03*
X0129126Y0184967D03*
X0128679Y0184074D03*
X0119306Y0183181D03*
X0119306Y0182735D03*
X0119306Y0181842D03*
X0115288Y0183181D03*
X0115288Y0184074D03*
X0116181Y0188984D03*
X0116181Y0189430D03*
X0116181Y0190323D03*
X0039851Y0101495D03*
X0058599Y0092121D03*
X0070651Y0075159D03*
X0088952Y0074266D03*
X0091631Y0066678D03*
X0101451Y0063553D03*
X0115288Y0072034D03*
X0122877Y0066678D03*
X0079132Y0052394D03*
X0072436Y0053287D03*
X0024675Y0068017D03*
X0023336Y0071142D03*
X0018425Y0071142D03*
X0020211Y0066678D03*
X0020657Y0065785D03*
X0014855Y0063553D03*
X0014408Y0064446D03*
X0014408Y0064892D03*
X0013962Y0065785D03*
X0013515Y0066678D03*
X0012623Y0068910D03*
X0012176Y0069802D03*
D18*
X0026014Y0061321D03*
X0056367Y0088997D03*
X0071990Y0088997D03*
X0063509Y0073820D03*
X0063063Y0071142D03*
X0074222Y0067571D03*
X0076900Y0070695D03*
X0087167Y0064892D03*
X0098773Y0070695D03*
X0099219Y0069802D03*
X0102344Y0093907D03*
X0119306Y0112654D03*
X0096541Y0141222D03*
X0081810Y0146579D03*
X0078686Y0121135D03*
X0081810Y0110869D03*
X0081364Y0110422D03*
X0050118Y0114886D03*
X0050118Y0119350D03*
X0025121Y0143008D03*
X0064848Y0186306D03*
X0126001Y0142115D03*
X0154123Y0176486D03*
X0142517Y0178717D03*
X0126894Y0183181D03*
X0175549Y0145239D03*
X0182244Y0139883D03*
X0184476Y0085872D03*
X0188047Y0070695D03*
X0184030Y0067571D03*
X0183137Y0068017D03*
X0178673Y0060429D03*
X0168853Y0037664D03*
X0148766Y0054179D03*
X0129126Y0022487D03*
X0134483Y0019809D03*
X0086720Y0007310D03*
X0074222Y0010435D03*
X0045654Y0030075D03*
D19*
X0098103Y0017577D03*
X0098549Y0018470D03*
X0098103Y0007310D03*
X0140062Y0071142D03*
X0127564Y0085872D03*
X0098549Y0073820D03*
X0133366Y0123367D03*
X0110155Y0138097D03*
X0111048Y0182735D03*
X0098103Y0192555D03*
X0098103Y0193448D03*
X0171755Y0149257D03*
X0181128Y0134973D03*
D20*
X0170862Y0148810D03*
X0131581Y0119796D03*
X0138723Y0091228D03*
X0102121Y0094353D03*
X0098103Y0072481D03*
X0085604Y0007757D03*
X0183360Y0072481D03*
X0094532Y0139437D03*
D21*
X0097880Y0141668D03*
X0101451Y0144793D03*
X0095201Y0126045D03*
X0077793Y0132295D03*
X0076900Y0135419D03*
X0073329Y0132295D03*
X0063063Y0142561D03*
X0043422Y0121582D03*
X0038959Y0122921D03*
X0038959Y0112208D03*
X0024228Y0130956D03*
X0025121Y0133187D03*
X0018872Y0134080D03*
X0018425Y0133187D03*
X0014408Y0135419D03*
X0014855Y0136312D03*
X0015747Y0138544D03*
X0013962Y0134080D03*
X0013515Y0133187D03*
X0009944Y0120689D03*
X0028246Y0145686D03*
X0036727Y0159523D03*
X0034495Y0166665D03*
X0069312Y0180503D03*
X0070205Y0178271D03*
X0080918Y0183628D03*
X0081364Y0182288D03*
X0081364Y0181396D03*
X0081810Y0180503D03*
X0079579Y0187645D03*
X0089399Y0187645D03*
X0089399Y0188538D03*
X0089399Y0186752D03*
X0089845Y0185413D03*
X0089845Y0183628D03*
X0090292Y0182288D03*
X0090292Y0181396D03*
X0093862Y0183628D03*
X0093862Y0185413D03*
X0093862Y0186752D03*
X0093862Y0187645D03*
X0093862Y0190769D03*
X0088952Y0190769D03*
X0088952Y0191662D03*
X0102344Y0191662D03*
X0102344Y0187645D03*
X0102790Y0185413D03*
X0102790Y0183628D03*
X0102790Y0182288D03*
X0106807Y0185413D03*
X0115288Y0183628D03*
X0118859Y0181396D03*
X0118859Y0180503D03*
X0119306Y0182288D03*
X0116181Y0189877D03*
X0116181Y0190769D03*
X0129572Y0187645D03*
X0129572Y0186752D03*
X0129126Y0185413D03*
X0128679Y0183628D03*
X0126894Y0178271D03*
X0137160Y0179164D03*
X0139392Y0183628D03*
X0142071Y0175146D03*
X0142517Y0172915D03*
X0142517Y0172022D03*
X0130019Y0188538D03*
X0122430Y0145686D03*
X0132251Y0138544D03*
X0143856Y0126045D03*
X0142071Y0117564D03*
X0143856Y0112208D03*
X0141624Y0105066D03*
X0136268Y0101941D03*
X0142517Y0097478D03*
X0143410Y0098817D03*
X0127787Y0090336D03*
X0124662Y0092567D03*
X0123770Y0090336D03*
X0118859Y0091228D03*
X0110378Y0108191D03*
X0113057Y0114440D03*
X0117074Y0120689D03*
X0128679Y0117564D03*
X0164389Y0084086D03*
X0164836Y0084979D03*
X0163497Y0081855D03*
X0163050Y0080962D03*
X0176888Y0067124D03*
X0175995Y0065339D03*
X0175549Y0064000D03*
X0175102Y0063107D03*
X0175549Y0054626D03*
X0185369Y0059982D03*
X0185815Y0060875D03*
X0190725Y0073373D03*
X0180012Y0074713D03*
X0193850Y0088104D03*
X0194296Y0091228D03*
X0192957Y0117564D03*
X0191618Y0122921D03*
X0187601Y0119796D03*
X0181798Y0117564D03*
X0180012Y0124706D03*
X0173763Y0145686D03*
X0172870Y0147025D03*
X0115288Y0071588D03*
X0118859Y0065339D03*
X0091184Y0060875D03*
X0083596Y0074713D03*
X0077793Y0078730D03*
X0070651Y0074713D03*
X0069312Y0071588D03*
X0067080Y0075605D03*
X0057706Y0071588D03*
X0063063Y0064000D03*
X0053689Y0063107D03*
X0050118Y0078730D03*
X0045208Y0081855D03*
X0058153Y0092567D03*
X0062170Y0092567D03*
X0061723Y0098817D03*
X0079132Y0108191D03*
X0028692Y0059982D03*
X0029138Y0059090D03*
X0030477Y0056858D03*
X0026460Y0054626D03*
X0026907Y0053733D03*
X0025121Y0056858D03*
X0024675Y0057750D03*
X0026907Y0063107D03*
X0025121Y0067124D03*
X0024675Y0068463D03*
X0023336Y0071588D03*
X0018872Y0070249D03*
X0020211Y0067124D03*
X0013515Y0067124D03*
X0012176Y0070249D03*
X0017979Y0056858D03*
X0025121Y0045252D03*
X0033602Y0034985D03*
X0041190Y0043020D03*
X0044315Y0034985D03*
X0043869Y0032754D03*
X0043869Y0031861D03*
X0052350Y0020255D03*
X0059938Y0015791D03*
X0064848Y0015791D03*
X0069312Y0014899D03*
X0069312Y0014006D03*
X0070205Y0017130D03*
X0070651Y0018023D03*
X0071097Y0020255D03*
X0071544Y0021148D03*
X0068419Y0024272D03*
X0064402Y0024272D03*
X0062170Y0020255D03*
X0081810Y0014899D03*
X0081810Y0014006D03*
X0081810Y0012667D03*
X0081364Y0011774D03*
X0081364Y0010881D03*
X0093862Y0014899D03*
X0093862Y0015791D03*
X0102344Y0011774D03*
X0102344Y0010881D03*
X0102344Y0009542D03*
X0111271Y0015791D03*
X0110825Y0017130D03*
X0110825Y0018023D03*
X0112164Y0009542D03*
X0112610Y0007757D03*
X0120645Y0010881D03*
X0120645Y0011774D03*
X0120645Y0012667D03*
X0121091Y0009542D03*
X0125109Y0011774D03*
X0125109Y0012667D03*
X0124662Y0014006D03*
X0125555Y0010881D03*
X0129126Y0014899D03*
X0128679Y0015791D03*
X0127787Y0018023D03*
X0126894Y0020255D03*
X0123770Y0018023D03*
X0123770Y0017130D03*
X0122877Y0020255D03*
X0122877Y0021148D03*
X0119306Y0020255D03*
X0137160Y0018023D03*
X0137607Y0017130D03*
X0138053Y0015791D03*
X0137607Y0026504D03*
X0148766Y0024272D03*
X0150552Y0021148D03*
X0159033Y0026504D03*
X0165282Y0032754D03*
X0158586Y0041235D03*
X0156355Y0060875D03*
D22*
X0140062Y0070695D03*
X0137384Y0088550D03*
X0120868Y0082301D03*
X0085158Y0008203D03*
X0016417Y0082301D03*
D23*
X0012622Y0071142D03*
X0033602Y0063553D03*
X0040298Y0069802D03*
X0044315Y0075159D03*
X0048332Y0071142D03*
X0053243Y0075159D03*
X0054582Y0076052D03*
X0055474Y0077391D03*
X0057260Y0076052D03*
X0059045Y0078284D03*
X0061277Y0076944D03*
X0061277Y0080069D03*
X0060831Y0080515D03*
X0060831Y0082301D03*
X0061724Y0084533D03*
X0063063Y0085426D03*
X0063063Y0083640D03*
X0065295Y0085872D03*
X0065741Y0085426D03*
X0067526Y0094799D03*
X0067080Y0095246D03*
X0065741Y0097031D03*
X0069758Y0095246D03*
X0067526Y0102388D03*
X0069312Y0104620D03*
X0074222Y0106405D03*
X0074222Y0107298D03*
X0074222Y0107744D03*
X0074222Y0108637D03*
X0074222Y0109530D03*
X0077793Y0104173D03*
X0086721Y0104173D03*
X0086721Y0104620D03*
X0088952Y0104173D03*
X0088506Y0102388D03*
X0088506Y0101495D03*
X0088506Y0101049D03*
X0088952Y0099263D03*
X0090738Y0093907D03*
X0092970Y0088997D03*
X0094309Y0086765D03*
X0094755Y0085872D03*
X0095202Y0085426D03*
X0092970Y0085426D03*
X0094309Y0082747D03*
X0094755Y0082301D03*
X0098772Y0084533D03*
X0101451Y0085426D03*
X0103683Y0085872D03*
X0105915Y0088550D03*
X0105915Y0088997D03*
X0111271Y0094799D03*
X0111271Y0095246D03*
X0111717Y0096138D03*
X0111717Y0097031D03*
X0112164Y0097924D03*
X0112164Y0098370D03*
X0113503Y0101495D03*
X0115735Y0102388D03*
X0111271Y0104173D03*
X0111271Y0104620D03*
X0103683Y0102388D03*
X0102790Y0111762D03*
X0100558Y0115779D03*
X0095202Y0123367D03*
X0090291Y0125153D03*
X0086274Y0125599D03*
X0086274Y0121135D03*
X0081810Y0118903D03*
X0086721Y0115779D03*
X0091184Y0110422D03*
X0090291Y0106405D03*
X0084042Y0092121D03*
X0084935Y0082301D03*
X0084042Y0078284D03*
X0086721Y0075159D03*
X0086274Y0074266D03*
X0086274Y0073820D03*
X0084489Y0073820D03*
X0080471Y0078284D03*
X0067973Y0067571D03*
X0065741Y0068017D03*
X0059045Y0067571D03*
X0061277Y0057304D03*
X0070205Y0058197D03*
X0075561Y0061321D03*
X0091184Y0054179D03*
X0091184Y0051055D03*
X0088059Y0044806D03*
X0088059Y0043913D03*
X0088059Y0043466D03*
X0092523Y0058643D03*
X0092523Y0064446D03*
X0095202Y0066678D03*
X0101451Y0061321D03*
X0109039Y0081408D03*
X0119752Y0093907D03*
X0118413Y0106405D03*
X0121537Y0107298D03*
X0122430Y0110422D03*
X0124662Y0116225D03*
X0121984Y0125153D03*
X0126448Y0128724D03*
X0132697Y0128724D03*
X0138946Y0125599D03*
X0149213Y0128277D03*
X0139393Y0113101D03*
X0139393Y0112654D03*
X0160372Y0102388D03*
X0160372Y0101049D03*
X0157694Y0087657D03*
X0157247Y0085872D03*
X0157247Y0085426D03*
X0148766Y0078284D03*
X0149213Y0076052D03*
X0158140Y0068017D03*
X0158140Y0067571D03*
X0161711Y0065785D03*
X0162158Y0066678D03*
X0160372Y0063553D03*
X0159479Y0061768D03*
X0164389Y0057304D03*
X0163943Y0056411D03*
X0166175Y0060429D03*
X0166621Y0061321D03*
X0168407Y0065785D03*
X0168407Y0066678D03*
X0169746Y0070695D03*
X0165728Y0073820D03*
X0167960Y0080515D03*
X0172871Y0060429D03*
X0167960Y0053287D03*
X0174209Y0043466D03*
X0182244Y0051948D03*
X0136714Y0021594D03*
X0111271Y0019362D03*
X0092970Y0008203D03*
X0126448Y0055072D03*
X0109485Y0111762D03*
X0105915Y0131402D03*
X0102790Y0134527D03*
X0103236Y0135866D03*
X0103236Y0138990D03*
X0098772Y0142115D03*
X0112164Y0148364D03*
X0128680Y0134973D03*
X0072437Y0125153D03*
X0072437Y0124260D03*
X0070205Y0125599D03*
X0069312Y0124260D03*
X0065295Y0129616D03*
X0069758Y0134527D03*
X0067973Y0135866D03*
X0067526Y0139883D03*
X0067526Y0140329D03*
X0070205Y0140329D03*
X0057260Y0148364D03*
X0048779Y0163094D03*
X0042530Y0157738D03*
X0027353Y0136758D03*
X0025567Y0135866D03*
X0031817Y0127385D03*
X0046547Y0121135D03*
X0045208Y0116225D03*
X0044761Y0115779D03*
X0042083Y0114886D03*
X0036727Y0104173D03*
X0036727Y0097924D03*
X0039851Y0096138D03*
X0042976Y0098370D03*
X0044761Y0096138D03*
X0048779Y0097031D03*
X0050564Y0096138D03*
X0050564Y0095246D03*
X0048332Y0092121D03*
X0048779Y0091675D03*
X0051457Y0088997D03*
X0054582Y0092121D03*
X0060831Y0094799D03*
X0063063Y0101495D03*
X0053243Y0115779D03*
X0056813Y0118903D03*
X0045208Y0101495D03*
X0039851Y0088997D03*
X0036280Y0088550D03*
X0035834Y0086765D03*
X0035834Y0085872D03*
X0036280Y0090782D03*
X0042083Y0085872D03*
X0044761Y0085426D03*
X0051457Y0085426D03*
X0055028Y0082747D03*
X0052796Y0079176D03*
X0052796Y0077391D03*
X0053243Y0076944D03*
X0051011Y0080515D03*
X0055028Y0182735D03*
D24*
X0033825Y0034539D03*
X0050787Y0035432D03*
X0057483Y0030968D03*
X0071767Y0023826D03*
X0082480Y0020701D03*
X0076231Y0009096D03*
X0094532Y0008203D03*
X0086497Y0049716D03*
X0086497Y0050162D03*
X0090515Y0055072D03*
X0090515Y0055519D03*
X0088729Y0058197D03*
X0088283Y0058643D03*
X0088283Y0060429D03*
X0094978Y0067571D03*
X0094532Y0068017D03*
X0084712Y0069802D03*
X0082034Y0079176D03*
X0073999Y0080069D03*
X0073999Y0075159D03*
X0067750Y0068910D03*
X0067750Y0068017D03*
X0061054Y0061768D03*
X0061500Y0058643D03*
X0061054Y0058197D03*
X0071767Y0054179D03*
X0071767Y0051948D03*
X0096764Y0083640D03*
X0088729Y0090782D03*
X0086497Y0090782D03*
X0084265Y0094799D03*
X0075784Y0087657D03*
X0071767Y0086765D03*
X0069982Y0088550D03*
X0069982Y0094799D03*
X0063732Y0102388D03*
X0057037Y0097924D03*
X0051234Y0092121D03*
X0048556Y0094799D03*
X0046770Y0093907D03*
X0042753Y0092121D03*
X0042753Y0091675D03*
X0040074Y0088550D03*
X0036504Y0088997D03*
X0036057Y0087657D03*
X0036057Y0096138D03*
X0036057Y0097031D03*
X0040521Y0097924D03*
X0040521Y0098370D03*
X0036504Y0104620D03*
X0042306Y0115779D03*
X0049002Y0104620D03*
X0067750Y0123367D03*
X0072213Y0126492D03*
X0071767Y0127385D03*
X0069982Y0132741D03*
X0071767Y0135866D03*
X0072213Y0138097D03*
X0065518Y0137651D03*
X0071767Y0119350D03*
X0071767Y0112654D03*
X0078016Y0105512D03*
X0078016Y0104620D03*
X0082034Y0116225D03*
X0088283Y0122028D03*
X0094978Y0125153D03*
X0098996Y0132741D03*
X0103013Y0142115D03*
X0111494Y0141222D03*
X0113726Y0142115D03*
X0115511Y0143008D03*
X0117743Y0141222D03*
X0118190Y0143454D03*
X0121761Y0138990D03*
X0124439Y0138990D03*
X0123993Y0136758D03*
X0126224Y0128277D03*
X0124439Y0125599D03*
X0124439Y0125153D03*
X0130242Y0116225D03*
X0123993Y0114886D03*
X0123993Y0112654D03*
X0121761Y0114886D03*
X0121761Y0107744D03*
X0121761Y0104620D03*
X0119975Y0102388D03*
X0122207Y0097031D03*
X0121761Y0094799D03*
X0113726Y0102388D03*
X0103459Y0104173D03*
X0092746Y0106405D03*
X0092746Y0109530D03*
X0111494Y0119350D03*
X0111494Y0134527D03*
X0111494Y0134973D03*
X0134706Y0095246D03*
X0134706Y0094799D03*
X0148989Y0079176D03*
X0157917Y0072034D03*
X0157471Y0071142D03*
X0159702Y0074266D03*
X0160149Y0075159D03*
X0166398Y0076052D03*
X0164166Y0069802D03*
X0168184Y0064892D03*
X0168184Y0064446D03*
X0160149Y0055072D03*
X0178450Y0071142D03*
X0165952Y0091675D03*
X0178450Y0127385D03*
X0118190Y0069802D03*
X0121761Y0058643D03*
X0107477Y0080515D03*
X0145419Y0031414D03*
X0033825Y0053287D03*
X0034272Y0064446D03*
X0017756Y0058197D03*
X0015524Y0139883D03*
D25*
X0015524Y0138097D03*
X0014631Y0135866D03*
X0014185Y0134973D03*
X0013292Y0132741D03*
X0011507Y0127385D03*
X0010614Y0124260D03*
X0009275Y0118903D03*
X0009275Y0118011D03*
X0020434Y0118903D03*
X0024451Y0131402D03*
X0019095Y0134527D03*
X0019988Y0136758D03*
X0020434Y0137651D03*
X0039182Y0122474D03*
X0042753Y0122474D03*
X0043199Y0122028D03*
X0043646Y0121135D03*
X0041414Y0127385D03*
X0042753Y0111762D03*
X0036503Y0105512D03*
X0040521Y0101049D03*
X0041860Y0093907D03*
X0035611Y0094799D03*
X0044984Y0082301D03*
X0047663Y0072034D03*
X0049448Y0070695D03*
X0052127Y0068910D03*
X0054359Y0071142D03*
X0054805Y0070695D03*
X0056144Y0069802D03*
X0057483Y0068910D03*
X0062393Y0060429D03*
X0069535Y0061321D03*
X0069981Y0061768D03*
X0074445Y0064446D03*
X0078462Y0068910D03*
X0082480Y0070695D03*
X0073553Y0080515D03*
X0070428Y0074266D03*
X0070428Y0073820D03*
X0068642Y0071142D03*
X0068196Y0090782D03*
X0067303Y0091675D03*
X0066857Y0092121D03*
X0058376Y0091675D03*
X0058822Y0096138D03*
X0051680Y0101495D03*
X0069089Y0126492D03*
X0074445Y0128277D03*
X0073106Y0132741D03*
X0076231Y0134527D03*
X0077123Y0137651D03*
X0071767Y0136758D03*
X0065071Y0138990D03*
X0064625Y0139883D03*
X0064625Y0140329D03*
X0062393Y0143008D03*
X0060161Y0141222D03*
X0061054Y0139883D03*
X0076677Y0146132D03*
X0082034Y0126492D03*
X0085158Y0123367D03*
X0094978Y0122474D03*
X0095425Y0125599D03*
X0099888Y0125153D03*
X0110601Y0115779D03*
X0113280Y0114886D03*
X0114619Y0108637D03*
X0110601Y0107744D03*
X0111048Y0106405D03*
X0107031Y0106405D03*
X0107031Y0105512D03*
X0107031Y0107298D03*
X0103459Y0105512D03*
X0103459Y0104620D03*
X0095425Y0110422D03*
X0093193Y0112654D03*
X0087390Y0110869D03*
X0086944Y0110422D03*
X0092300Y0105512D03*
X0078016Y0099263D03*
X0090068Y0088997D03*
X0090515Y0088550D03*
X0093639Y0079176D03*
X0094086Y0068910D03*
X0094978Y0060429D03*
X0091407Y0060429D03*
X0087390Y0055519D03*
X0106584Y0080069D03*
X0115512Y0071142D03*
X0118636Y0071142D03*
X0118636Y0073820D03*
X0118190Y0074266D03*
X0117744Y0075159D03*
X0116851Y0076052D03*
X0116404Y0076944D03*
X0119083Y0064892D03*
X0136491Y0085426D03*
X0136491Y0085872D03*
X0128456Y0092121D03*
X0136491Y0102388D03*
X0142740Y0097924D03*
X0144079Y0112654D03*
X0142294Y0118011D03*
X0138723Y0126492D03*
X0132474Y0138097D03*
X0123546Y0143008D03*
X0121761Y0138097D03*
X0120868Y0136758D03*
X0118190Y0122474D03*
X0118190Y0122028D03*
X0117297Y0121135D03*
X0124439Y0121135D03*
X0121314Y0113101D03*
X0101674Y0144347D03*
X0094086Y0181842D03*
X0094086Y0182735D03*
X0090068Y0183181D03*
X0089622Y0185859D03*
X0089622Y0186306D03*
X0088729Y0193448D03*
X0079802Y0187199D03*
X0080694Y0184074D03*
X0067303Y0184074D03*
X0063732Y0173361D03*
X0049002Y0163987D03*
X0102567Y0185859D03*
X0102567Y0186306D03*
X0102567Y0187199D03*
X0107031Y0187199D03*
X0107031Y0186306D03*
X0115512Y0184967D03*
X0129349Y0186306D03*
X0130242Y0189430D03*
X0142294Y0174700D03*
X0142294Y0173807D03*
X0143186Y0170683D03*
X0153899Y0163094D03*
X0164612Y0169344D03*
X0173540Y0139883D03*
X0178450Y0128277D03*
X0180236Y0124260D03*
X0181575Y0118903D03*
X0181575Y0118011D03*
X0182914Y0114886D03*
X0187824Y0118903D03*
X0187824Y0119350D03*
X0187377Y0121135D03*
X0186485Y0124260D03*
X0191395Y0124260D03*
X0191395Y0123367D03*
X0191841Y0122474D03*
X0191841Y0122028D03*
X0192734Y0118903D03*
X0192734Y0118011D03*
X0194520Y0092121D03*
X0194073Y0088997D03*
X0194073Y0088550D03*
X0193627Y0086765D03*
X0193627Y0085872D03*
X0191841Y0077391D03*
X0191841Y0076944D03*
X0191395Y0076052D03*
X0191395Y0075159D03*
X0190949Y0074266D03*
X0181128Y0079176D03*
X0180236Y0076052D03*
X0177111Y0067571D03*
X0176664Y0066678D03*
X0162827Y0080515D03*
X0163273Y0081408D03*
X0163720Y0082301D03*
X0157024Y0083640D03*
X0156578Y0082301D03*
X0156131Y0081408D03*
X0155685Y0080515D03*
X0155239Y0079176D03*
X0157024Y0069802D03*
X0155685Y0067571D03*
X0156578Y0061321D03*
X0166398Y0092121D03*
X0159256Y0104173D03*
X0137830Y0026951D03*
X0123100Y0019809D03*
X0124885Y0013113D03*
X0125778Y0009989D03*
X0120868Y0010435D03*
X0120421Y0013113D03*
X0112387Y0008203D03*
X0111048Y0016238D03*
X0111048Y0016684D03*
X0110601Y0018470D03*
X0082480Y0017577D03*
X0071321Y0020701D03*
X0064179Y0013559D03*
X0044092Y0040788D03*
X0022666Y0048823D03*
X0020881Y0064892D03*
X0025344Y0066678D03*
X0024898Y0067571D03*
X0024451Y0068910D03*
X0024005Y0069802D03*
X0019095Y0069802D03*
X0018649Y0070695D03*
X0013292Y0067571D03*
X0012399Y0070695D03*
X0021327Y0078284D03*
X0034718Y0064892D03*
X0036950Y0068910D03*
X0044092Y0064892D03*
D26*
X0084712Y0008649D03*
D27*
X0081364Y0012220D03*
X0082703Y0018916D03*
X0093862Y0015345D03*
X0102344Y0008649D03*
X0111271Y0015345D03*
X0119306Y0018916D03*
X0123323Y0018916D03*
X0127340Y0018916D03*
X0128679Y0015345D03*
X0125109Y0012220D03*
X0120645Y0012220D03*
X0121091Y0008649D03*
X0138053Y0015345D03*
X0138053Y0025612D03*
X0146088Y0029183D03*
X0150105Y0022041D03*
X0181798Y0052840D03*
X0190725Y0072927D03*
X0191618Y0076498D03*
X0157247Y0083194D03*
X0151891Y0069356D03*
X0125109Y0093014D03*
X0123770Y0089889D03*
X0127787Y0100156D03*
X0114396Y0109976D03*
X0106807Y0106851D03*
X0088060Y0120243D03*
X0084935Y0123814D03*
X0077347Y0137205D03*
X0077347Y0147471D03*
X0070205Y0177825D03*
X0068866Y0180949D03*
X0071544Y0188091D03*
X0079579Y0188091D03*
X0081810Y0180949D03*
X0089845Y0184520D03*
X0089399Y0188091D03*
X0088952Y0191216D03*
X0093862Y0184520D03*
X0102790Y0184520D03*
X0106807Y0184520D03*
X0102344Y0191216D03*
X0116181Y0191216D03*
X0124662Y0184520D03*
X0128679Y0184520D03*
X0130019Y0188091D03*
X0138053Y0180949D03*
X0139839Y0184520D03*
X0118859Y0180949D03*
X0111271Y0140776D03*
X0121091Y0137205D03*
X0132251Y0137205D03*
X0137607Y0117118D03*
X0122430Y0072927D03*
X0093416Y0069356D03*
X0082703Y0083194D03*
X0066187Y0093014D03*
X0042083Y0086318D03*
X0040744Y0100156D03*
X0024228Y0130509D03*
X0018872Y0133634D03*
X0020211Y0137205D03*
X0027353Y0143900D03*
X0037620Y0157292D03*
X0024228Y0069356D03*
X0029138Y0059536D03*
X0030924Y0055965D03*
X0020211Y0052840D03*
X0018425Y0055965D03*
X0012623Y0069356D03*
X0041190Y0042574D03*
X0043869Y0032307D03*
X0043869Y0025612D03*
X0064848Y0015345D03*
X0066187Y0018916D03*
X0070651Y0018916D03*
D28*
X0071767Y0022041D03*
X0082034Y0015345D03*
X0110601Y0018916D03*
X0112387Y0008649D03*
X0072213Y0052840D03*
X0078909Y0066231D03*
X0091854Y0066231D03*
X0094978Y0059536D03*
X0116851Y0076498D03*
X0127564Y0089889D03*
X0122207Y0096585D03*
X0111048Y0106851D03*
X0090068Y0106851D03*
X0086944Y0109976D03*
X0085605Y0113547D03*
X0078462Y0106851D03*
X0071767Y0117118D03*
X0069089Y0126938D03*
X0072660Y0133634D03*
X0071767Y0137205D03*
X0076677Y0133634D03*
X0079802Y0140776D03*
X0089622Y0147471D03*
X0103906Y0140776D03*
X0129349Y0126938D03*
X0133366Y0130509D03*
X0142740Y0120243D03*
X0165059Y0086318D03*
X0155239Y0079623D03*
X0139616Y0069356D03*
X0180236Y0076498D03*
X0181128Y0079623D03*
X0193627Y0086318D03*
X0194073Y0089889D03*
X0192288Y0120243D03*
X0191395Y0123814D03*
X0187377Y0120243D03*
X0181128Y0120243D03*
X0180236Y0123814D03*
X0142294Y0174254D03*
X0127117Y0177825D03*
X0115958Y0188091D03*
X0115512Y0184520D03*
X0093639Y0191216D03*
X0067303Y0184520D03*
X0060608Y0140776D03*
X0041414Y0126938D03*
X0025344Y0133634D03*
X0015078Y0137205D03*
X0013738Y0133634D03*
X0010614Y0123814D03*
X0009721Y0120243D03*
X0042307Y0093014D03*
X0047216Y0079623D03*
X0041414Y0072927D03*
X0036950Y0069356D03*
X0025344Y0066231D03*
X0020434Y0066231D03*
X0013738Y0066231D03*
X0057037Y0069356D03*
X0061947Y0093014D03*
X0058376Y0096585D03*
D29*
X0050341Y0110869D03*
X0050341Y0112654D03*
X0074445Y0143008D03*
X0095425Y0140329D03*
X0095425Y0139883D03*
X0130242Y0118903D03*
X0136045Y0115779D03*
X0131134Y0111762D03*
X0144079Y0114886D03*
X0133813Y0125599D03*
X0128010Y0094799D03*
X0112833Y0080069D03*
X0112387Y0074266D03*
X0112833Y0073820D03*
X0123546Y0069802D03*
X0098549Y0071142D03*
X0086051Y0065785D03*
X0085605Y0066678D03*
X0081587Y0060429D03*
X0077123Y0071142D03*
X0065964Y0077391D03*
X0056590Y0024719D03*
X0083373Y0009096D03*
X0100335Y0016684D03*
X0130242Y0022933D03*
X0135598Y0013559D03*
X0146311Y0025165D03*
X0155239Y0033200D03*
X0178004Y0055519D03*
X0190056Y0079176D03*
X0184253Y0115779D03*
X0188717Y0125599D03*
X0188717Y0126492D03*
X0180236Y0138990D03*
X0178004Y0138097D03*
X0177111Y0137651D03*
X0183360Y0140329D03*
X0037396Y0162202D03*
X0030254Y0146132D03*
X0024898Y0143454D03*
D30*
X0019988Y0138097D03*
X0022666Y0126492D03*
X0041414Y0128277D03*
X0041414Y0128724D03*
X0041414Y0129616D03*
X0044092Y0119350D03*
X0039628Y0102388D03*
X0044092Y0099263D03*
X0047216Y0096138D03*
X0048109Y0095246D03*
X0049448Y0093907D03*
X0052573Y0093907D03*
X0054359Y0095246D03*
X0051680Y0097924D03*
X0051680Y0091675D03*
X0052127Y0090782D03*
X0056590Y0085426D03*
X0058822Y0083640D03*
X0060608Y0082747D03*
X0058376Y0077391D03*
X0054359Y0072034D03*
X0052573Y0069802D03*
X0050341Y0071142D03*
X0050341Y0075159D03*
X0051680Y0080069D03*
X0048109Y0082747D03*
X0047216Y0079176D03*
X0041414Y0073820D03*
X0051680Y0064892D03*
X0064179Y0061768D03*
X0066857Y0064892D03*
X0069089Y0060429D03*
X0074892Y0061768D03*
X0077570Y0064892D03*
X0081587Y0069802D03*
X0075338Y0076052D03*
X0076677Y0086765D03*
X0074892Y0088550D03*
X0070874Y0087657D03*
X0068642Y0098370D03*
X0060161Y0095246D03*
X0057929Y0097031D03*
X0045877Y0094799D03*
X0043199Y0090782D03*
X0043199Y0088997D03*
X0043199Y0088550D03*
X0025344Y0064446D03*
X0044092Y0025165D03*
X0052573Y0019362D03*
X0089175Y0057304D03*
X0091854Y0067571D03*
X0099888Y0064892D03*
X0100335Y0064446D03*
X0087390Y0078284D03*
X0086051Y0080515D03*
X0095871Y0084533D03*
X0097657Y0085426D03*
X0096318Y0087657D03*
X0102567Y0087657D03*
X0108370Y0087657D03*
X0108370Y0086765D03*
X0110601Y0085426D03*
X0111048Y0093907D03*
X0107031Y0104173D03*
X0107031Y0104620D03*
X0107031Y0107744D03*
X0107923Y0110869D03*
X0110601Y0109530D03*
X0111048Y0105512D03*
X0114619Y0105512D03*
X0114619Y0104620D03*
X0117297Y0104620D03*
X0121314Y0104173D03*
X0122653Y0105512D03*
X0123100Y0106405D03*
X0135598Y0108637D03*
X0137830Y0109530D03*
X0137830Y0110422D03*
X0137830Y0110869D03*
X0137384Y0111762D03*
X0141401Y0113101D03*
X0140509Y0104173D03*
X0138277Y0104620D03*
X0135598Y0097924D03*
X0131581Y0092121D03*
X0141401Y0087657D03*
X0141847Y0086765D03*
X0157024Y0084533D03*
X0160595Y0076052D03*
X0167737Y0080069D03*
X0162827Y0068017D03*
X0161042Y0064446D03*
X0156578Y0061768D03*
X0156131Y0066678D03*
X0156131Y0068910D03*
X0167291Y0061768D03*
X0165059Y0058197D03*
X0182021Y0052394D03*
X0169076Y0035432D03*
X0150329Y0019809D03*
X0125332Y0009096D03*
X0126671Y0067571D03*
X0160595Y0095246D03*
X0160595Y0101495D03*
X0192734Y0082747D03*
X0189609Y0131848D03*
X0173540Y0138990D03*
X0143633Y0170236D03*
X0140062Y0186306D03*
X0129796Y0190323D03*
X0121314Y0192555D03*
X0076677Y0148364D03*
X0079355Y0141222D03*
X0082926Y0138097D03*
X0076677Y0136758D03*
X0077570Y0131402D03*
X0074445Y0127385D03*
X0071321Y0128724D03*
X0068642Y0128724D03*
X0066410Y0127385D03*
X0062393Y0131402D03*
X0070428Y0131402D03*
X0070428Y0131848D03*
X0070428Y0123367D03*
X0074445Y0111762D03*
X0074445Y0110869D03*
X0074445Y0110422D03*
X0075338Y0104620D03*
X0079355Y0098370D03*
X0079355Y0097924D03*
X0079355Y0097031D03*
X0086944Y0106405D03*
X0087390Y0107744D03*
X0091407Y0110869D03*
X0091854Y0111762D03*
X0092300Y0116225D03*
X0097657Y0116225D03*
X0097657Y0115779D03*
X0095871Y0107298D03*
X0091854Y0102388D03*
X0091854Y0101495D03*
X0089622Y0096138D03*
X0090068Y0094799D03*
X0086944Y0118903D03*
X0087390Y0119350D03*
X0107031Y0129616D03*
X0108370Y0131402D03*
X0106584Y0132741D03*
X0106138Y0131848D03*
X0114619Y0141222D03*
X0116404Y0139883D03*
X0118636Y0143008D03*
X0115065Y0143454D03*
X0110601Y0142115D03*
X0110601Y0146132D03*
X0122653Y0144347D03*
X0123100Y0143454D03*
X0131134Y0145239D03*
X0136045Y0146579D03*
X0126671Y0134527D03*
X0125778Y0132741D03*
X0125332Y0131848D03*
X0125332Y0131402D03*
X0125778Y0127385D03*
X0127117Y0125599D03*
X0129349Y0126492D03*
X0123100Y0123367D03*
X0108816Y0118903D03*
X0089175Y0142115D03*
X0064179Y0180057D03*
X0058822Y0182735D03*
X0027130Y0158631D03*
D31*
X0021773Y0145686D03*
X0013292Y0132295D03*
X0036057Y0108191D03*
X0040521Y0099709D03*
X0053466Y0099709D03*
X0040074Y0119796D03*
X0040074Y0120689D03*
X0058822Y0132295D03*
X0061500Y0138544D03*
X0058822Y0142561D03*
X0073999Y0130956D03*
X0067303Y0124706D03*
X0094978Y0114440D03*
X0099442Y0124706D03*
X0107477Y0119796D03*
X0113726Y0111315D03*
X0103013Y0093460D03*
X0079802Y0081855D03*
X0092746Y0070249D03*
X0059715Y0062214D03*
X0057483Y0072481D03*
X0040074Y0044359D03*
X0038735Y0033646D03*
X0057037Y0028736D03*
X0057483Y0029629D03*
X0067303Y0021148D03*
X0065964Y0018023D03*
X0065518Y0017130D03*
X0061054Y0018023D03*
X0075784Y0009542D03*
X0024005Y0059982D03*
X0094532Y0144793D03*
X0123993Y0135419D03*
X0153900Y0163541D03*
X0155685Y0165773D03*
X0157917Y0168897D03*
X0160149Y0172022D03*
X0151668Y0175146D03*
X0149436Y0172022D03*
X0147650Y0169790D03*
X0147650Y0168897D03*
X0159702Y0158184D03*
X0168630Y0147918D03*
X0172201Y0147918D03*
X0174879Y0142561D03*
X0174433Y0141668D03*
X0178896Y0147918D03*
X0188717Y0132295D03*
X0178896Y0130063D03*
X0138723Y0182288D03*
X0140508Y0185413D03*
X0124439Y0185413D03*
X0122207Y0191662D03*
X0078016Y0191662D03*
X0069982Y0177378D03*
X0059715Y0172915D03*
X0054805Y0169790D03*
X0053019Y0172022D03*
X0168630Y0063107D03*
X0174879Y0053733D03*
X0174433Y0042127D03*
X0161934Y0044359D03*
X0138723Y0024272D03*
X0140508Y0021148D03*
X0140955Y0020255D03*
X0142740Y0017130D03*
X0130688Y0010881D03*
X0187378Y0065339D03*
D32*
X0188717Y0070249D03*
X0190948Y0078730D03*
X0176665Y0056858D03*
X0180235Y0054626D03*
X0161488Y0036771D03*
X0153453Y0056858D03*
X0146758Y0074713D03*
X0145419Y0100602D03*
X0143187Y0115332D03*
X0138723Y0127831D03*
X0136491Y0129170D03*
X0129795Y0118457D03*
X0129795Y0105066D03*
X0129795Y0103727D03*
X0094532Y0077837D03*
X0090068Y0072481D03*
X0082926Y0075605D03*
X0073552Y0065339D03*
X0080695Y0062214D03*
X0084712Y0057750D03*
X0088283Y0064000D03*
X0086051Y0092567D03*
X0062839Y0091228D03*
X0076677Y0115332D03*
X0079802Y0127831D03*
X0038289Y0115332D03*
X0037843Y0116672D03*
X0032486Y0111315D03*
X0035611Y0048377D03*
X0043199Y0038110D03*
X0069982Y0012667D03*
X0082034Y0009542D03*
X0135152Y0020255D03*
X0121761Y0062214D03*
X0186931Y0117564D03*
X0147650Y0181396D03*
X0126671Y0181396D03*
X0122207Y0188538D03*
D33*
X0120198Y0185413D03*
X0119752Y0183628D03*
X0115735Y0186752D03*
X0115735Y0187645D03*
X0107254Y0188538D03*
X0107254Y0189877D03*
X0107700Y0191662D03*
X0130465Y0189877D03*
X0126001Y0156399D03*
X0124216Y0136312D03*
X0142963Y0120689D03*
X0145195Y0127831D03*
X0178673Y0129170D03*
X0180459Y0132295D03*
X0186708Y0124706D03*
X0187154Y0121582D03*
X0191172Y0124706D03*
X0180459Y0122921D03*
X0184922Y0141668D03*
X0170192Y0162648D03*
X0103236Y0126045D03*
X0098772Y0114440D03*
X0090738Y0108191D03*
X0078239Y0099709D03*
X0065741Y0093460D03*
X0065741Y0089443D03*
X0059492Y0112208D03*
X0074222Y0130063D03*
X0076008Y0136312D03*
X0061277Y0139437D03*
X0036280Y0160416D03*
X0027799Y0144793D03*
X0026014Y0135419D03*
X0025567Y0134080D03*
X0023782Y0130063D03*
X0019318Y0135419D03*
X0019765Y0136312D03*
X0010837Y0124706D03*
X0009052Y0117564D03*
X0023782Y0070249D03*
X0023782Y0059090D03*
X0019318Y0054626D03*
X0019765Y0053733D03*
X0017533Y0057750D03*
X0030031Y0057750D03*
X0031817Y0054626D03*
X0052796Y0021148D03*
X0069758Y0015791D03*
X0082257Y0015791D03*
X0111717Y0012667D03*
X0111717Y0011774D03*
X0119752Y0017130D03*
X0124216Y0015791D03*
X0124216Y0014899D03*
X0128233Y0017130D03*
X0126001Y0009542D03*
X0146981Y0027397D03*
X0145195Y0030522D03*
X0149213Y0023380D03*
X0186708Y0062214D03*
X0180905Y0078730D03*
X0155462Y0067124D03*
X0128233Y0091228D03*
X0124216Y0091228D03*
X0119752Y0092567D03*
X0117967Y0090336D03*
X0126001Y0068463D03*
X0057260Y0177378D03*
X0048779Y0178271D03*
X0069758Y0179164D03*
X0080471Y0185413D03*
X0080025Y0186752D03*
D34*
X0081364Y0144347D03*
X0060384Y0128724D03*
X0079132Y0113993D03*
X0093862Y0078284D03*
X0091631Y0071142D03*
X0075115Y0055072D03*
X0075115Y0009989D03*
X0026907Y0047037D03*
X0009944Y0085872D03*
X0012176Y0087657D03*
X0133590Y0024719D03*
X0163050Y0155506D03*
D35*
X0173540Y0159077D03*
X0173094Y0146579D03*
X0175325Y0143008D03*
X0173540Y0140329D03*
X0177557Y0146132D03*
X0179789Y0131402D03*
X0187824Y0118011D03*
X0165059Y0085872D03*
X0165059Y0085426D03*
X0164612Y0084533D03*
X0142294Y0097031D03*
X0143633Y0099263D03*
X0135598Y0101495D03*
X0143633Y0110869D03*
X0143633Y0125599D03*
X0144079Y0127385D03*
X0132027Y0135866D03*
X0132027Y0136758D03*
X0123546Y0134973D03*
X0118636Y0148364D03*
X0104352Y0139883D03*
X0112833Y0113993D03*
X0116851Y0114886D03*
X0094086Y0113101D03*
X0077570Y0132741D03*
X0070874Y0141222D03*
X0045431Y0169344D03*
X0043199Y0172468D03*
X0034718Y0166219D03*
X0034718Y0149703D03*
X0054359Y0170236D03*
X0058376Y0175593D03*
X0060161Y0172468D03*
X0078909Y0189430D03*
X0124885Y0184074D03*
X0127117Y0178717D03*
X0136045Y0174700D03*
X0137384Y0179610D03*
X0139616Y0184074D03*
X0140062Y0184967D03*
X0152114Y0175593D03*
X0150775Y0173807D03*
X0150329Y0173361D03*
X0149882Y0172468D03*
X0148097Y0170236D03*
X0156578Y0167112D03*
X0158363Y0169344D03*
X0158810Y0170236D03*
X0159256Y0170683D03*
X0069089Y0085872D03*
X0062393Y0092121D03*
X0064179Y0094799D03*
X0054359Y0096138D03*
X0052127Y0098370D03*
X0062393Y0075159D03*
X0071321Y0076052D03*
X0083373Y0075159D03*
X0062840Y0064446D03*
X0040967Y0043466D03*
X0039628Y0044806D03*
X0044092Y0040342D03*
X0044092Y0034539D03*
X0044092Y0034093D03*
X0039182Y0034093D03*
X0043646Y0026058D03*
X0054359Y0023826D03*
X0055697Y0026058D03*
X0056590Y0028290D03*
X0064625Y0024719D03*
X0064179Y0023826D03*
X0062393Y0020701D03*
X0061947Y0019809D03*
X0060161Y0016684D03*
X0069089Y0013559D03*
X0069089Y0013113D03*
X0081141Y0009989D03*
X0127117Y0019809D03*
X0137830Y0026058D03*
X0138277Y0025165D03*
X0149882Y0022487D03*
X0150329Y0021594D03*
X0150775Y0020701D03*
X0152560Y0034539D03*
X0152560Y0035432D03*
X0165059Y0033200D03*
X0171308Y0038556D03*
X0173094Y0040788D03*
X0165059Y0047930D03*
X0175325Y0054179D03*
X0123100Y0064446D03*
X0123100Y0065785D03*
X0033379Y0052394D03*
X0027130Y0053287D03*
X0026683Y0054179D03*
X0024898Y0057304D03*
X0028469Y0060429D03*
X0020881Y0051948D03*
X0028915Y0040788D03*
X0030701Y0038556D03*
D36*
X0044092Y0041681D03*
X0057037Y0031414D03*
X0044092Y0024719D03*
X0071767Y0050162D03*
X0071767Y0051055D03*
X0070428Y0056411D03*
X0069982Y0057304D03*
X0070428Y0058643D03*
X0067303Y0060429D03*
X0067303Y0061321D03*
X0065964Y0061321D03*
X0065964Y0061768D03*
X0068196Y0063553D03*
X0069089Y0064446D03*
X0067303Y0065785D03*
X0069535Y0066678D03*
X0069535Y0067571D03*
X0069535Y0068017D03*
X0069982Y0068910D03*
X0072660Y0072034D03*
X0075338Y0063553D03*
X0080695Y0067571D03*
X0079802Y0077391D03*
X0082926Y0082301D03*
X0084265Y0081408D03*
X0086051Y0081408D03*
X0092746Y0085872D03*
X0097657Y0085872D03*
X0102567Y0088997D03*
X0105691Y0090782D03*
X0107923Y0088997D03*
X0108816Y0090782D03*
X0108816Y0091675D03*
X0108816Y0092121D03*
X0111048Y0086765D03*
X0110155Y0082301D03*
X0118190Y0088997D03*
X0119529Y0099263D03*
X0121314Y0101495D03*
X0122207Y0102388D03*
X0123546Y0104173D03*
X0123993Y0104620D03*
X0123546Y0107298D03*
X0120422Y0108637D03*
X0119975Y0107744D03*
X0119529Y0107298D03*
X0118190Y0107298D03*
X0118190Y0107744D03*
X0119975Y0105512D03*
X0119529Y0104620D03*
X0117743Y0102388D03*
X0115065Y0101495D03*
X0115065Y0101049D03*
X0111048Y0102388D03*
X0107030Y0102388D03*
X0096317Y0101495D03*
X0089176Y0098370D03*
X0089176Y0097924D03*
X0086051Y0101495D03*
X0086497Y0102388D03*
X0084265Y0095246D03*
X0080248Y0094799D03*
X0075338Y0102388D03*
X0073999Y0104620D03*
X0069535Y0104173D03*
X0069089Y0102388D03*
X0069089Y0101495D03*
X0069535Y0101049D03*
X0069535Y0099263D03*
X0065964Y0102388D03*
X0065071Y0104173D03*
X0061500Y0102388D03*
X0054358Y0094799D03*
X0050787Y0094799D03*
X0049002Y0097924D03*
X0046324Y0102388D03*
X0046324Y0104173D03*
X0044985Y0104173D03*
X0049002Y0104173D03*
X0046770Y0109530D03*
X0044092Y0114886D03*
X0041860Y0113993D03*
X0038735Y0110869D03*
X0038735Y0110422D03*
X0037843Y0109530D03*
X0036950Y0110422D03*
X0036950Y0110869D03*
X0036057Y0111762D03*
X0033825Y0114886D03*
X0039628Y0109530D03*
X0036504Y0098370D03*
X0040074Y0097031D03*
X0039628Y0095246D03*
X0039628Y0092121D03*
X0037843Y0087657D03*
X0037843Y0086765D03*
X0036950Y0084533D03*
X0036950Y0082747D03*
X0036950Y0082301D03*
X0036950Y0081408D03*
X0044092Y0082747D03*
X0044985Y0085872D03*
X0044985Y0086765D03*
X0045431Y0087657D03*
X0045431Y0088550D03*
X0045431Y0088997D03*
X0044985Y0090782D03*
X0044985Y0091675D03*
X0044985Y0092121D03*
X0044538Y0093907D03*
X0042753Y0097924D03*
X0034718Y0090782D03*
X0048556Y0087657D03*
X0050787Y0085872D03*
X0053019Y0087657D03*
X0057483Y0090782D03*
X0059715Y0085872D03*
X0057483Y0082747D03*
X0057930Y0082301D03*
X0057037Y0081408D03*
X0055698Y0082301D03*
X0058822Y0080069D03*
X0059269Y0081408D03*
X0062839Y0082301D03*
X0065071Y0082301D03*
X0065518Y0083640D03*
X0066857Y0082747D03*
X0067750Y0083640D03*
X0066857Y0084533D03*
X0061054Y0077391D03*
X0054805Y0074266D03*
X0049448Y0073820D03*
X0049002Y0076052D03*
X0049448Y0077391D03*
X0044985Y0073820D03*
X0044538Y0074266D03*
X0044092Y0076052D03*
X0042753Y0075159D03*
X0041860Y0070695D03*
X0049002Y0068910D03*
X0050341Y0068017D03*
X0050787Y0067571D03*
X0053019Y0065785D03*
X0054358Y0066678D03*
X0060608Y0068910D03*
X0073999Y0086765D03*
X0092300Y0076052D03*
X0092746Y0063553D03*
X0092746Y0058197D03*
X0093193Y0057304D03*
X0091408Y0053287D03*
X0091408Y0052394D03*
X0091408Y0050162D03*
X0087836Y0047037D03*
X0087836Y0046591D03*
X0086944Y0048823D03*
X0089176Y0054179D03*
X0101228Y0061768D03*
X0115511Y0064892D03*
X0121314Y0073820D03*
X0124439Y0073820D03*
X0134706Y0081408D03*
X0134259Y0093907D03*
X0139169Y0101049D03*
X0139169Y0101495D03*
X0140955Y0101495D03*
X0140955Y0101049D03*
X0141401Y0102388D03*
X0142294Y0104173D03*
X0139169Y0105512D03*
X0139616Y0110869D03*
X0139616Y0111762D03*
X0141401Y0112654D03*
X0140508Y0125599D03*
X0133367Y0128277D03*
X0127563Y0131402D03*
X0127563Y0131848D03*
X0128903Y0134527D03*
X0126671Y0134973D03*
X0126671Y0139883D03*
X0118190Y0140329D03*
X0114172Y0144347D03*
X0113280Y0143008D03*
X0111941Y0145239D03*
X0102567Y0138097D03*
X0101674Y0136758D03*
X0100335Y0138097D03*
X0100781Y0138990D03*
X0101228Y0139883D03*
X0103013Y0134973D03*
X0108816Y0132741D03*
X0097657Y0127385D03*
X0095425Y0127385D03*
X0095425Y0124260D03*
X0089176Y0127385D03*
X0081587Y0124260D03*
X0082480Y0119350D03*
X0083819Y0114886D03*
X0086944Y0111762D03*
X0088283Y0111762D03*
X0088729Y0112654D03*
X0089176Y0113101D03*
X0091408Y0114886D03*
X0090515Y0118903D03*
X0090515Y0109530D03*
X0100781Y0116225D03*
X0101674Y0118011D03*
X0106138Y0118011D03*
X0106138Y0118903D03*
X0109262Y0113993D03*
X0124439Y0122028D03*
X0125778Y0119350D03*
X0125778Y0118903D03*
X0126224Y0115779D03*
X0126224Y0114886D03*
X0156132Y0090782D03*
X0158363Y0088997D03*
X0157917Y0088550D03*
X0157471Y0086765D03*
X0161934Y0080069D03*
X0161488Y0079176D03*
X0163720Y0080069D03*
X0166398Y0077391D03*
X0166398Y0076944D03*
X0166845Y0078284D03*
X0167737Y0081408D03*
X0167737Y0082301D03*
X0167737Y0084533D03*
X0167737Y0085426D03*
X0165505Y0090782D03*
X0160149Y0094799D03*
X0160595Y0097031D03*
X0160595Y0097924D03*
X0160595Y0098370D03*
X0159702Y0104620D03*
X0158363Y0104620D03*
X0157917Y0105512D03*
X0157024Y0106405D03*
X0178450Y0126492D03*
X0180682Y0125599D03*
X0164613Y0170236D03*
X0119529Y0179610D03*
X0091408Y0142115D03*
X0090515Y0139883D03*
X0086497Y0141222D03*
X0084712Y0141222D03*
X0080248Y0143454D03*
X0075784Y0149257D03*
X0074445Y0141222D03*
X0073552Y0138097D03*
X0069535Y0138097D03*
X0069089Y0137651D03*
X0069089Y0138990D03*
X0067750Y0138990D03*
X0067750Y0138097D03*
X0067750Y0137651D03*
X0065964Y0135866D03*
X0067750Y0134973D03*
X0069982Y0134973D03*
X0068196Y0131848D03*
X0066857Y0131402D03*
X0067303Y0129616D03*
X0069089Y0129616D03*
X0070428Y0125153D03*
X0074445Y0126492D03*
X0071321Y0118903D03*
X0071767Y0111762D03*
X0069982Y0108637D03*
X0058822Y0115779D03*
X0057037Y0112654D03*
X0054358Y0121135D03*
X0046324Y0125599D03*
X0041860Y0131402D03*
X0057037Y0131402D03*
X0065964Y0124260D03*
X0083819Y0135866D03*
X0096317Y0092121D03*
X0126224Y0055519D03*
X0126671Y0054179D03*
X0147650Y0076944D03*
X0149436Y0076944D03*
X0149882Y0080069D03*
X0154792Y0074266D03*
X0160149Y0072034D03*
X0159702Y0071142D03*
X0159702Y0070695D03*
X0157917Y0066678D03*
X0156132Y0065785D03*
X0153900Y0066678D03*
X0159256Y0061321D03*
X0161488Y0063553D03*
X0164613Y0070695D03*
X0169522Y0071142D03*
X0169522Y0072034D03*
X0162381Y0075159D03*
X0163273Y0055519D03*
X0160595Y0055519D03*
X0135152Y0026058D03*
X0132027Y0017577D03*
X0130688Y0010435D03*
X0018202Y0058643D03*
X0034718Y0148364D03*
D37*
X0049225Y0118457D03*
X0050564Y0114440D03*
X0050564Y0112208D03*
X0017533Y0081855D03*
X0011284Y0084086D03*
X0026014Y0060875D03*
X0063509Y0072481D03*
X0071544Y0011774D03*
X0073776Y0010881D03*
X0141178Y0023380D03*
X0144749Y0130063D03*
D38*
X0132920Y0130956D03*
X0128010Y0136312D03*
X0124439Y0139437D03*
X0120421Y0136312D03*
X0123546Y0134080D03*
X0117744Y0121582D03*
X0110155Y0115332D03*
X0110601Y0109083D03*
X0114619Y0109083D03*
X0107031Y0105959D03*
X0103459Y0105959D03*
X0103459Y0105066D03*
X0099888Y0105066D03*
X0092300Y0105066D03*
X0091854Y0103727D03*
X0083819Y0093460D03*
X0070428Y0093460D03*
X0067749Y0091228D03*
X0068642Y0090336D03*
X0066410Y0092567D03*
X0061500Y0093460D03*
X0060608Y0090336D03*
X0055251Y0091228D03*
X0055697Y0098817D03*
X0048556Y0105066D03*
X0043199Y0101941D03*
X0040521Y0100602D03*
X0039628Y0101941D03*
X0036503Y0105959D03*
X0035611Y0109083D03*
X0042753Y0111315D03*
X0045877Y0117564D03*
X0043646Y0120689D03*
X0042753Y0122921D03*
X0039182Y0117564D03*
X0024898Y0132295D03*
X0018202Y0132295D03*
X0015970Y0139437D03*
X0009721Y0119796D03*
X0009275Y0118457D03*
X0018202Y0093460D03*
X0035611Y0094353D03*
X0041860Y0093460D03*
X0046324Y0097478D03*
X0049895Y0081855D03*
X0057037Y0073373D03*
X0055697Y0070249D03*
X0058376Y0068463D03*
X0054359Y0067124D03*
X0061947Y0059090D03*
X0063286Y0063107D03*
X0071767Y0059982D03*
X0091854Y0059982D03*
X0094978Y0059982D03*
X0098549Y0067124D03*
X0102567Y0077837D03*
X0099442Y0081855D03*
X0117297Y0075605D03*
X0118190Y0074713D03*
X0118636Y0073373D03*
X0122207Y0073373D03*
X0122653Y0067124D03*
X0136491Y0084979D03*
X0148543Y0078730D03*
X0156578Y0081855D03*
X0166398Y0074713D03*
X0157024Y0070249D03*
X0167737Y0062214D03*
X0173094Y0059982D03*
X0187377Y0064000D03*
X0190502Y0072481D03*
X0191395Y0075605D03*
X0191841Y0077837D03*
X0193627Y0087211D03*
X0194073Y0089443D03*
X0194073Y0090336D03*
X0194520Y0092567D03*
X0180236Y0075605D03*
X0159256Y0103727D03*
X0136937Y0102834D03*
X0136491Y0118457D03*
X0121761Y0095692D03*
X0094532Y0115332D03*
X0087836Y0119796D03*
X0082034Y0126045D03*
X0078909Y0126045D03*
X0076677Y0133187D03*
X0073106Y0133187D03*
X0072660Y0134080D03*
X0078016Y0138544D03*
X0076677Y0145686D03*
X0081587Y0147025D03*
X0088729Y0142561D03*
X0065071Y0139437D03*
X0059715Y0141668D03*
X0045431Y0168897D03*
X0054805Y0182288D03*
X0064625Y0180503D03*
X0067303Y0183628D03*
X0065964Y0187645D03*
X0079355Y0188538D03*
X0089175Y0189877D03*
X0088729Y0193001D03*
X0088729Y0193894D03*
X0093639Y0191662D03*
X0102567Y0190769D03*
X0102567Y0186752D03*
X0107031Y0186752D03*
X0107031Y0187645D03*
X0115512Y0185413D03*
X0115958Y0188538D03*
X0094086Y0182288D03*
X0135152Y0145686D03*
X0173540Y0139437D03*
X0191841Y0121582D03*
X0192288Y0120689D03*
X0192288Y0119796D03*
X0192734Y0118457D03*
X0187824Y0118457D03*
X0187377Y0120689D03*
X0181575Y0118457D03*
X0181128Y0119796D03*
X0181128Y0120689D03*
X0177111Y0045252D03*
X0150775Y0020255D03*
X0136045Y0021148D03*
X0119529Y0018023D03*
X0111940Y0010881D03*
X0082480Y0017130D03*
X0082480Y0018023D03*
X0082926Y0020255D03*
X0072213Y0023380D03*
X0065071Y0026504D03*
X0057483Y0030522D03*
X0050788Y0034985D03*
X0035164Y0065339D03*
X0040075Y0071588D03*
X0020881Y0065339D03*
X0014631Y0064000D03*
X0014185Y0065339D03*
X0012846Y0068463D03*
X0015970Y0060875D03*
X0075338Y0114440D03*
X0080694Y0115332D03*
D39*
X0061054Y0123367D03*
X0049002Y0118011D03*
X0044985Y0123367D03*
X0036504Y0113101D03*
X0015524Y0131402D03*
X0030254Y0146579D03*
X0055698Y0146132D03*
X0092746Y0144347D03*
X0101228Y0112654D03*
X0098549Y0096138D03*
X0077570Y0072034D03*
X0130242Y0098370D03*
X0130688Y0119350D03*
X0180235Y0068910D03*
X0184253Y0081408D03*
X0178004Y0055072D03*
X0170862Y0051055D03*
X0147204Y0064446D03*
X0184699Y0116225D03*
X0109262Y0183181D03*
X0113726Y0192109D03*
X0017756Y0081408D03*
X0072213Y0011328D03*
D40*
X0069758Y0016238D03*
X0065741Y0017577D03*
X0065295Y0016684D03*
X0065295Y0016238D03*
X0061277Y0018470D03*
X0067526Y0021594D03*
X0071990Y0022487D03*
X0071990Y0022933D03*
X0065295Y0026058D03*
X0082257Y0016684D03*
X0082257Y0016238D03*
X0111717Y0011328D03*
X0119752Y0016238D03*
X0119752Y0016684D03*
X0119752Y0017577D03*
X0120198Y0013559D03*
X0124216Y0016238D03*
X0128233Y0016684D03*
X0136714Y0018470D03*
X0142963Y0016684D03*
X0145195Y0030968D03*
X0161711Y0037664D03*
X0161711Y0043913D03*
X0166175Y0049716D03*
X0168407Y0052394D03*
X0174209Y0052394D03*
X0174656Y0053287D03*
X0168407Y0063553D03*
X0176441Y0065785D03*
X0187154Y0063553D03*
X0180459Y0076944D03*
X0180905Y0078284D03*
X0193404Y0085426D03*
X0163943Y0082747D03*
X0142963Y0098370D03*
X0128233Y0091675D03*
X0121984Y0096138D03*
X0113949Y0110422D03*
X0113949Y0110869D03*
X0107254Y0098370D03*
X0094755Y0114886D03*
X0086721Y0109530D03*
X0084489Y0112654D03*
X0082257Y0125599D03*
X0073776Y0131848D03*
X0061277Y0138990D03*
X0059492Y0142115D03*
X0042530Y0158631D03*
X0059492Y0173361D03*
X0080471Y0184967D03*
X0080025Y0185859D03*
X0080025Y0186306D03*
X0107254Y0188984D03*
X0107254Y0189430D03*
X0107700Y0192109D03*
X0115735Y0187199D03*
X0115735Y0186306D03*
X0115735Y0185859D03*
X0119752Y0184074D03*
X0120198Y0185859D03*
X0120198Y0186306D03*
X0124216Y0185859D03*
X0121984Y0192109D03*
X0138946Y0182735D03*
X0159926Y0172468D03*
X0134482Y0145239D03*
X0128233Y0136758D03*
X0124216Y0139883D03*
X0142963Y0121135D03*
X0145195Y0113993D03*
X0178673Y0128724D03*
X0180459Y0123367D03*
X0180905Y0121135D03*
X0187154Y0122028D03*
X0098772Y0126492D03*
X0065295Y0093907D03*
X0036280Y0107298D03*
X0034048Y0110869D03*
X0038512Y0123367D03*
X0038066Y0124260D03*
X0026014Y0134973D03*
X0023782Y0129616D03*
X0019318Y0134973D03*
X0019765Y0135866D03*
X0015301Y0137651D03*
X0011284Y0126492D03*
X0010837Y0125153D03*
X0021550Y0149703D03*
X0023782Y0070695D03*
X0019318Y0068910D03*
X0019765Y0068017D03*
X0019765Y0067571D03*
X0025567Y0065785D03*
X0017533Y0057304D03*
X0025567Y0056411D03*
X0026014Y0055519D03*
X0013069Y0068017D03*
X0073776Y0058643D03*
X0082257Y0055519D03*
X0084489Y0052394D03*
X0090738Y0061321D03*
D41*
X0092300Y0070695D03*
X0084712Y0068910D03*
X0077570Y0069802D03*
X0073999Y0064892D03*
X0073552Y0058197D03*
X0076231Y0054179D03*
X0072213Y0076944D03*
X0072660Y0077391D03*
X0077570Y0079176D03*
X0071767Y0091675D03*
X0071321Y0092121D03*
X0062839Y0091675D03*
X0061500Y0097924D03*
X0061054Y0098370D03*
X0052126Y0083640D03*
X0046770Y0080515D03*
X0041860Y0087657D03*
X0011953Y0073820D03*
X0033379Y0051948D03*
X0031147Y0050162D03*
X0035611Y0048823D03*
X0031147Y0044806D03*
X0030254Y0043913D03*
X0036057Y0037664D03*
X0038289Y0039449D03*
X0039182Y0040342D03*
X0039628Y0040788D03*
X0044092Y0039449D03*
X0044092Y0026951D03*
X0099442Y0082301D03*
X0106138Y0096138D03*
X0112833Y0113101D03*
X0111494Y0116225D03*
X0111048Y0118011D03*
X0132027Y0132741D03*
X0132474Y0131402D03*
X0136937Y0128724D03*
X0138723Y0127385D03*
X0143187Y0126492D03*
X0142294Y0115779D03*
X0143187Y0109530D03*
X0143187Y0108637D03*
X0136045Y0087657D03*
X0150775Y0067571D03*
X0155239Y0058643D03*
X0158363Y0051948D03*
X0168630Y0051948D03*
X0162827Y0041681D03*
X0164613Y0040342D03*
X0165505Y0039449D03*
X0166398Y0038556D03*
X0169076Y0036324D03*
X0163720Y0030968D03*
X0160149Y0027843D03*
X0157917Y0034093D03*
X0161488Y0037217D03*
X0157024Y0039449D03*
X0153453Y0036324D03*
X0131135Y0011328D03*
X0121314Y0061321D03*
X0080695Y0113101D03*
X0078016Y0122474D03*
X0078016Y0123367D03*
X0078016Y0124260D03*
X0074892Y0129616D03*
X0060608Y0129616D03*
X0048109Y0125153D03*
X0042306Y0124260D03*
X0033379Y0151489D03*
X0032040Y0152381D03*
X0031593Y0152828D03*
X0030701Y0153721D03*
X0042306Y0159077D03*
X0049448Y0164880D03*
X0051234Y0166219D03*
X0052573Y0167112D03*
X0048109Y0171575D03*
X0051234Y0173807D03*
X0047663Y0176932D03*
X0045877Y0175593D03*
X0044538Y0174700D03*
X0043199Y0173807D03*
X0042753Y0173361D03*
X0064179Y0173807D03*
X0065518Y0187199D03*
X0075784Y0144347D03*
X0119529Y0151489D03*
X0120422Y0152381D03*
X0120868Y0152828D03*
X0121761Y0153721D03*
X0122654Y0154613D03*
X0123546Y0155506D03*
X0124439Y0155952D03*
X0132474Y0142115D03*
X0149436Y0167112D03*
X0148543Y0168004D03*
X0150775Y0166219D03*
X0157471Y0161755D03*
X0157917Y0162202D03*
X0159702Y0163987D03*
X0160595Y0164880D03*
X0161041Y0165326D03*
X0161934Y0166219D03*
X0164613Y0168451D03*
X0159256Y0173361D03*
X0157471Y0174700D03*
X0156132Y0175593D03*
X0172647Y0157738D03*
X0173540Y0158631D03*
X0170415Y0155952D03*
X0168630Y0154613D03*
X0166398Y0152828D03*
X0165952Y0152381D03*
X0184253Y0141222D03*
X0122207Y0190323D03*
X0186931Y0065785D03*
X0181575Y0053287D03*
D42*
X0185146Y0067124D03*
X0181575Y0073373D03*
X0183807Y0081855D03*
X0145418Y0073373D03*
X0127564Y0087211D03*
X0131581Y0098817D03*
X0128903Y0101941D03*
X0145418Y0099709D03*
X0101674Y0112208D03*
X0080694Y0109083D03*
X0076677Y0118457D03*
X0077570Y0119796D03*
X0078462Y0121582D03*
X0059715Y0130063D03*
X0060608Y0135419D03*
X0055697Y0147025D03*
X0036503Y0163541D03*
X0065964Y0175146D03*
X0068196Y0176039D03*
X0066857Y0182288D03*
X0021327Y0127831D03*
X0041414Y0105066D03*
X0052127Y0121582D03*
X0020881Y0073373D03*
X0044984Y0028736D03*
X0082926Y0059090D03*
X0102567Y0078730D03*
X0155239Y0032754D03*
X0131581Y0011774D03*
X0141847Y0178271D03*
X0143633Y0179164D03*
X0146311Y0180503D03*
D43*
X0164612Y0167558D03*
X0145418Y0100156D03*
X0117297Y0066231D03*
X0146758Y0025612D03*
X0070428Y0012220D03*
X0044984Y0029183D03*
X0095871Y0109976D03*
X0080694Y0126938D03*
X0034718Y0126938D03*
X0060608Y0184520D03*
D44*
X0059492Y0126938D03*
X0073776Y0083194D03*
X0141178Y0093014D03*
X0098772Y0012220D03*
D45*
X0111717Y0012220D03*
X0124216Y0015345D03*
X0086721Y0055965D03*
X0057260Y0072927D03*
X0025567Y0055965D03*
X0023782Y0059536D03*
X0019318Y0069356D03*
X0036280Y0106851D03*
X0011284Y0126938D03*
X0009052Y0117118D03*
X0036280Y0160863D03*
X0059045Y0174254D03*
X0080471Y0184520D03*
X0107254Y0188091D03*
X0119752Y0184520D03*
X0142963Y0171129D03*
X0172424Y0147471D03*
X0186708Y0123814D03*
X0163943Y0083194D03*
X0176441Y0066231D03*
X0186708Y0062660D03*
X0134482Y0096585D03*
X0119752Y0093014D03*
X0105468Y0109976D03*
X0128233Y0137205D03*
X0080471Y0143900D03*
X0074222Y0130509D03*
X0063509Y0133634D03*
X0057260Y0029183D03*
X0053243Y0022041D03*
X0067526Y0022041D03*
X0069758Y0015345D03*
D46*
X0132250Y0012220D03*
X0061277Y0123814D03*
D47*
X0092970Y0138544D03*
X0141178Y0092567D03*
X0123323Y0078730D03*
X0141178Y0071588D03*
X0098326Y0073373D03*
X0098326Y0018023D03*
X0098326Y0012667D03*
X0028692Y0147025D03*
X0097880Y0188538D03*
X0097880Y0189877D03*
X0097880Y0193894D03*
D48*
X0110824Y0193894D03*
X0112164Y0181396D03*
X0073776Y0142561D03*
X0100558Y0109083D03*
X0078686Y0073373D03*
X0056813Y0024272D03*
X0061277Y0023380D03*
X0023782Y0051501D03*
X0017979Y0063107D03*
X0132697Y0012667D03*
X0146534Y0064000D03*
X0184922Y0116672D03*
D49*
X0165282Y0093907D03*
X0160818Y0096138D03*
X0159033Y0090782D03*
X0164836Y0087657D03*
X0161265Y0078284D03*
X0160818Y0077391D03*
X0160818Y0076944D03*
X0162604Y0076052D03*
X0163050Y0076944D03*
X0164836Y0071142D03*
X0162604Y0067571D03*
X0161265Y0064892D03*
X0165282Y0058643D03*
X0168853Y0067571D03*
X0152337Y0072034D03*
X0131358Y0091675D03*
X0131358Y0095246D03*
X0135821Y0098370D03*
X0139839Y0102388D03*
X0138053Y0104173D03*
X0135821Y0105512D03*
X0135821Y0106405D03*
X0135821Y0107298D03*
X0135821Y0107744D03*
X0135375Y0109530D03*
X0135375Y0110422D03*
X0138053Y0108637D03*
X0138053Y0107744D03*
X0138053Y0107298D03*
X0139839Y0110422D03*
X0148320Y0113993D03*
X0147873Y0099263D03*
X0129126Y0115779D03*
X0125109Y0126492D03*
X0126894Y0129616D03*
X0131358Y0129616D03*
X0117074Y0135866D03*
X0110825Y0146579D03*
X0099665Y0131848D03*
X0102344Y0126492D03*
X0106807Y0128277D03*
X0106807Y0128724D03*
X0093416Y0127385D03*
X0087613Y0126492D03*
X0087613Y0122474D03*
X0089845Y0118011D03*
X0092077Y0115779D03*
X0087167Y0116225D03*
X0085828Y0114886D03*
X0087613Y0108637D03*
X0089845Y0105512D03*
X0089399Y0104620D03*
X0092077Y0101049D03*
X0096094Y0102388D03*
X0099665Y0102388D03*
X0108146Y0109530D03*
X0114396Y0104173D03*
X0117074Y0104173D03*
X0117074Y0101495D03*
X0118859Y0101049D03*
X0119306Y0101495D03*
X0113057Y0101049D03*
X0112610Y0099263D03*
X0110825Y0092121D03*
X0110825Y0091675D03*
X0110825Y0090782D03*
X0108146Y0088550D03*
X0110825Y0085872D03*
X0116627Y0088997D03*
X0125555Y0098370D03*
X0102344Y0088550D03*
X0102344Y0086765D03*
X0099665Y0086765D03*
X0099665Y0087657D03*
X0099665Y0088550D03*
X0099665Y0085872D03*
X0096094Y0088550D03*
X0096094Y0088997D03*
X0096094Y0090782D03*
X0096094Y0091675D03*
X0092077Y0090782D03*
X0091631Y0091675D03*
X0091631Y0092121D03*
X0093416Y0088550D03*
X0093862Y0087657D03*
X0093416Y0084533D03*
X0093862Y0083640D03*
X0085828Y0080069D03*
X0087613Y0076052D03*
X0080918Y0068910D03*
X0080918Y0068017D03*
X0079132Y0068017D03*
X0077347Y0064446D03*
X0070651Y0069802D03*
X0073329Y0074266D03*
X0064402Y0082747D03*
X0064402Y0084533D03*
X0062616Y0081408D03*
X0056367Y0080069D03*
X0055921Y0079176D03*
X0054135Y0078284D03*
X0051903Y0076052D03*
X0050118Y0079176D03*
X0049671Y0086765D03*
X0051903Y0088550D03*
X0054135Y0086765D03*
X0049671Y0090782D03*
X0045654Y0095246D03*
X0043869Y0094799D03*
X0043422Y0095246D03*
X0043869Y0097031D03*
X0037173Y0083640D03*
X0041637Y0074266D03*
X0050118Y0069802D03*
X0052350Y0068017D03*
X0051903Y0066678D03*
X0053689Y0061768D03*
X0058599Y0070695D03*
X0058599Y0075159D03*
X0066187Y0063553D03*
X0043422Y0063553D03*
X0066634Y0096138D03*
X0068866Y0096138D03*
X0064848Y0104620D03*
X0056367Y0111762D03*
X0043869Y0118903D03*
X0041637Y0118903D03*
X0041637Y0118011D03*
X0064402Y0128277D03*
X0064848Y0131848D03*
X0072883Y0123367D03*
X0072883Y0122474D03*
X0083149Y0108637D03*
X0089399Y0097031D03*
X0077347Y0085426D03*
X0092077Y0064892D03*
X0093862Y0061768D03*
X0096094Y0058643D03*
X0101897Y0060429D03*
X0089845Y0056411D03*
X0089845Y0052394D03*
X0064848Y0026951D03*
X0064848Y0013113D03*
X0125555Y0056411D03*
X0177334Y0044806D03*
X0099665Y0114886D03*
X0097880Y0114886D03*
X0085828Y0138097D03*
X0083596Y0137651D03*
X0073329Y0138990D03*
X0059938Y0170683D03*
X0173763Y0159970D03*
D50*
X0175325Y0144347D03*
X0142294Y0096138D03*
X0123100Y0074266D03*
X0095871Y0076944D03*
X0085158Y0057304D03*
X0074892Y0055519D03*
X0073106Y0084533D03*
X0100335Y0108637D03*
X0108370Y0114886D03*
X0112387Y0112654D03*
X0124885Y0140329D03*
X0060608Y0134973D03*
X0057929Y0143454D03*
X0045877Y0170236D03*
X0060161Y0184074D03*
X0049895Y0116225D03*
X0112833Y0013113D03*
X0173094Y0048823D03*
X0175772Y0047037D03*
D51*
X0186262Y0085426D03*
X0133590Y0113993D03*
X0133590Y0124260D03*
X0056367Y0104620D03*
X0133143Y0013113D03*
D52*
X0141624Y0023826D03*
X0114396Y0013559D03*
X0145642Y0063553D03*
X0142963Y0072034D03*
X0122430Y0077391D03*
X0129126Y0097924D03*
X0110824Y0138990D03*
X0116181Y0149257D03*
X0076008Y0190323D03*
X0056367Y0145239D03*
X0055921Y0104173D03*
X0057706Y0088550D03*
X0056367Y0063553D03*
X0013069Y0122028D03*
X0187154Y0071142D03*
D53*
X0173540Y0051501D03*
X0165505Y0048377D03*
X0164612Y0047484D03*
X0162827Y0045252D03*
X0159256Y0053733D03*
X0156131Y0059982D03*
X0173540Y0041235D03*
X0164612Y0033646D03*
X0152560Y0034985D03*
X0145865Y0029629D03*
X0146311Y0028736D03*
X0142294Y0018023D03*
X0129349Y0014006D03*
X0127117Y0021148D03*
X0122653Y0063107D03*
X0122653Y0072481D03*
X0115065Y0072481D03*
X0083819Y0077837D03*
X0070874Y0075605D03*
X0066410Y0080962D03*
X0062840Y0087211D03*
X0064625Y0094353D03*
X0052127Y0084086D03*
X0041414Y0072481D03*
X0018649Y0071588D03*
X0039182Y0045252D03*
X0040967Y0042127D03*
X0044092Y0033646D03*
X0049448Y0032754D03*
X0056144Y0027397D03*
X0055697Y0026504D03*
X0053912Y0023380D03*
X0060608Y0017130D03*
X0064625Y0014899D03*
X0064179Y0014006D03*
X0066857Y0020255D03*
X0068196Y0023380D03*
X0031147Y0038110D03*
X0028469Y0041235D03*
X0028469Y0042127D03*
X0083373Y0094353D03*
X0074892Y0129170D03*
X0076677Y0134080D03*
X0087836Y0139437D03*
X0062393Y0133187D03*
X0041414Y0126045D03*
X0039628Y0121582D03*
X0041860Y0108191D03*
X0027130Y0138544D03*
X0037396Y0158184D03*
X0043646Y0172022D03*
X0056590Y0178271D03*
X0056144Y0179164D03*
X0057929Y0176039D03*
X0058376Y0175146D03*
X0060161Y0172022D03*
X0124885Y0183628D03*
X0137830Y0180503D03*
X0138277Y0181396D03*
X0149882Y0172915D03*
X0156131Y0166665D03*
X0164612Y0168897D03*
X0132027Y0136312D03*
X0132027Y0135419D03*
X0128903Y0138544D03*
X0141847Y0116672D03*
X0143633Y0111315D03*
X0179789Y0130956D03*
D54*
X0184699Y0133187D03*
X0184253Y0134080D03*
X0179789Y0135419D03*
X0123546Y0077837D03*
X0142294Y0062214D03*
X0186485Y0071588D03*
X0119529Y0117564D03*
X0016863Y0120689D03*
X0097657Y0014006D03*
D55*
X0115958Y0014006D03*
X0130242Y0084086D03*
X0111941Y0193001D03*
D56*
X0122430Y0186752D03*
X0163050Y0156399D03*
X0181351Y0139437D03*
X0143856Y0105959D03*
X0119306Y0112208D03*
X0108146Y0136312D03*
X0130911Y0139437D03*
X0082257Y0144793D03*
X0072436Y0141668D03*
X0060384Y0136312D03*
X0059492Y0127831D03*
X0051010Y0120689D03*
X0050564Y0119796D03*
X0050118Y0115332D03*
X0081810Y0111315D03*
X0079579Y0080962D03*
X0074222Y0067124D03*
X0071990Y0062214D03*
X0081364Y0060875D03*
X0086720Y0065339D03*
X0085381Y0067124D03*
X0113057Y0073373D03*
X0117074Y0067124D03*
X0120198Y0068463D03*
X0123770Y0070249D03*
X0148320Y0065339D03*
X0149659Y0054626D03*
X0171085Y0050608D03*
X0179566Y0059982D03*
X0177781Y0060875D03*
X0133143Y0024272D03*
X0136714Y0014006D03*
X0045208Y0029629D03*
X0034049Y0036771D03*
X0023336Y0050608D03*
X0017086Y0062214D03*
X0037173Y0162648D03*
X0051010Y0172915D03*
D57*
X0092523Y0138990D03*
X0101004Y0094799D03*
X0115735Y0014452D03*
D58*
X0137384Y0014452D03*
X0171754Y0049716D03*
X0174433Y0047930D03*
X0176665Y0046591D03*
X0180682Y0054179D03*
X0173986Y0058643D03*
X0153900Y0057304D03*
X0149882Y0066678D03*
X0121761Y0061768D03*
X0113280Y0080515D03*
X0103906Y0079176D03*
X0088729Y0063553D03*
X0082480Y0054179D03*
X0073552Y0065785D03*
X0082926Y0076052D03*
X0083819Y0077391D03*
X0079802Y0081408D03*
X0078463Y0080069D03*
X0076677Y0115779D03*
X0076677Y0116225D03*
X0079802Y0128277D03*
X0061054Y0136758D03*
X0051234Y0121135D03*
X0019541Y0119350D03*
X0011060Y0086765D03*
X0021327Y0073820D03*
X0016863Y0061768D03*
X0044538Y0027843D03*
X0058822Y0023826D03*
X0132474Y0099263D03*
X0128903Y0101049D03*
X0129795Y0104173D03*
X0129795Y0104620D03*
X0129795Y0110422D03*
X0121761Y0110869D03*
X0136491Y0116225D03*
X0145419Y0101049D03*
X0132027Y0131848D03*
X0132027Y0141222D03*
X0107923Y0135866D03*
X0153900Y0176932D03*
X0164613Y0168004D03*
X0187378Y0132741D03*
X0122207Y0188984D03*
X0051234Y0173361D03*
D59*
X0084935Y0145686D03*
X0063956Y0118457D03*
X0128680Y0084979D03*
X0115735Y0014899D03*
D60*
X0138053Y0014899D03*
X0159033Y0034985D03*
X0164836Y0031861D03*
X0122877Y0064000D03*
X0135821Y0087211D03*
X0117074Y0115332D03*
X0104129Y0124706D03*
X0089845Y0147025D03*
X0131804Y0134080D03*
X0158586Y0159523D03*
X0163050Y0155060D03*
X0169299Y0161309D03*
X0158586Y0169790D03*
X0179566Y0148810D03*
X0177334Y0145686D03*
X0087613Y0091228D03*
X0081364Y0084086D03*
X0072883Y0089443D03*
X0071097Y0092567D03*
X0066634Y0088104D03*
X0062616Y0059982D03*
X0076900Y0053733D03*
X0050118Y0033646D03*
X0043869Y0026504D03*
X0037173Y0031861D03*
X0029138Y0043020D03*
X0062616Y0021148D03*
X0047886Y0124706D03*
X0022443Y0144793D03*
D61*
X0027353Y0137205D03*
X0043869Y0120243D03*
X0042083Y0109976D03*
X0034941Y0109976D03*
X0044315Y0100156D03*
X0057706Y0103280D03*
X0068866Y0089889D03*
X0055474Y0079623D03*
X0053689Y0072927D03*
X0052350Y0069356D03*
X0053689Y0062660D03*
X0067973Y0069356D03*
X0073329Y0069356D03*
X0097433Y0083194D03*
X0101897Y0076498D03*
X0118859Y0072927D03*
X0121091Y0059536D03*
X0134483Y0025612D03*
X0168407Y0052840D03*
X0169746Y0069356D03*
X0167960Y0079623D03*
X0159033Y0089889D03*
X0165729Y0093014D03*
X0144749Y0113547D03*
X0141624Y0113547D03*
X0137160Y0103280D03*
X0116627Y0120243D03*
X0107254Y0120243D03*
X0098326Y0126938D03*
X0115288Y0140776D03*
X0117520Y0143900D03*
X0122877Y0143900D03*
X0101451Y0143900D03*
X0072883Y0123814D03*
X0074668Y0113547D03*
X0087167Y0106851D03*
X0099665Y0103280D03*
X0114842Y0106851D03*
X0156355Y0069356D03*
X0070651Y0140776D03*
X0057706Y0147471D03*
X0033602Y0052840D03*
X0059938Y0015345D03*
D62*
X0042307Y0035878D03*
X0020881Y0072927D03*
X0015524Y0130509D03*
X0085605Y0066231D03*
X0098103Y0096585D03*
X0118190Y0015345D03*
X0179789Y0069356D03*
D63*
X0166398Y0076498D03*
X0163720Y0079623D03*
X0161488Y0079623D03*
X0153453Y0072927D03*
X0149436Y0076498D03*
X0156132Y0066231D03*
X0163720Y0055965D03*
X0133367Y0093014D03*
X0122654Y0103280D03*
X0119975Y0100156D03*
X0118190Y0100156D03*
X0115958Y0100156D03*
X0111048Y0103280D03*
X0108816Y0093014D03*
X0105691Y0089889D03*
X0111048Y0086318D03*
X0111048Y0083194D03*
X0110155Y0072927D03*
X0123546Y0059536D03*
X0095425Y0066231D03*
X0093193Y0062660D03*
X0091408Y0052840D03*
X0088729Y0042574D03*
X0068196Y0025612D03*
X0050787Y0035878D03*
X0067303Y0059536D03*
X0067750Y0062660D03*
X0065964Y0062660D03*
X0069535Y0066231D03*
X0072660Y0072927D03*
X0063732Y0083194D03*
X0059715Y0079623D03*
X0060608Y0076498D03*
X0058822Y0083194D03*
X0054358Y0086318D03*
X0050341Y0086318D03*
X0044985Y0086318D03*
X0044538Y0093014D03*
X0040074Y0096585D03*
X0037843Y0103280D03*
X0046324Y0103280D03*
X0049002Y0096585D03*
X0050341Y0096585D03*
X0057930Y0100156D03*
X0068196Y0096585D03*
X0062839Y0089889D03*
X0074445Y0086318D03*
X0086497Y0089889D03*
X0088283Y0089889D03*
X0088283Y0093014D03*
X0092300Y0100156D03*
X0086497Y0103280D03*
X0090961Y0109976D03*
X0088729Y0117118D03*
X0090068Y0120243D03*
X0095425Y0123814D03*
X0097657Y0117118D03*
X0101228Y0117118D03*
X0106138Y0117118D03*
X0105691Y0130509D03*
X0102567Y0133634D03*
X0096317Y0133634D03*
X0109709Y0133634D03*
X0121314Y0123814D03*
X0123993Y0137205D03*
X0113726Y0147471D03*
X0140508Y0120243D03*
X0139616Y0113547D03*
X0167737Y0147471D03*
X0178450Y0126938D03*
X0092746Y0086318D03*
X0086051Y0072927D03*
X0077570Y0103280D03*
X0073999Y0106851D03*
X0082926Y0117118D03*
X0071321Y0120243D03*
X0065964Y0123814D03*
X0067303Y0130509D03*
X0067303Y0133634D03*
X0074445Y0126938D03*
X0041860Y0113547D03*
X0037843Y0086318D03*
X0042306Y0076498D03*
X0048109Y0072927D03*
X0048556Y0069356D03*
X0052573Y0066231D03*
X0051234Y0076498D03*
X0123546Y0022041D03*
X0142740Y0015345D03*
X0089176Y0180949D03*
D64*
X0107254Y0183628D03*
X0121984Y0190769D03*
X0126894Y0179164D03*
X0136714Y0178271D03*
X0157694Y0160416D03*
X0162604Y0166665D03*
X0166621Y0166665D03*
X0167514Y0165773D03*
X0169746Y0163541D03*
X0168407Y0160416D03*
X0167514Y0159523D03*
X0166175Y0158184D03*
X0165728Y0151935D03*
X0178673Y0151935D03*
X0178227Y0147025D03*
X0159479Y0172915D03*
X0130019Y0127831D03*
X0142963Y0121582D03*
X0134482Y0100602D03*
X0106807Y0097478D03*
X0095202Y0121582D03*
X0084489Y0142561D03*
X0076454Y0144793D03*
X0054582Y0168897D03*
X0042976Y0172915D03*
X0059492Y0183628D03*
X0027799Y0158184D03*
X0026460Y0139437D03*
X0046993Y0122921D03*
X0057706Y0103727D03*
X0055028Y0095692D03*
X0057260Y0093460D03*
X0063509Y0095692D03*
X0067526Y0087211D03*
X0084042Y0071588D03*
X0080471Y0063107D03*
X0090291Y0062214D03*
X0098326Y0068463D03*
X0121537Y0060875D03*
X0140285Y0060875D03*
X0151445Y0068463D03*
X0155462Y0059090D03*
X0157247Y0050608D03*
X0155015Y0048377D03*
X0153676Y0047484D03*
X0161711Y0043020D03*
X0163496Y0046145D03*
X0172424Y0039895D03*
X0163496Y0034985D03*
X0162158Y0029629D03*
X0161265Y0028736D03*
X0157247Y0033646D03*
X0153230Y0033646D03*
X0155462Y0038110D03*
X0147427Y0026504D03*
X0119306Y0015791D03*
X0048779Y0031861D03*
X0044315Y0039895D03*
X0039851Y0034985D03*
X0038066Y0032754D03*
X0029585Y0039895D03*
X0038512Y0046145D03*
X0044315Y0065339D03*
X0046100Y0080962D03*
X0042083Y0087211D03*
X0067973Y0105066D03*
X0109039Y0142561D03*
D65*
X0121984Y0138544D03*
X0121984Y0124706D03*
X0124216Y0115332D03*
X0111717Y0118457D03*
X0090738Y0124706D03*
X0071990Y0136312D03*
X0078239Y0105959D03*
X0067526Y0103727D03*
X0042530Y0092567D03*
X0051011Y0074713D03*
X0051011Y0065339D03*
X0067526Y0065339D03*
X0078239Y0065339D03*
X0071990Y0053733D03*
X0094755Y0060875D03*
X0101004Y0064000D03*
X0132697Y0018023D03*
X0142963Y0015791D03*
X0159926Y0054626D03*
X0157694Y0071588D03*
X0159926Y0074713D03*
X0166175Y0092567D03*
X0042530Y0116672D03*
X0042530Y0158184D03*
D66*
X0037843Y0156845D03*
X0028022Y0145239D03*
X0027576Y0144347D03*
X0025791Y0140329D03*
X0026237Y0139883D03*
X0021327Y0146132D03*
X0047217Y0124260D03*
X0046770Y0122474D03*
X0036504Y0107744D03*
X0046324Y0097924D03*
X0042306Y0086765D03*
X0050787Y0082747D03*
X0063732Y0095246D03*
X0065964Y0088997D03*
X0080248Y0084533D03*
X0082034Y0083640D03*
X0086944Y0092121D03*
X0090961Y0108637D03*
X0094978Y0122028D03*
X0094532Y0126492D03*
X0099442Y0124260D03*
X0107477Y0134973D03*
X0121761Y0146579D03*
X0122207Y0146132D03*
X0128456Y0137651D03*
X0124439Y0135866D03*
X0141401Y0128724D03*
X0117743Y0113101D03*
X0107030Y0097924D03*
X0124439Y0092121D03*
X0124439Y0091675D03*
X0123993Y0090782D03*
X0128010Y0096138D03*
X0134259Y0096138D03*
X0135152Y0101049D03*
X0151668Y0068910D03*
X0165952Y0048823D03*
X0164166Y0047037D03*
X0163720Y0046591D03*
X0162381Y0044806D03*
X0161488Y0043466D03*
X0151668Y0046591D03*
X0153007Y0034093D03*
X0146758Y0027843D03*
X0147204Y0026951D03*
X0145419Y0030075D03*
X0148989Y0023826D03*
X0149436Y0022933D03*
X0141401Y0019809D03*
X0140955Y0020701D03*
X0140508Y0021594D03*
X0134259Y0025165D03*
X0132920Y0018470D03*
X0128456Y0016238D03*
X0172201Y0039449D03*
X0172647Y0040342D03*
X0173986Y0041681D03*
X0178896Y0070695D03*
X0178896Y0129616D03*
X0180235Y0131848D03*
X0180682Y0132741D03*
X0173986Y0141222D03*
X0169969Y0162202D03*
X0169969Y0163094D03*
X0159702Y0171575D03*
X0157471Y0168451D03*
X0148989Y0171575D03*
X0147650Y0169344D03*
X0136937Y0178717D03*
X0139169Y0183181D03*
X0147650Y0181842D03*
X0124439Y0184967D03*
X0123993Y0186306D03*
X0119975Y0184967D03*
X0084712Y0142115D03*
X0079802Y0140329D03*
X0073999Y0131402D03*
X0078463Y0125599D03*
X0061500Y0138097D03*
X0063732Y0142115D03*
X0054805Y0169344D03*
X0053466Y0171575D03*
X0058822Y0174700D03*
X0059269Y0173807D03*
X0057483Y0176932D03*
X0069535Y0179610D03*
X0069982Y0178717D03*
X0021773Y0074266D03*
X0026237Y0055072D03*
X0031593Y0055072D03*
X0037843Y0047037D03*
X0038289Y0046591D03*
X0040521Y0043913D03*
X0031593Y0037664D03*
X0029808Y0039449D03*
X0019541Y0054179D03*
X0050787Y0034539D03*
X0053466Y0022487D03*
X0053019Y0021594D03*
X0052573Y0020701D03*
X0090515Y0061768D03*
X0093193Y0069802D03*
X0098549Y0067571D03*
D67*
X0101004Y0062660D03*
X0086721Y0049269D03*
X0088059Y0045698D03*
X0070205Y0069356D03*
X0076454Y0076498D03*
X0072437Y0086318D03*
X0069312Y0100156D03*
X0067526Y0103280D03*
X0051011Y0103280D03*
X0044315Y0096585D03*
X0050564Y0089889D03*
X0052796Y0093014D03*
X0054582Y0083194D03*
X0056813Y0076498D03*
X0050564Y0072927D03*
X0050564Y0069356D03*
X0035834Y0086318D03*
X0065741Y0130509D03*
X0088506Y0103280D03*
X0088506Y0100156D03*
X0091184Y0093014D03*
X0092523Y0089889D03*
X0107254Y0103280D03*
X0113949Y0103280D03*
X0118413Y0103280D03*
X0111717Y0096585D03*
X0099219Y0106851D03*
X0095202Y0117118D03*
X0107700Y0130509D03*
X0107254Y0133634D03*
X0111717Y0133634D03*
X0117967Y0140776D03*
X0111717Y0147471D03*
X0136714Y0147471D03*
X0138500Y0130509D03*
X0122430Y0120243D03*
X0124662Y0113547D03*
X0111271Y0120243D03*
X0142517Y0086318D03*
X0157247Y0086318D03*
X0159926Y0103280D03*
X0161711Y0066231D03*
X0159926Y0062660D03*
X0165728Y0059536D03*
X0168407Y0066231D03*
X0126001Y0055965D03*
X0052796Y0018916D03*
X0034495Y0167558D03*
D68*
X0057037Y0177825D03*
X0065071Y0180949D03*
X0122207Y0191216D03*
X0153900Y0177825D03*
X0159702Y0171129D03*
X0178450Y0147471D03*
X0138723Y0126938D03*
X0117743Y0089889D03*
X0105245Y0079623D03*
X0084712Y0069356D03*
X0078016Y0069356D03*
X0059269Y0062660D03*
X0051234Y0083194D03*
X0053019Y0100156D03*
X0038735Y0117118D03*
X0040074Y0120243D03*
X0099442Y0123814D03*
X0168184Y0062660D03*
X0174433Y0052840D03*
X0166398Y0049269D03*
X0065071Y0025612D03*
X0061500Y0018916D03*
X0049002Y0032307D03*
X0038735Y0045698D03*
X0030254Y0039003D03*
D69*
X0035611Y0049269D03*
X0022666Y0049269D03*
X0064179Y0069356D03*
X0068642Y0086318D03*
X0072660Y0089889D03*
X0053912Y0096585D03*
X0041414Y0106851D03*
X0022220Y0126938D03*
X0023112Y0143900D03*
X0053912Y0171129D03*
X0136045Y0086318D03*
X0123100Y0066231D03*
X0122653Y0062660D03*
X0163273Y0045698D03*
X0171755Y0039003D03*
X0169076Y0035878D03*
X0165059Y0032307D03*
X0177111Y0045698D03*
X0175325Y0062660D03*
X0141847Y0018916D03*
X0095425Y0018916D03*
X0141847Y0117118D03*
X0179343Y0130509D03*
X0157024Y0167558D03*
D70*
X0123546Y0133634D03*
X0125332Y0126938D03*
X0137830Y0109976D03*
X0140062Y0103280D03*
X0118636Y0106851D03*
X0108370Y0086318D03*
X0094086Y0083194D03*
X0090068Y0089889D03*
X0083373Y0079623D03*
X0077123Y0086318D03*
X0064625Y0086318D03*
X0060608Y0089889D03*
X0050341Y0093014D03*
X0047216Y0083194D03*
X0061947Y0103280D03*
X0074445Y0109976D03*
X0077570Y0100156D03*
X0091854Y0103280D03*
X0095871Y0106851D03*
X0087836Y0126938D03*
X0098549Y0133634D03*
X0114619Y0143900D03*
X0119529Y0147471D03*
X0081587Y0147471D03*
X0070874Y0130509D03*
X0045877Y0117118D03*
X0081141Y0069356D03*
X0087836Y0059536D03*
X0090068Y0055965D03*
X0092300Y0059536D03*
X0070874Y0059536D03*
X0098103Y0018916D03*
X0119529Y0062660D03*
X0160595Y0076498D03*
X0162827Y0076498D03*
X0192734Y0117118D03*
X0060161Y0171129D03*
D71*
X0050787Y0120243D03*
X0078016Y0120243D03*
X0134706Y0018916D03*
D72*
X0134482Y0019362D03*
X0078239Y0073820D03*
X0107254Y0084533D03*
X0122430Y0076944D03*
X0077793Y0114886D03*
X0077793Y0118011D03*
X0050564Y0113993D03*
X0055474Y0146579D03*
X0038066Y0161755D03*
X0051011Y0172468D03*
X0017533Y0129616D03*
X0019318Y0076944D03*
X0023782Y0051055D03*
X0034048Y0037217D03*
X0061724Y0022933D03*
X0138500Y0128277D03*
X0153230Y0165326D03*
X0164389Y0167112D03*
X0188940Y0125153D03*
D73*
X0185369Y0142115D03*
X0142517Y0119350D03*
X0142517Y0118903D03*
X0141624Y0113993D03*
X0144303Y0113101D03*
X0134929Y0118011D03*
X0127340Y0125153D03*
X0129126Y0128724D03*
X0116627Y0142115D03*
X0117074Y0144347D03*
X0116181Y0145239D03*
X0122430Y0145239D03*
X0135375Y0146132D03*
X0109039Y0144347D03*
X0103683Y0141222D03*
X0108593Y0131848D03*
X0099665Y0125599D03*
X0091184Y0124260D03*
X0091184Y0127385D03*
X0077793Y0131848D03*
X0076454Y0134973D03*
X0077347Y0138097D03*
X0071544Y0137651D03*
X0072436Y0134527D03*
X0071097Y0129616D03*
X0071544Y0128277D03*
X0072436Y0125599D03*
X0068866Y0127385D03*
X0068866Y0128277D03*
X0066187Y0132741D03*
X0062616Y0131848D03*
X0058599Y0132741D03*
X0058153Y0131848D03*
X0065295Y0138097D03*
X0061723Y0143454D03*
X0076454Y0146579D03*
X0081364Y0115779D03*
X0082703Y0113993D03*
X0087167Y0107298D03*
X0087167Y0105512D03*
X0092077Y0104620D03*
X0092077Y0104173D03*
X0096094Y0104173D03*
X0096094Y0104620D03*
X0096094Y0105512D03*
X0096094Y0106405D03*
X0099665Y0106405D03*
X0099665Y0105512D03*
X0099665Y0104620D03*
X0099665Y0104173D03*
X0103683Y0106405D03*
X0106807Y0110422D03*
X0113057Y0115779D03*
X0114842Y0107744D03*
X0114842Y0107298D03*
X0114842Y0106405D03*
X0097433Y0097924D03*
X0089845Y0095246D03*
X0077347Y0101049D03*
X0077347Y0101495D03*
X0076900Y0102388D03*
X0075561Y0104173D03*
X0074668Y0105512D03*
X0074668Y0112654D03*
X0074668Y0113101D03*
X0074668Y0113993D03*
X0071544Y0113101D03*
X0068419Y0097924D03*
X0066187Y0098370D03*
X0064848Y0090782D03*
X0063955Y0086765D03*
X0068866Y0085426D03*
X0073776Y0078284D03*
X0077793Y0078284D03*
X0082703Y0082747D03*
X0077347Y0085872D03*
X0084042Y0074266D03*
X0093416Y0075159D03*
X0092077Y0080069D03*
X0091631Y0065785D03*
X0094309Y0061321D03*
X0099219Y0065785D03*
X0088060Y0055072D03*
X0085381Y0051948D03*
X0085828Y0051055D03*
X0067973Y0069802D03*
X0068419Y0070695D03*
X0068866Y0072034D03*
X0066634Y0064446D03*
X0061723Y0061321D03*
X0058599Y0068017D03*
X0058153Y0071142D03*
X0052350Y0073820D03*
X0051457Y0074266D03*
X0050118Y0081408D03*
X0051903Y0084533D03*
X0056367Y0085872D03*
X0058599Y0084533D03*
X0055474Y0090782D03*
X0056367Y0098370D03*
X0046547Y0097031D03*
X0043422Y0101049D03*
X0043422Y0101495D03*
X0041190Y0099263D03*
X0038959Y0094799D03*
X0035834Y0093907D03*
X0035834Y0092121D03*
X0035834Y0091675D03*
X0035834Y0085426D03*
X0043422Y0084533D03*
X0038959Y0071142D03*
X0038512Y0070695D03*
X0037173Y0069802D03*
X0039851Y0068910D03*
X0043869Y0064446D03*
X0052350Y0064446D03*
X0035834Y0049716D03*
X0031817Y0054179D03*
X0025121Y0044806D03*
X0037173Y0030968D03*
X0068419Y0025165D03*
X0114842Y0068017D03*
X0115288Y0070695D03*
X0118413Y0070695D03*
X0118859Y0072034D03*
X0122877Y0073820D03*
X0126447Y0068017D03*
X0119306Y0064446D03*
X0119306Y0063553D03*
X0122430Y0058197D03*
X0123770Y0057304D03*
X0146981Y0076052D03*
X0152337Y0069802D03*
X0157247Y0070695D03*
X0159479Y0073820D03*
X0166621Y0075159D03*
X0169746Y0069802D03*
X0169746Y0068910D03*
X0182244Y0082747D03*
X0164836Y0086765D03*
X0134929Y0097031D03*
X0105914Y0087657D03*
X0158586Y0041681D03*
X0155016Y0030968D03*
X0159033Y0026058D03*
X0122877Y0021594D03*
X0119752Y0020701D03*
X0041637Y0108637D03*
X0042083Y0109530D03*
X0035388Y0109530D03*
X0034495Y0110422D03*
X0039405Y0118011D03*
X0039405Y0118903D03*
X0034941Y0149257D03*
X0034495Y0167112D03*
X0067080Y0183181D03*
X0081364Y0179610D03*
X0118859Y0180057D03*
D74*
X0148320Y0170683D03*
X0159033Y0159077D03*
X0167068Y0159077D03*
X0169299Y0163987D03*
X0167068Y0166219D03*
X0179566Y0149257D03*
X0177781Y0146579D03*
X0175549Y0143454D03*
X0189833Y0127385D03*
X0142071Y0116225D03*
X0131804Y0134527D03*
X0131804Y0134973D03*
X0104129Y0125153D03*
X0104129Y0124260D03*
X0081364Y0095246D03*
X0062170Y0097031D03*
X0045654Y0081408D03*
X0062170Y0067571D03*
X0066634Y0076052D03*
X0079132Y0065785D03*
X0072883Y0060429D03*
X0077347Y0053287D03*
X0089399Y0073820D03*
X0122877Y0063553D03*
X0135821Y0086765D03*
X0159033Y0053287D03*
X0158586Y0052394D03*
X0156801Y0050162D03*
X0156355Y0049716D03*
X0158586Y0040788D03*
X0154569Y0037217D03*
X0158586Y0034539D03*
X0160818Y0028290D03*
X0159033Y0026951D03*
X0135821Y0020701D03*
X0049671Y0033200D03*
X0047886Y0030968D03*
X0039405Y0034539D03*
X0037173Y0038556D03*
X0029138Y0040342D03*
X0033156Y0046591D03*
X0020657Y0064446D03*
X0016194Y0061321D03*
X0041190Y0106405D03*
X0041637Y0107744D03*
X0026907Y0138990D03*
X0022889Y0144347D03*
X0043869Y0171575D03*
X0054135Y0170683D03*
X0054135Y0168451D03*
X0066634Y0182735D03*
X0058153Y0143008D03*
D75*
X0041414Y0159970D03*
X0049895Y0165326D03*
X0129349Y0118011D03*
X0158810Y0163094D03*
X0158810Y0173807D03*
X0123100Y0072034D03*
X0123100Y0064892D03*
X0062393Y0021594D03*
X0049895Y0082301D03*
D76*
X0063956Y0069802D03*
X0063063Y0065785D03*
X0073776Y0057304D03*
X0074222Y0056411D03*
X0083150Y0053287D03*
X0098326Y0068910D03*
X0095202Y0077391D03*
X0102790Y0078284D03*
X0084042Y0071142D03*
X0080471Y0112654D03*
X0078239Y0122028D03*
X0094309Y0118903D03*
X0094755Y0119350D03*
X0129572Y0102388D03*
X0143410Y0107298D03*
X0143410Y0107744D03*
X0145642Y0102388D03*
X0145642Y0101495D03*
X0142963Y0122474D03*
X0142963Y0123367D03*
X0167514Y0153721D03*
X0169746Y0155506D03*
X0171531Y0156845D03*
X0153676Y0163987D03*
X0126894Y0180057D03*
X0121984Y0189430D03*
X0069312Y0176932D03*
X0053689Y0168004D03*
X0046993Y0176486D03*
X0035387Y0164880D03*
X0034941Y0165326D03*
X0030031Y0154613D03*
X0025121Y0142115D03*
X0021996Y0127385D03*
X0038066Y0116225D03*
X0038066Y0115779D03*
X0014408Y0088997D03*
X0013515Y0088550D03*
X0009498Y0085426D03*
X0010837Y0078284D03*
X0026460Y0052394D03*
X0026014Y0051948D03*
X0022889Y0049716D03*
X0026014Y0046591D03*
X0027799Y0047930D03*
X0029138Y0048823D03*
X0030478Y0049716D03*
X0032263Y0051055D03*
X0043422Y0038556D03*
X0127787Y0021594D03*
X0140732Y0022487D03*
X0146981Y0026058D03*
X0177334Y0056411D03*
X0175995Y0057304D03*
X0174656Y0058197D03*
X0180905Y0073820D03*
X0183137Y0082301D03*
X0155015Y0058197D03*
X0146981Y0075159D03*
D77*
X0152337Y0055965D03*
X0177781Y0055965D03*
X0129572Y0106851D03*
X0083149Y0076498D03*
X0062170Y0022041D03*
X0184030Y0140776D03*
X0075561Y0143900D03*
X0037173Y0154167D03*
D78*
X0035834Y0164433D03*
X0015301Y0089889D03*
X0071544Y0062660D03*
X0073776Y0066231D03*
X0128233Y0022041D03*
X0191172Y0083194D03*
X0143410Y0106851D03*
X0153676Y0164433D03*
D79*
X0148989Y0167558D03*
X0157917Y0174254D03*
X0160149Y0164433D03*
X0168184Y0154167D03*
X0172201Y0157292D03*
X0122207Y0154167D03*
X0112833Y0113547D03*
X0078016Y0123814D03*
X0061500Y0137205D03*
X0040521Y0160863D03*
X0034272Y0150596D03*
X0030254Y0154167D03*
X0044092Y0174254D03*
X0048556Y0177825D03*
X0053019Y0167558D03*
X0026684Y0062660D03*
X0032040Y0045698D03*
X0037843Y0039003D03*
X0083819Y0052840D03*
X0140508Y0022041D03*
X0165952Y0039003D03*
D80*
X0161488Y0036324D03*
X0146311Y0053287D03*
X0150775Y0055072D03*
X0151668Y0055519D03*
X0148990Y0065785D03*
X0145865Y0073820D03*
X0123546Y0070695D03*
X0117297Y0066678D03*
X0117297Y0065785D03*
X0120421Y0083640D03*
X0128903Y0097031D03*
X0128903Y0101495D03*
X0119529Y0111762D03*
X0143633Y0106405D03*
X0146758Y0104173D03*
X0146758Y0128724D03*
X0131134Y0139883D03*
X0117297Y0149703D03*
X0136491Y0175593D03*
X0144526Y0179610D03*
X0145418Y0180057D03*
X0126671Y0182735D03*
X0177557Y0151489D03*
X0186038Y0066678D03*
X0177111Y0061321D03*
X0087836Y0064446D03*
X0085158Y0067571D03*
X0081141Y0061321D03*
X0083373Y0058643D03*
X0065964Y0076944D03*
X0078909Y0080515D03*
X0081141Y0109530D03*
X0077123Y0119350D03*
X0079802Y0127385D03*
X0080694Y0128724D03*
X0074892Y0143454D03*
X0060608Y0135866D03*
X0053466Y0123367D03*
X0037843Y0114886D03*
X0032486Y0111762D03*
X0035611Y0126492D03*
X0023112Y0149257D03*
X0028469Y0157738D03*
X0036950Y0163094D03*
X0045877Y0170683D03*
X0065071Y0174700D03*
X0067303Y0175593D03*
X0072660Y0188984D03*
X0011953Y0122474D03*
X0010614Y0084533D03*
X0026237Y0061768D03*
X0035611Y0047930D03*
X0033825Y0036324D03*
X0061947Y0022487D03*
D81*
X0019541Y0063553D03*
X0063286Y0070695D03*
X0073999Y0066678D03*
X0078016Y0074266D03*
X0130242Y0110869D03*
X0130688Y0138990D03*
X0153453Y0164880D03*
X0176665Y0136758D03*
X0122207Y0187199D03*
X0061500Y0184967D03*
X0140955Y0022933D03*
D82*
X0131134Y0023380D03*
X0082034Y0059982D03*
X0077123Y0071588D03*
X0073106Y0084086D03*
X0077570Y0117564D03*
X0078462Y0120689D03*
X0123100Y0075605D03*
X0142740Y0095692D03*
X0130688Y0111315D03*
X0179343Y0138544D03*
X0188717Y0126045D03*
X0154346Y0176039D03*
X0076677Y0190769D03*
X0016417Y0130063D03*
X0015524Y0130956D03*
X0018649Y0119796D03*
X0035611Y0047484D03*
X0045877Y0030522D03*
D83*
X0063286Y0072034D03*
X0119975Y0068017D03*
X0132474Y0023826D03*
X0182914Y0058643D03*
X0170415Y0148364D03*
D84*
X0185592Y0142561D03*
X0149436Y0127831D03*
X0142740Y0130956D03*
X0140955Y0126045D03*
X0127563Y0132295D03*
X0124439Y0124706D03*
X0122207Y0120689D03*
X0122654Y0119796D03*
X0124439Y0119796D03*
X0125778Y0118457D03*
X0127563Y0116672D03*
X0126224Y0115332D03*
X0126224Y0114440D03*
X0121761Y0108191D03*
X0119975Y0108191D03*
X0118636Y0103727D03*
X0117297Y0101941D03*
X0116404Y0100602D03*
X0115511Y0099709D03*
X0115065Y0098817D03*
X0115511Y0101941D03*
X0115958Y0102834D03*
X0120422Y0100602D03*
X0121761Y0101941D03*
X0121761Y0094353D03*
X0130688Y0091228D03*
X0132920Y0092567D03*
X0132027Y0095692D03*
X0136045Y0098817D03*
X0140508Y0100602D03*
X0141401Y0101941D03*
X0138723Y0105066D03*
X0139169Y0105959D03*
X0139616Y0111315D03*
X0157471Y0105959D03*
X0160149Y0102834D03*
X0160595Y0098817D03*
X0160595Y0097478D03*
X0165505Y0091228D03*
X0167737Y0084979D03*
X0167737Y0081855D03*
X0166845Y0078730D03*
X0161488Y0078730D03*
X0162381Y0075605D03*
X0161934Y0074713D03*
X0160595Y0072481D03*
X0159702Y0070249D03*
X0157917Y0067124D03*
X0160149Y0063107D03*
X0159702Y0062214D03*
X0165952Y0050608D03*
X0172647Y0060875D03*
X0169522Y0071588D03*
X0153900Y0073373D03*
X0157471Y0087211D03*
X0157917Y0088104D03*
X0155685Y0089443D03*
X0137384Y0084086D03*
X0134706Y0080962D03*
X0111048Y0087211D03*
X0107923Y0089443D03*
X0108816Y0090336D03*
X0108816Y0091228D03*
X0108816Y0093460D03*
X0111494Y0095692D03*
X0111048Y0101941D03*
X0111048Y0102834D03*
X0107030Y0102834D03*
X0103459Y0101941D03*
X0096317Y0101941D03*
X0092300Y0099709D03*
X0086497Y0102834D03*
X0086497Y0103727D03*
X0086051Y0101941D03*
X0082926Y0108191D03*
X0088283Y0111315D03*
X0088729Y0112208D03*
X0090961Y0114440D03*
X0090068Y0118457D03*
X0090515Y0120689D03*
X0086051Y0121582D03*
X0081587Y0124706D03*
X0084712Y0129170D03*
X0086944Y0138544D03*
X0083819Y0141668D03*
X0081587Y0147918D03*
X0076677Y0139437D03*
X0069982Y0135419D03*
X0068196Y0135419D03*
X0067750Y0138544D03*
X0067750Y0139437D03*
X0068196Y0132295D03*
X0067303Y0130956D03*
X0067303Y0130063D03*
X0066857Y0129170D03*
X0064179Y0127831D03*
X0064179Y0130956D03*
X0074445Y0126045D03*
X0090515Y0109083D03*
X0097657Y0117564D03*
X0101228Y0117564D03*
X0101228Y0118457D03*
X0106138Y0118457D03*
X0106138Y0117564D03*
X0105245Y0130063D03*
X0105691Y0130956D03*
X0102567Y0133187D03*
X0101674Y0136312D03*
X0098996Y0142561D03*
X0111494Y0144793D03*
X0112387Y0145686D03*
X0113280Y0147025D03*
X0111941Y0139437D03*
X0110155Y0133187D03*
X0131135Y0145686D03*
X0138276Y0148810D03*
X0128010Y0177378D03*
X0056590Y0118457D03*
X0056590Y0112208D03*
X0046770Y0105066D03*
X0046324Y0103727D03*
X0044985Y0103727D03*
X0044092Y0105959D03*
X0038289Y0103727D03*
X0036504Y0103727D03*
X0038289Y0109083D03*
X0036504Y0111315D03*
X0042306Y0112208D03*
X0044538Y0115332D03*
X0046324Y0120689D03*
X0041860Y0130956D03*
X0027576Y0136312D03*
X0021327Y0118457D03*
X0039628Y0095692D03*
X0044092Y0094353D03*
X0044538Y0093460D03*
X0044985Y0092567D03*
X0044985Y0091228D03*
X0045431Y0089443D03*
X0049002Y0087211D03*
X0052573Y0088104D03*
X0053466Y0087211D03*
X0056590Y0084979D03*
X0058822Y0081855D03*
X0058822Y0078730D03*
X0059269Y0074713D03*
X0058822Y0070249D03*
X0059269Y0067124D03*
X0054805Y0068463D03*
X0051234Y0067124D03*
X0050341Y0071588D03*
X0051234Y0072481D03*
X0052573Y0071588D03*
X0047217Y0070249D03*
X0044538Y0074713D03*
X0042753Y0075605D03*
X0036950Y0080962D03*
X0036950Y0081855D03*
X0036950Y0084086D03*
X0037843Y0087211D03*
X0037843Y0088104D03*
X0039628Y0089443D03*
X0048109Y0098817D03*
X0051680Y0097478D03*
X0054358Y0092567D03*
X0062839Y0089443D03*
X0061054Y0084979D03*
X0065071Y0084086D03*
X0067303Y0084086D03*
X0073552Y0087211D03*
X0073999Y0091228D03*
X0069535Y0099709D03*
X0069982Y0103727D03*
X0065518Y0101941D03*
X0065071Y0103727D03*
X0061947Y0102834D03*
X0075338Y0102834D03*
X0077570Y0102834D03*
X0086497Y0090336D03*
X0093193Y0084979D03*
X0084712Y0081855D03*
X0078016Y0077837D03*
X0072660Y0072481D03*
X0072660Y0071588D03*
X0071321Y0072481D03*
X0069982Y0068463D03*
X0069535Y0067124D03*
X0067750Y0063107D03*
X0065964Y0062214D03*
X0067303Y0060875D03*
X0067303Y0059982D03*
X0069982Y0057750D03*
X0071321Y0054626D03*
X0071767Y0050608D03*
X0061500Y0056858D03*
X0054358Y0060875D03*
X0080695Y0067124D03*
X0086051Y0073373D03*
X0087836Y0060875D03*
X0093193Y0057750D03*
X0101228Y0062214D03*
X0088283Y0043020D03*
X0088729Y0042127D03*
X0071321Y0024272D03*
X0126671Y0054626D03*
X0145865Y0031861D03*
X0105691Y0090336D03*
X0102567Y0089443D03*
D85*
X0093416Y0078730D03*
X0084935Y0068463D03*
X0089399Y0063107D03*
X0082703Y0053733D03*
X0075561Y0054626D03*
X0073776Y0056858D03*
X0073776Y0057750D03*
X0071544Y0063107D03*
X0062616Y0067124D03*
X0062616Y0074713D03*
X0077793Y0074713D03*
X0041637Y0103727D03*
X0014854Y0089443D03*
X0013069Y0088104D03*
X0011730Y0087211D03*
X0020211Y0064000D03*
X0026460Y0062214D03*
X0031817Y0050608D03*
X0028692Y0048377D03*
X0027353Y0047484D03*
X0025567Y0046145D03*
X0044315Y0027397D03*
X0123323Y0071588D03*
X0136268Y0088104D03*
X0145642Y0101941D03*
X0146534Y0105066D03*
X0143410Y0108191D03*
X0142963Y0122921D03*
X0143410Y0124706D03*
X0132250Y0132295D03*
X0132250Y0141668D03*
X0120198Y0111315D03*
X0094755Y0119796D03*
X0078239Y0122921D03*
X0025121Y0141668D03*
X0115288Y0191662D03*
X0126894Y0180503D03*
X0183584Y0115332D03*
X0179120Y0070249D03*
X0175995Y0062214D03*
X0181352Y0053733D03*
X0175102Y0047484D03*
X0173763Y0048377D03*
X0168853Y0051501D03*
X0168853Y0036771D03*
X0143856Y0024272D03*
D86*
X0146088Y0024719D03*
X0127340Y0086765D03*
X0142071Y0094799D03*
X0133590Y0125153D03*
X0131358Y0144347D03*
D87*
X0131358Y0140329D03*
X0125109Y0141222D03*
X0136268Y0129616D03*
X0143856Y0124260D03*
X0129572Y0109530D03*
X0129572Y0108637D03*
X0129572Y0107744D03*
X0129572Y0107298D03*
X0129572Y0106405D03*
X0129572Y0105512D03*
X0126894Y0093907D03*
X0122877Y0075159D03*
X0123323Y0071142D03*
X0139839Y0069802D03*
X0146534Y0074266D03*
X0152784Y0056411D03*
X0171531Y0050162D03*
X0168853Y0037217D03*
X0179566Y0069802D03*
X0146534Y0104620D03*
X0099665Y0082747D03*
X0097880Y0097031D03*
X0083596Y0076944D03*
X0084935Y0068017D03*
X0080918Y0061768D03*
X0081810Y0055072D03*
X0066634Y0080515D03*
X0072883Y0081408D03*
X0041190Y0104173D03*
X0041190Y0104620D03*
X0041637Y0105512D03*
X0049671Y0115779D03*
X0052350Y0122028D03*
X0059938Y0128277D03*
X0076900Y0118903D03*
X0083596Y0125153D03*
X0081364Y0129616D03*
X0096094Y0121135D03*
X0089845Y0146579D03*
X0068866Y0176486D03*
X0054582Y0179610D03*
X0054582Y0180057D03*
X0126894Y0181842D03*
X0163050Y0155952D03*
X0056367Y0025165D03*
X0012623Y0074266D03*
D88*
X0010391Y0086318D03*
X0008605Y0089889D03*
X0036727Y0066231D03*
X0044315Y0069356D03*
X0063063Y0059536D03*
X0080471Y0062660D03*
X0089845Y0072927D03*
X0077793Y0079623D03*
X0080918Y0113547D03*
X0060831Y0130509D03*
X0050118Y0117118D03*
X0030031Y0049269D03*
X0055921Y0025612D03*
X0142963Y0123814D03*
X0118413Y0150596D03*
X0126894Y0180949D03*
X0172424Y0049269D03*
D89*
X0159033Y0025612D03*
X0158586Y0072927D03*
X0160818Y0096585D03*
X0138053Y0106851D03*
X0135821Y0106851D03*
X0135375Y0109976D03*
X0123323Y0106851D03*
X0121091Y0106851D03*
X0120645Y0103280D03*
X0113057Y0100156D03*
X0110825Y0093014D03*
X0104575Y0086318D03*
X0099665Y0086318D03*
X0096094Y0089889D03*
X0089399Y0096585D03*
X0096094Y0103280D03*
X0077347Y0113547D03*
X0066187Y0096585D03*
X0052350Y0079623D03*
X0054135Y0076498D03*
X0043422Y0089889D03*
X0039405Y0089889D03*
X0037173Y0083194D03*
X0047440Y0093014D03*
X0039405Y0109976D03*
X0041637Y0130509D03*
X0071097Y0072927D03*
X0076900Y0062660D03*
X0068866Y0059536D03*
X0010391Y0072927D03*
X0122877Y0123814D03*
X0127340Y0130509D03*
X0163050Y0154167D03*
X0165282Y0150596D03*
X0135821Y0174254D03*
D90*
X0122207Y0189877D03*
X0151221Y0165773D03*
X0157024Y0161309D03*
X0158363Y0162648D03*
X0159256Y0163541D03*
X0161488Y0165773D03*
X0157024Y0175146D03*
X0153900Y0177378D03*
X0170862Y0156399D03*
X0173094Y0158184D03*
X0132474Y0142561D03*
X0132027Y0133187D03*
X0136937Y0116672D03*
X0143187Y0109083D03*
X0133367Y0099709D03*
X0129795Y0102834D03*
X0128456Y0100602D03*
X0125778Y0093460D03*
X0113280Y0112208D03*
X0111494Y0116672D03*
X0111048Y0117564D03*
X0094532Y0118457D03*
X0084712Y0124706D03*
X0078016Y0124706D03*
X0078909Y0114440D03*
X0061947Y0097478D03*
X0073106Y0080962D03*
X0073552Y0077837D03*
X0073552Y0068463D03*
X0062839Y0065339D03*
X0058822Y0063107D03*
X0040074Y0041235D03*
X0038735Y0039895D03*
X0036504Y0038110D03*
X0030701Y0044359D03*
X0031593Y0045252D03*
X0032486Y0046145D03*
X0020434Y0077837D03*
X0040967Y0105959D03*
X0060608Y0129170D03*
X0034718Y0150150D03*
X0033825Y0151042D03*
X0032933Y0151935D03*
X0031147Y0153274D03*
X0020880Y0147025D03*
X0034718Y0165773D03*
X0040967Y0160416D03*
X0041860Y0159523D03*
X0050787Y0165773D03*
X0051680Y0166665D03*
X0048556Y0172022D03*
X0044985Y0175146D03*
X0046324Y0176039D03*
X0048109Y0177378D03*
X0054358Y0181396D03*
X0072213Y0188538D03*
X0107923Y0144793D03*
X0107477Y0135419D03*
X0119975Y0151935D03*
X0121314Y0153274D03*
X0097657Y0097478D03*
X0085604Y0056858D03*
X0147650Y0075605D03*
X0157917Y0051501D03*
X0162381Y0042127D03*
X0163273Y0041235D03*
X0157471Y0039895D03*
X0153900Y0036771D03*
X0155239Y0031861D03*
X0159702Y0027397D03*
X0163273Y0030522D03*
X0176665Y0046145D03*
X0173540Y0059090D03*
X0011060Y0122921D03*
D91*
X0052796Y0122474D03*
X0065295Y0141222D03*
X0036280Y0163987D03*
X0019765Y0077391D03*
X0044315Y0068910D03*
X0063063Y0066678D03*
X0063063Y0074266D03*
X0073776Y0068017D03*
X0084042Y0058197D03*
X0090291Y0072034D03*
X0044761Y0028290D03*
X0042976Y0037217D03*
X0042976Y0037664D03*
X0023335Y0050162D03*
X0176441Y0061768D03*
X0183137Y0058197D03*
D92*
X0162158Y0042574D03*
X0155908Y0049269D03*
X0155908Y0059536D03*
X0152784Y0035878D03*
X0161711Y0029183D03*
X0183137Y0086318D03*
X0143410Y0109976D03*
X0134036Y0100156D03*
X0111271Y0117118D03*
X0103683Y0123814D03*
X0057706Y0093014D03*
X0071544Y0076498D03*
X0078239Y0052840D03*
X0037619Y0032307D03*
X0025567Y0045698D03*
X0025567Y0140776D03*
X0049225Y0164433D03*
X0051457Y0174254D03*
X0113949Y0180949D03*
X0148766Y0171129D03*
X0150998Y0174254D03*
X0157247Y0160863D03*
X0168853Y0160863D03*
X0168853Y0164433D03*
X0173763Y0140776D03*
D93*
X0129795Y0109976D03*
X0129795Y0103280D03*
X0128456Y0096585D03*
X0098549Y0069356D03*
X0074445Y0055965D03*
X0063286Y0066231D03*
X0033825Y0035878D03*
X0016863Y0093014D03*
X0065518Y0140776D03*
X0095425Y0120243D03*
X0077570Y0191216D03*
X0186485Y0066231D03*
X0155239Y0032307D03*
D94*
X0161265Y0035432D03*
X0147873Y0064892D03*
X0123323Y0076052D03*
X0142517Y0095246D03*
X0101897Y0123367D03*
X0088060Y0129616D03*
X0081810Y0111762D03*
X0060384Y0087657D03*
X0067080Y0080069D03*
X0050118Y0111762D03*
X0050118Y0113101D03*
X0049671Y0118903D03*
X0037173Y0113993D03*
X0021104Y0128277D03*
X0036727Y0154613D03*
X0066634Y0181842D03*
X0064402Y0185859D03*
X0073329Y0189430D03*
X0163050Y0156845D03*
X0020657Y0072034D03*
D95*
X0053689Y0123814D03*
X0077347Y0117118D03*
X0081364Y0109976D03*
X0082703Y0059536D03*
X0144749Y0072927D03*
X0161265Y0035878D03*
D96*
X0042530Y0036324D03*
D97*
X0042753Y0036771D03*
X0065518Y0141668D03*
X0122207Y0187645D03*
D98*
X0147650Y0182288D03*
X0164612Y0169790D03*
X0165505Y0151042D03*
X0138277Y0130063D03*
X0133813Y0130063D03*
X0127117Y0130063D03*
X0126671Y0129170D03*
X0124885Y0126045D03*
X0123100Y0122921D03*
X0133813Y0117564D03*
X0137384Y0112208D03*
X0137384Y0111315D03*
X0137830Y0109083D03*
X0135598Y0109083D03*
X0119529Y0101941D03*
X0114172Y0103727D03*
X0114619Y0105066D03*
X0111048Y0105066D03*
X0111048Y0105959D03*
X0107031Y0103727D03*
X0099888Y0102834D03*
X0091854Y0102834D03*
X0091854Y0101941D03*
X0090068Y0105959D03*
X0086944Y0105959D03*
X0087390Y0108191D03*
X0091854Y0109083D03*
X0092300Y0116672D03*
X0095425Y0117564D03*
X0098103Y0116672D03*
X0107031Y0120689D03*
X0099442Y0126045D03*
X0098549Y0134080D03*
X0106138Y0132295D03*
X0107031Y0133187D03*
X0108816Y0132295D03*
X0107923Y0130956D03*
X0112833Y0135419D03*
X0113280Y0139437D03*
X0114172Y0141668D03*
X0113280Y0142561D03*
X0117297Y0141668D03*
X0119083Y0142561D03*
X0116851Y0139437D03*
X0116851Y0136312D03*
X0126671Y0134080D03*
X0104352Y0144793D03*
X0089622Y0147918D03*
X0076677Y0147025D03*
X0074445Y0139437D03*
X0065964Y0135419D03*
X0064625Y0134080D03*
X0070874Y0130063D03*
X0071321Y0129170D03*
X0074445Y0127831D03*
X0081141Y0118457D03*
X0074445Y0112208D03*
X0074445Y0111315D03*
X0068642Y0117564D03*
X0077123Y0101941D03*
X0077123Y0100602D03*
X0078909Y0098817D03*
X0079355Y0097478D03*
X0075338Y0088104D03*
X0071321Y0087211D03*
X0070874Y0091228D03*
X0062840Y0081855D03*
X0058822Y0077837D03*
X0053912Y0072481D03*
X0054359Y0071588D03*
X0052127Y0068463D03*
X0049895Y0070249D03*
X0048109Y0071588D03*
X0049448Y0075605D03*
X0049448Y0077837D03*
X0051680Y0084979D03*
X0053466Y0089443D03*
X0052573Y0090336D03*
X0052127Y0091228D03*
X0052573Y0093460D03*
X0049895Y0093460D03*
X0047216Y0093460D03*
X0046324Y0094353D03*
X0047663Y0095692D03*
X0050341Y0099709D03*
X0045877Y0102834D03*
X0043646Y0098817D03*
X0040967Y0098817D03*
X0039628Y0102834D03*
X0039182Y0094353D03*
X0043199Y0091228D03*
X0043199Y0090336D03*
X0044092Y0084979D03*
X0055697Y0101941D03*
X0060608Y0099709D03*
X0041860Y0118457D03*
X0038735Y0111315D03*
X0041414Y0129170D03*
X0041414Y0130063D03*
X0032486Y0145686D03*
X0038735Y0153274D03*
X0090068Y0127831D03*
X0111048Y0093460D03*
X0108370Y0087211D03*
X0106138Y0087211D03*
X0102567Y0087211D03*
X0102567Y0088104D03*
X0096318Y0088104D03*
X0096318Y0087211D03*
X0095425Y0084979D03*
X0096318Y0084086D03*
X0092300Y0090336D03*
X0091854Y0091228D03*
X0091407Y0092567D03*
X0086944Y0075605D03*
X0091854Y0065339D03*
X0092300Y0059090D03*
X0089622Y0056858D03*
X0074892Y0064000D03*
X0070874Y0064000D03*
X0066410Y0064000D03*
X0071321Y0070249D03*
X0074445Y0075605D03*
X0053912Y0062214D03*
X0043646Y0064000D03*
X0044092Y0041235D03*
X0007489Y0089443D03*
X0108370Y0080962D03*
X0120868Y0059982D03*
X0121314Y0059090D03*
X0124885Y0056858D03*
X0134259Y0081855D03*
X0141847Y0087211D03*
X0157024Y0084979D03*
X0159256Y0090336D03*
X0160595Y0095692D03*
X0165505Y0093460D03*
X0165059Y0087211D03*
X0159256Y0073373D03*
X0158363Y0072481D03*
X0163273Y0068463D03*
X0161488Y0065339D03*
X0161042Y0064000D03*
X0161488Y0038110D03*
X0160595Y0101941D03*
D99*
X0144526Y0114440D03*
X0138276Y0090336D03*
X0182467Y0059090D03*
X0168630Y0038110D03*
X0082034Y0112208D03*
X0061054Y0122921D03*
X0040074Y0124706D03*
X0015524Y0092567D03*
X0017756Y0080962D03*
X0013292Y0074713D03*
X0063732Y0073373D03*
X0078016Y0072481D03*
X0038289Y0161309D03*
D100*
X0089622Y0062660D03*
X0043646Y0039003D03*
X0158810Y0052840D03*
D101*
X0156355Y0039003D03*
X0173317Y0059536D03*
X0142071Y0096585D03*
X0114842Y0072927D03*
X0106361Y0096585D03*
X0070651Y0093014D03*
X0062616Y0096585D03*
X0026907Y0052840D03*
X0028692Y0042574D03*
X0131804Y0133634D03*
X0143856Y0126938D03*
X0160818Y0157292D03*
X0165282Y0157292D03*
D102*
X0150329Y0166665D03*
X0123100Y0155060D03*
X0089622Y0073373D03*
X0123100Y0065339D03*
X0165059Y0039895D03*
X0183807Y0057750D03*
D103*
X0174433Y0042574D03*
X0098996Y0066231D03*
X0092746Y0079623D03*
X0080248Y0096585D03*
X0065518Y0089889D03*
X0038289Y0123814D03*
X0107477Y0191216D03*
D104*
X0111941Y0147918D03*
X0103013Y0142561D03*
X0103459Y0141668D03*
X0103459Y0136312D03*
X0107477Y0134080D03*
X0111941Y0134080D03*
X0124439Y0121582D03*
X0128010Y0115332D03*
X0122207Y0105066D03*
X0122207Y0097478D03*
X0107477Y0098817D03*
X0103459Y0103727D03*
X0094978Y0116672D03*
X0086497Y0118457D03*
X0078016Y0105066D03*
X0069535Y0109083D03*
X0071767Y0117564D03*
X0071767Y0127831D03*
X0069982Y0133187D03*
X0071767Y0135419D03*
X0065518Y0130063D03*
X0082480Y0138544D03*
X0111494Y0119796D03*
X0128456Y0135419D03*
X0138723Y0126045D03*
X0139169Y0118457D03*
X0155685Y0090336D03*
X0160149Y0075605D03*
X0166398Y0075605D03*
X0168184Y0065339D03*
X0155685Y0068463D03*
X0174433Y0043020D03*
X0115511Y0065339D03*
X0101228Y0063107D03*
X0090961Y0054626D03*
X0090961Y0051501D03*
X0088729Y0059982D03*
X0067750Y0068463D03*
X0061054Y0068463D03*
X0063732Y0062214D03*
X0061054Y0057750D03*
X0048556Y0072481D03*
X0044538Y0070249D03*
X0040521Y0088104D03*
X0036504Y0089443D03*
X0036504Y0090336D03*
X0036057Y0092567D03*
X0036057Y0093460D03*
X0036057Y0095692D03*
X0036504Y0097478D03*
X0036057Y0088104D03*
X0036057Y0087211D03*
X0049002Y0094353D03*
X0050787Y0095692D03*
X0050787Y0092567D03*
X0057037Y0100602D03*
X0059269Y0098817D03*
X0061054Y0094353D03*
X0063286Y0101941D03*
X0076231Y0087211D03*
X0090515Y0094353D03*
X0090961Y0093460D03*
X0092746Y0089443D03*
X0105691Y0088104D03*
X0042306Y0115332D03*
X0049002Y0163541D03*
X0063286Y0172915D03*
X0178450Y0127831D03*
D105*
X0173540Y0138544D03*
X0144079Y0169790D03*
X0106584Y0127831D03*
X0120868Y0109083D03*
X0123100Y0103727D03*
X0119083Y0098817D03*
X0110601Y0090336D03*
X0110601Y0089443D03*
X0098103Y0084979D03*
X0087390Y0077837D03*
X0073106Y0073373D03*
X0068642Y0064000D03*
X0068642Y0059090D03*
X0077123Y0062214D03*
X0060161Y0080962D03*
X0062393Y0084086D03*
X0049895Y0073373D03*
X0047663Y0078730D03*
X0041414Y0074713D03*
X0043646Y0063107D03*
X0024898Y0044359D03*
X0039182Y0090336D03*
X0039182Y0091228D03*
X0043646Y0114440D03*
X0031147Y0127831D03*
X0068642Y0130956D03*
X0070874Y0121582D03*
X0070874Y0120689D03*
X0083373Y0114440D03*
X0087390Y0122921D03*
X0079355Y0141668D03*
X0127117Y0126045D03*
X0140062Y0124706D03*
X0140062Y0109083D03*
X0141847Y0102834D03*
X0133813Y0093460D03*
X0131581Y0092567D03*
X0161042Y0077837D03*
X0162827Y0077837D03*
X0162827Y0078730D03*
X0165059Y0072481D03*
X0167291Y0084086D03*
X0165059Y0089443D03*
X0165059Y0090336D03*
X0165059Y0094353D03*
X0190056Y0074713D03*
D106*
X0169746Y0070249D03*
X0164389Y0070249D03*
X0162158Y0067124D03*
X0159926Y0071588D03*
X0151891Y0071588D03*
X0166621Y0060875D03*
X0166175Y0059982D03*
X0165728Y0059090D03*
X0164389Y0056858D03*
X0167960Y0080962D03*
X0158140Y0105066D03*
X0139393Y0101941D03*
X0134482Y0094353D03*
X0122430Y0102834D03*
X0120198Y0102834D03*
X0117967Y0102834D03*
X0118413Y0100602D03*
X0119752Y0099709D03*
X0113949Y0102834D03*
X0113503Y0101941D03*
X0111271Y0103727D03*
X0112164Y0097478D03*
X0111271Y0094353D03*
X0109039Y0092567D03*
X0105915Y0089443D03*
X0101004Y0084979D03*
X0095202Y0081855D03*
X0092970Y0075605D03*
X0086274Y0074713D03*
X0080025Y0077837D03*
X0078239Y0075605D03*
X0073776Y0074713D03*
X0067973Y0074713D03*
X0067973Y0067124D03*
X0070205Y0056858D03*
X0071990Y0051501D03*
X0088506Y0054626D03*
X0091184Y0053733D03*
X0091184Y0050608D03*
X0088059Y0046145D03*
X0088059Y0045252D03*
X0088059Y0044359D03*
X0088952Y0057750D03*
X0088059Y0059090D03*
X0092970Y0063107D03*
X0092523Y0064000D03*
X0095202Y0067124D03*
X0101451Y0060875D03*
X0109485Y0081855D03*
X0118413Y0089443D03*
X0103683Y0102834D03*
X0107700Y0109083D03*
X0109932Y0112208D03*
X0109039Y0118457D03*
X0101004Y0116672D03*
X0095202Y0124706D03*
X0099219Y0132295D03*
X0096541Y0134080D03*
X0100558Y0138544D03*
X0101004Y0139437D03*
X0102790Y0138544D03*
X0103236Y0135419D03*
X0102790Y0134080D03*
X0107254Y0130063D03*
X0117520Y0135419D03*
X0123769Y0133187D03*
X0126001Y0127831D03*
X0128680Y0129170D03*
X0130465Y0130063D03*
X0132250Y0129170D03*
X0124662Y0138544D03*
X0120198Y0147025D03*
X0111271Y0147025D03*
X0111271Y0141668D03*
X0094309Y0141668D03*
X0091184Y0142561D03*
X0078686Y0147025D03*
X0076454Y0148810D03*
X0069758Y0138544D03*
X0069758Y0134080D03*
X0067080Y0133187D03*
X0072437Y0124706D03*
X0071544Y0119796D03*
X0071544Y0112208D03*
X0074222Y0109083D03*
X0074222Y0108191D03*
X0077793Y0103727D03*
X0076454Y0102834D03*
X0069312Y0101941D03*
X0069312Y0100602D03*
X0069312Y0098817D03*
X0069312Y0095692D03*
X0067973Y0094353D03*
X0067080Y0095692D03*
X0067526Y0102834D03*
X0060831Y0101941D03*
X0057706Y0097478D03*
X0049225Y0097478D03*
X0045208Y0095692D03*
X0042530Y0095692D03*
X0040298Y0097478D03*
X0038066Y0095692D03*
X0049225Y0091228D03*
X0051011Y0089443D03*
X0050564Y0080962D03*
X0055028Y0077837D03*
X0055474Y0075605D03*
X0052796Y0075605D03*
X0046547Y0072481D03*
X0045208Y0073373D03*
X0044315Y0075605D03*
X0048332Y0065339D03*
X0034048Y0064000D03*
X0021996Y0078730D03*
X0057706Y0080962D03*
X0063956Y0084979D03*
X0070205Y0088104D03*
X0082703Y0095692D03*
X0088952Y0098817D03*
X0088506Y0099709D03*
X0088506Y0100602D03*
X0088506Y0101941D03*
X0088506Y0102834D03*
X0088952Y0103727D03*
X0086721Y0105066D03*
X0086721Y0111315D03*
X0086274Y0115332D03*
X0082257Y0116672D03*
X0090738Y0088104D03*
X0118413Y0105959D03*
X0119752Y0105066D03*
X0139393Y0112208D03*
X0136268Y0147025D03*
X0137161Y0147918D03*
X0057706Y0147918D03*
X0052796Y0179164D03*
X0049225Y0179164D03*
X0009498Y0116672D03*
X0042083Y0114440D03*
D107*
X0052127Y0097031D03*
X0052127Y0094799D03*
X0060161Y0085426D03*
X0058376Y0080515D03*
X0056144Y0080515D03*
X0056144Y0076944D03*
X0056144Y0075159D03*
X0060161Y0076052D03*
X0073106Y0073820D03*
X0079355Y0076944D03*
X0087390Y0079176D03*
X0091854Y0068017D03*
X0087390Y0061321D03*
X0077123Y0061768D03*
X0077123Y0063553D03*
X0064625Y0061321D03*
X0053912Y0061321D03*
X0047663Y0069802D03*
X0041414Y0075159D03*
X0039182Y0090782D03*
X0039182Y0091675D03*
X0070874Y0121135D03*
X0070874Y0122028D03*
X0070874Y0122474D03*
X0073106Y0122028D03*
X0066410Y0125153D03*
X0066410Y0125599D03*
X0066410Y0128277D03*
X0066410Y0128724D03*
X0064625Y0128724D03*
X0064625Y0131402D03*
X0066410Y0131848D03*
X0068642Y0131402D03*
X0068642Y0136758D03*
X0074892Y0139883D03*
X0089622Y0148364D03*
X0095871Y0143008D03*
X0102120Y0137651D03*
X0093639Y0131402D03*
X0091854Y0126492D03*
X0087390Y0123367D03*
X0077123Y0113101D03*
X0077123Y0112654D03*
X0081141Y0097031D03*
X0074892Y0085872D03*
X0099888Y0088997D03*
X0106584Y0086765D03*
X0110601Y0088997D03*
X0110601Y0082747D03*
X0114619Y0069802D03*
X0114619Y0068910D03*
X0125332Y0073820D03*
X0127117Y0066678D03*
X0154346Y0073820D03*
X0162827Y0077391D03*
X0162827Y0078284D03*
X0167291Y0079176D03*
X0165059Y0072034D03*
X0169076Y0068017D03*
X0158810Y0060429D03*
X0165059Y0088550D03*
X0165059Y0088997D03*
X0140062Y0108637D03*
X0140062Y0109530D03*
X0137830Y0106405D03*
X0135598Y0104620D03*
X0135598Y0104173D03*
X0135598Y0110869D03*
X0120868Y0106405D03*
X0116851Y0105512D03*
X0116851Y0101049D03*
X0114619Y0098370D03*
X0120868Y0101049D03*
X0125332Y0095246D03*
X0127117Y0126492D03*
X0116851Y0138990D03*
X0112833Y0146132D03*
X0112833Y0146579D03*
X0137830Y0148364D03*
X0173540Y0138097D03*
X0179789Y0152381D03*
X0091854Y0049716D03*
X0087390Y0047930D03*
X0058376Y0134527D03*
D108*
X0071990Y0134973D03*
X0094755Y0116225D03*
X0094755Y0115779D03*
X0111717Y0118903D03*
X0121984Y0124260D03*
X0124216Y0115779D03*
X0124216Y0113101D03*
X0128233Y0135866D03*
X0115735Y0140329D03*
X0078239Y0106405D03*
X0067526Y0104620D03*
X0067526Y0104173D03*
X0061277Y0099263D03*
X0061277Y0093907D03*
X0061277Y0090782D03*
X0055028Y0091675D03*
X0055028Y0099263D03*
X0055028Y0102388D03*
X0042530Y0110422D03*
X0042530Y0110869D03*
X0042530Y0116225D03*
X0030031Y0112654D03*
X0067526Y0075159D03*
X0055028Y0068017D03*
X0071990Y0052394D03*
X0090738Y0051948D03*
X0082257Y0094799D03*
X0155462Y0080069D03*
X0166175Y0074266D03*
X0163943Y0068910D03*
X0155462Y0068017D03*
X0166175Y0050162D03*
X0048779Y0178717D03*
D109*
X0045654Y0169790D03*
X0118859Y0151042D03*
X0167068Y0153274D03*
X0169299Y0155060D03*
X0154569Y0057750D03*
X0033156Y0051501D03*
D110*
X0025791Y0064892D03*
X0046770Y0098370D03*
X0046770Y0122028D03*
X0065518Y0134527D03*
X0065518Y0134973D03*
X0080248Y0096138D03*
X0098996Y0066678D03*
X0080248Y0051948D03*
X0011060Y0125599D03*
X0025791Y0134527D03*
X0059269Y0183181D03*
X0107477Y0190323D03*
X0107477Y0140329D03*
X0107477Y0134527D03*
X0180682Y0122474D03*
X0180682Y0122028D03*
X0186931Y0122474D03*
X0186931Y0123367D03*
X0180682Y0077391D03*
D111*
X0147204Y0053733D03*
X0098996Y0070249D03*
X0063286Y0071588D03*
X0126224Y0142561D03*
D112*
X0125555Y0141668D03*
X0133143Y0144793D03*
X0134036Y0126045D03*
X0129572Y0109083D03*
X0129572Y0108191D03*
X0129572Y0105959D03*
X0146534Y0103727D03*
X0175549Y0144793D03*
X0126894Y0182288D03*
X0080918Y0129170D03*
X0076900Y0116672D03*
X0050118Y0117564D03*
X0025121Y0142561D03*
X0054135Y0180503D03*
X0081810Y0054626D03*
D113*
X0077123Y0070249D03*
X0123100Y0074713D03*
X0150329Y0067124D03*
X0175325Y0057750D03*
X0145865Y0102834D03*
X0095871Y0120689D03*
X0049895Y0116672D03*
X0009721Y0084979D03*
X0136045Y0175146D03*
D114*
X0139393Y0177825D03*
X0133143Y0113547D03*
X0130465Y0083194D03*
X0098326Y0072927D03*
X0078686Y0072927D03*
X0046100Y0066231D03*
X0013515Y0083194D03*
X0182244Y0059536D03*
D115*
X0190056Y0083640D03*
X0144972Y0129616D03*
X0130688Y0143454D03*
X0104798Y0145239D03*
X0120422Y0118011D03*
X0100781Y0113101D03*
X0105245Y0083640D03*
X0112387Y0079176D03*
X0130688Y0082301D03*
X0130688Y0082747D03*
X0139169Y0091675D03*
X0140508Y0061321D03*
X0073552Y0083640D03*
X0072213Y0082301D03*
X0046770Y0065785D03*
X0039182Y0125599D03*
X0020434Y0128724D03*
D116*
X0063732Y0118011D03*
X0092746Y0137651D03*
X0140955Y0092121D03*
X0140955Y0061768D03*
X0182914Y0134527D03*
X0111941Y0192555D03*
D117*
X0044538Y0123814D03*
X0063732Y0072927D03*
X0017756Y0062660D03*
X0123546Y0069356D03*
X0138276Y0089889D03*
X0182467Y0072927D03*
D118*
X0165059Y0072927D03*
X0161042Y0072927D03*
X0165059Y0089889D03*
X0141847Y0103280D03*
X0140062Y0109976D03*
X0129349Y0130509D03*
X0110601Y0089889D03*
X0114619Y0069356D03*
X0085605Y0079623D03*
X0066410Y0083194D03*
X0064625Y0103280D03*
X0077123Y0126938D03*
X0087390Y0123814D03*
X0037396Y0109976D03*
X0045877Y0072927D03*
X0043646Y0062660D03*
D119*
X0063509Y0062660D03*
X0117967Y0069356D03*
X0128233Y0117118D03*
X0071990Y0126938D03*
D120*
X0143633Y0062660D03*
D121*
X0144749Y0063107D03*
X0184922Y0080962D03*
X0144749Y0129170D03*
X0176441Y0151042D03*
X0138946Y0177378D03*
X0065741Y0112208D03*
X0059045Y0088104D03*
X0063956Y0185413D03*
D122*
X0107477Y0190769D03*
X0180682Y0121582D03*
X0186931Y0122921D03*
X0180682Y0077837D03*
X0186931Y0063107D03*
X0119975Y0093460D03*
X0113726Y0080962D03*
X0080248Y0064000D03*
X0059269Y0095692D03*
X0025791Y0065339D03*
X0019541Y0068463D03*
X0011060Y0073373D03*
X0011060Y0126045D03*
D123*
X0056144Y0064000D03*
X0137830Y0089443D03*
D124*
X0149436Y0066231D03*
X0096764Y0076498D03*
X0176665Y0137205D03*
X0189163Y0126938D03*
X0147204Y0180949D03*
X0122207Y0188091D03*
D125*
X0173986Y0149703D03*
X0042306Y0066678D03*
D126*
X0042307Y0067124D03*
X0062840Y0111315D03*
X0065518Y0116672D03*
X0123546Y0081855D03*
D127*
X0123546Y0081408D03*
X0086944Y0131848D03*
X0091854Y0135866D03*
X0086051Y0146132D03*
X0110155Y0136758D03*
X0057929Y0124260D03*
X0032933Y0155952D03*
X0041860Y0067571D03*
D128*
X0012176Y0083640D03*
X0072883Y0082747D03*
X0118859Y0067571D03*
X0138053Y0090782D03*
X0188047Y0080069D03*
D129*
X0133813Y0121135D03*
X0133367Y0122028D03*
X0090961Y0143454D03*
X0087836Y0132741D03*
X0063286Y0121135D03*
X0062839Y0122028D03*
X0063286Y0119350D03*
X0098996Y0074266D03*
X0041860Y0068017D03*
D130*
X0041637Y0068463D03*
X0063063Y0121582D03*
X0087167Y0130956D03*
D131*
X0134259Y0114440D03*
X0141401Y0093460D03*
X0180682Y0068463D03*
X0138723Y0176039D03*
X0015524Y0075605D03*
D132*
X0016417Y0080515D03*
X0014185Y0092121D03*
X0065071Y0113101D03*
X0088283Y0143008D03*
X0100781Y0109530D03*
X0111940Y0078284D03*
X0123546Y0078284D03*
X0122207Y0068910D03*
X0111048Y0181842D03*
X0111494Y0193448D03*
X0097657Y0189430D03*
X0097657Y0188984D03*
D133*
X0069982Y0133634D03*
X0069982Y0123814D03*
X0075784Y0103280D03*
X0092746Y0117118D03*
X0103459Y0106851D03*
X0103459Y0103280D03*
X0094532Y0086318D03*
X0061054Y0083194D03*
X0053019Y0089889D03*
X0046770Y0096585D03*
X0036057Y0096585D03*
X0036057Y0093014D03*
X0036504Y0089889D03*
X0040074Y0069356D03*
X0124439Y0120243D03*
X0132474Y0117118D03*
X0126224Y0133634D03*
X0155239Y0089889D03*
X0149436Y0079623D03*
X0147204Y0076498D03*
X0164166Y0069356D03*
D134*
X0090738Y0071588D03*
X0063509Y0070249D03*
X0053243Y0122921D03*
X0036280Y0126045D03*
X0080025Y0139437D03*
X0117520Y0148810D03*
X0117967Y0150150D03*
X0065295Y0186752D03*
D135*
X0066634Y0181396D03*
X0102344Y0122921D03*
X0129126Y0097478D03*
X0127787Y0094353D03*
X0143856Y0072481D03*
X0139839Y0070249D03*
X0098326Y0071588D03*
X0072436Y0081855D03*
X0066187Y0077837D03*
X0050118Y0111315D03*
X0037173Y0114440D03*
X0032709Y0112208D03*
X0012176Y0078730D03*
X0020657Y0072481D03*
X0177781Y0136312D03*
D136*
X0144079Y0105512D03*
X0118636Y0115779D03*
X0118636Y0116225D03*
X0098103Y0072034D03*
X0066410Y0078284D03*
X0039628Y0125153D03*
X0073106Y0142115D03*
D137*
X0064402Y0112654D03*
X0123323Y0080069D03*
X0185815Y0072034D03*
D138*
X0105691Y0074713D03*
D139*
X0120645Y0082747D03*
X0141624Y0093907D03*
X0134929Y0114886D03*
X0178673Y0135866D03*
X0138946Y0176932D03*
X0061277Y0122474D03*
X0059938Y0127385D03*
X0035834Y0112654D03*
X0017086Y0076052D03*
X0013962Y0075159D03*
D140*
X0105468Y0075159D03*
D141*
X0105022Y0075605D03*
D142*
X0104352Y0076052D03*
D143*
X0018425Y0076498D03*
D144*
X0066410Y0076498D03*
X0093639Y0126938D03*
X0124885Y0140776D03*
X0131581Y0140776D03*
X0144079Y0130509D03*
X0146311Y0103280D03*
X0064625Y0174254D03*
X0053912Y0180949D03*
D145*
X0108593Y0076498D03*
X0175549Y0150596D03*
D146*
X0112610Y0079623D03*
X0122877Y0076498D03*
X0096094Y0140776D03*
X0050118Y0113547D03*
X0037173Y0113547D03*
X0046101Y0171129D03*
D147*
X0132697Y0112654D03*
X0130465Y0083640D03*
X0109485Y0076944D03*
X0013515Y0079176D03*
D148*
X0014631Y0121135D03*
X0058822Y0125153D03*
X0058822Y0125599D03*
X0059269Y0126492D03*
X0063732Y0118903D03*
X0086944Y0131402D03*
X0111494Y0077391D03*
D149*
X0111717Y0077837D03*
D150*
X0106361Y0084086D03*
X0106361Y0114440D03*
X0066634Y0078730D03*
D151*
X0062840Y0117564D03*
X0056144Y0144793D03*
X0024451Y0148810D03*
X0112387Y0078730D03*
D152*
X0132920Y0113101D03*
X0130242Y0143008D03*
X0138723Y0176486D03*
X0067303Y0079176D03*
X0015078Y0082747D03*
X0029808Y0156845D03*
D153*
X0014631Y0079623D03*
D154*
X0017756Y0120243D03*
X0067303Y0079623D03*
X0103906Y0083194D03*
X0118636Y0117118D03*
X0131135Y0143900D03*
X0185146Y0117118D03*
D155*
X0123323Y0079623D03*
D156*
X0120198Y0083194D03*
X0188940Y0079623D03*
D157*
X0135821Y0088997D03*
X0127787Y0085426D03*
X0123323Y0080515D03*
X0101004Y0095246D03*
X0063956Y0111762D03*
X0025567Y0148364D03*
X0012622Y0090782D03*
X0015301Y0080069D03*
X0109932Y0137651D03*
D158*
X0092077Y0136312D03*
X0133590Y0121582D03*
X0123323Y0080962D03*
X0188047Y0084979D03*
D159*
X0188270Y0084086D03*
X0012399Y0090336D03*
D160*
X0065518Y0116225D03*
X0130688Y0084533D03*
D161*
X0092077Y0136758D03*
X0033156Y0155506D03*
X0188047Y0084533D03*
D162*
X0184476Y0133634D03*
X0127787Y0086318D03*
D163*
X0101004Y0095692D03*
X0066187Y0115332D03*
X0013069Y0091228D03*
D164*
X0013069Y0091675D03*
X0066187Y0115779D03*
X0099665Y0113993D03*
D165*
X0085381Y0093014D03*
X0175549Y0143900D03*
X0100112Y0194787D03*
D166*
X0133590Y0124706D03*
X0142071Y0094353D03*
D167*
X0042530Y0103280D03*
D168*
X0058153Y0105066D03*
X0091184Y0135419D03*
X0026907Y0147918D03*
D169*
X0058822Y0109530D03*
X0057929Y0105512D03*
D170*
X0057929Y0105959D03*
D171*
X0058153Y0106405D03*
D172*
X0057929Y0106851D03*
D173*
X0057929Y0107298D03*
D174*
X0058153Y0107744D03*
D175*
X0057706Y0108191D03*
D176*
X0057706Y0108637D03*
D177*
X0057483Y0109083D03*
D178*
X0058376Y0109976D03*
D179*
X0058599Y0110422D03*
D180*
X0062616Y0110869D03*
D181*
X0056144Y0145686D03*
X0118636Y0116672D03*
X0131581Y0112208D03*
X0135598Y0115332D03*
D182*
X0066410Y0113547D03*
D183*
X0063509Y0120243D03*
X0086274Y0130509D03*
X0088506Y0133634D03*
X0099219Y0113547D03*
D184*
X0066410Y0113993D03*
X0133366Y0122474D03*
D185*
X0066634Y0114440D03*
D186*
X0066634Y0114886D03*
D187*
X0063509Y0117118D03*
D188*
X0063286Y0119796D03*
X0063286Y0120689D03*
X0058822Y0126045D03*
X0033825Y0155060D03*
X0087836Y0133187D03*
X0133813Y0120689D03*
D189*
X0132474Y0120243D03*
D190*
X0110378Y0138544D03*
X0075561Y0189877D03*
X0020211Y0129170D03*
X0013962Y0121582D03*
D191*
X0133590Y0122921D03*
D192*
X0133366Y0123814D03*
X0091854Y0143900D03*
D193*
X0087390Y0132295D03*
X0085605Y0130063D03*
X0058376Y0124706D03*
D194*
X0089176Y0134080D03*
D195*
X0091184Y0134527D03*
D196*
X0091407Y0134973D03*
D197*
X0092300Y0137205D03*
D198*
X0109932Y0137205D03*
D199*
X0058153Y0143900D03*
D200*
X0083373Y0145239D03*
D201*
X0026683Y0147471D03*
D202*
X0174433Y0150150D03*
D203*
X0032486Y0156399D03*
D204*
X0028915Y0157292D03*
D205*
X0098103Y0188091D03*
D206*
X0113556Y0124367D02*
X0114256Y0125067D01*
X0113440Y0122895D01*
X0111329Y0121938D01*
X0109157Y0122754D01*
X0108200Y0124865D01*
X0109016Y0127037D01*
X0111127Y0127994D01*
X0113299Y0127178D01*
X0114256Y0125067D01*
X0113120Y0125029D01*
X0112610Y0123672D01*
X0111291Y0123074D01*
X0109934Y0123584D01*
X0109336Y0124903D01*
X0109846Y0126260D01*
X0111165Y0126858D01*
X0112522Y0126348D01*
X0113120Y0125029D01*
X0111984Y0124991D01*
X0111780Y0124448D01*
X0111253Y0124210D01*
X0110710Y0124414D01*
X0110472Y0124941D01*
X0110676Y0125484D01*
X0111203Y0125722D01*
X0111746Y0125518D01*
X0111984Y0124991D01*
D207*
X0140250Y0051500D03*
X0130250Y0036500D03*
D208*
X0135250Y0041500D01*
X0135250Y0046500D01*
X0140250Y0051500D01*
M02*
