G75*
%MOIN*%
%OFA0B0*%
%FSLAX25Y25*%
%IPPOS*%
%LPD*%
%AMOC8*
5,1,8,0,0,1.08239X$1,22.5*
%
%ADD10C,0.00197*%
%ADD11C,0.00800*%
%ADD12C,0.01600*%
%ADD13C,0.01000*%
%ADD14C,0.00500*%
%ADD15C,0.00600*%
%ADD16C,0.00200*%
D10*
X0003144Y0099925D02*
X0003174Y0102331D01*
X0003262Y0104735D01*
X0003410Y0107137D01*
X0003616Y0109534D01*
X0003881Y0111925D01*
X0004205Y0114309D01*
X0004587Y0116685D01*
X0005028Y0119050D01*
X0005526Y0121404D01*
X0006082Y0123745D01*
X0006695Y0126071D01*
X0007365Y0128382D01*
X0008092Y0130676D01*
X0008874Y0132951D01*
X0009713Y0135206D01*
X0010606Y0137440D01*
X0011554Y0139651D01*
X0012556Y0141839D01*
X0013611Y0144001D01*
X0014719Y0146136D01*
X0015880Y0148244D01*
X0017091Y0150323D01*
X0018353Y0152371D01*
X0019665Y0154388D01*
X0021026Y0156372D01*
X0022436Y0158322D01*
X0023893Y0160237D01*
X0025396Y0162115D01*
X0026945Y0163956D01*
X0028539Y0165759D01*
X0030176Y0167521D01*
X0031857Y0169243D01*
X0033579Y0170924D01*
X0035341Y0172561D01*
X0037144Y0174155D01*
X0038985Y0175704D01*
X0040863Y0177207D01*
X0042778Y0178664D01*
X0044728Y0180074D01*
X0046712Y0181435D01*
X0048729Y0182747D01*
X0050777Y0184009D01*
X0052856Y0185220D01*
X0054964Y0186381D01*
X0057099Y0187489D01*
X0059261Y0188544D01*
X0061449Y0189546D01*
X0063660Y0190494D01*
X0065894Y0191387D01*
X0068149Y0192226D01*
X0070424Y0193008D01*
X0072718Y0193735D01*
X0075029Y0194405D01*
X0077355Y0195018D01*
X0079696Y0195574D01*
X0082050Y0196072D01*
X0084415Y0196513D01*
X0086791Y0196895D01*
X0089175Y0197219D01*
X0091566Y0197484D01*
X0093963Y0197690D01*
X0096365Y0197838D01*
X0098769Y0197926D01*
X0101175Y0197956D01*
X0103581Y0197926D01*
X0105985Y0197838D01*
X0108387Y0197690D01*
X0110784Y0197484D01*
X0113175Y0197219D01*
X0115559Y0196895D01*
X0117935Y0196513D01*
X0120300Y0196072D01*
X0122654Y0195574D01*
X0124995Y0195018D01*
X0127321Y0194405D01*
X0129632Y0193735D01*
X0131926Y0193008D01*
X0134201Y0192226D01*
X0136456Y0191387D01*
X0138690Y0190494D01*
X0140901Y0189546D01*
X0143089Y0188544D01*
X0145251Y0187489D01*
X0147386Y0186381D01*
X0149494Y0185220D01*
X0151573Y0184009D01*
X0153621Y0182747D01*
X0155638Y0181435D01*
X0157622Y0180074D01*
X0159572Y0178664D01*
X0161487Y0177207D01*
X0163365Y0175704D01*
X0165206Y0174155D01*
X0167009Y0172561D01*
X0168771Y0170924D01*
X0170493Y0169243D01*
X0172174Y0167521D01*
X0173811Y0165759D01*
X0175405Y0163956D01*
X0176954Y0162115D01*
X0178457Y0160237D01*
X0179914Y0158322D01*
X0181324Y0156372D01*
X0182685Y0154388D01*
X0183997Y0152371D01*
X0185259Y0150323D01*
X0186470Y0148244D01*
X0187631Y0146136D01*
X0188739Y0144001D01*
X0189794Y0141839D01*
X0190796Y0139651D01*
X0191744Y0137440D01*
X0192637Y0135206D01*
X0193476Y0132951D01*
X0194258Y0130676D01*
X0194985Y0128382D01*
X0195655Y0126071D01*
X0196268Y0123745D01*
X0196824Y0121404D01*
X0197322Y0119050D01*
X0197763Y0116685D01*
X0198145Y0114309D01*
X0198469Y0111925D01*
X0198734Y0109534D01*
X0198940Y0107137D01*
X0199088Y0104735D01*
X0199176Y0102331D01*
X0199206Y0099925D01*
X0199176Y0097519D01*
X0199088Y0095115D01*
X0198940Y0092713D01*
X0198734Y0090316D01*
X0198469Y0087925D01*
X0198145Y0085541D01*
X0197763Y0083165D01*
X0197322Y0080800D01*
X0196824Y0078446D01*
X0196268Y0076105D01*
X0195655Y0073779D01*
X0194985Y0071468D01*
X0194258Y0069174D01*
X0193476Y0066899D01*
X0192637Y0064644D01*
X0191744Y0062410D01*
X0190796Y0060199D01*
X0189794Y0058011D01*
X0188739Y0055849D01*
X0187631Y0053714D01*
X0186470Y0051606D01*
X0185259Y0049527D01*
X0183997Y0047479D01*
X0182685Y0045462D01*
X0181324Y0043478D01*
X0179914Y0041528D01*
X0178457Y0039613D01*
X0176954Y0037735D01*
X0175405Y0035894D01*
X0173811Y0034091D01*
X0172174Y0032329D01*
X0170493Y0030607D01*
X0168771Y0028926D01*
X0167009Y0027289D01*
X0165206Y0025695D01*
X0163365Y0024146D01*
X0161487Y0022643D01*
X0159572Y0021186D01*
X0157622Y0019776D01*
X0155638Y0018415D01*
X0153621Y0017103D01*
X0151573Y0015841D01*
X0149494Y0014630D01*
X0147386Y0013469D01*
X0145251Y0012361D01*
X0143089Y0011306D01*
X0140901Y0010304D01*
X0138690Y0009356D01*
X0136456Y0008463D01*
X0134201Y0007624D01*
X0131926Y0006842D01*
X0129632Y0006115D01*
X0127321Y0005445D01*
X0124995Y0004832D01*
X0122654Y0004276D01*
X0120300Y0003778D01*
X0117935Y0003337D01*
X0115559Y0002955D01*
X0113175Y0002631D01*
X0110784Y0002366D01*
X0108387Y0002160D01*
X0105985Y0002012D01*
X0103581Y0001924D01*
X0101175Y0001894D01*
X0098769Y0001924D01*
X0096365Y0002012D01*
X0093963Y0002160D01*
X0091566Y0002366D01*
X0089175Y0002631D01*
X0086791Y0002955D01*
X0084415Y0003337D01*
X0082050Y0003778D01*
X0079696Y0004276D01*
X0077355Y0004832D01*
X0075029Y0005445D01*
X0072718Y0006115D01*
X0070424Y0006842D01*
X0068149Y0007624D01*
X0065894Y0008463D01*
X0063660Y0009356D01*
X0061449Y0010304D01*
X0059261Y0011306D01*
X0057099Y0012361D01*
X0054964Y0013469D01*
X0052856Y0014630D01*
X0050777Y0015841D01*
X0048729Y0017103D01*
X0046712Y0018415D01*
X0044728Y0019776D01*
X0042778Y0021186D01*
X0040863Y0022643D01*
X0038985Y0024146D01*
X0037144Y0025695D01*
X0035341Y0027289D01*
X0033579Y0028926D01*
X0031857Y0030607D01*
X0030176Y0032329D01*
X0028539Y0034091D01*
X0026945Y0035894D01*
X0025396Y0037735D01*
X0023893Y0039613D01*
X0022436Y0041528D01*
X0021026Y0043478D01*
X0019665Y0045462D01*
X0018353Y0047479D01*
X0017091Y0049527D01*
X0015880Y0051606D01*
X0014719Y0053714D01*
X0013611Y0055849D01*
X0012556Y0058011D01*
X0011554Y0060199D01*
X0010606Y0062410D01*
X0009713Y0064644D01*
X0008874Y0066899D01*
X0008092Y0069174D01*
X0007365Y0071468D01*
X0006695Y0073779D01*
X0006082Y0076105D01*
X0005526Y0078446D01*
X0005028Y0080800D01*
X0004587Y0083165D01*
X0004205Y0085541D01*
X0003881Y0087925D01*
X0003616Y0090316D01*
X0003410Y0092713D01*
X0003262Y0095115D01*
X0003174Y0097519D01*
X0003144Y0099925D01*
D11*
X0031684Y0156713D02*
X0035554Y0156713D01*
X0031684Y0160583D01*
X0031684Y0161550D01*
X0032652Y0162518D01*
X0034587Y0162518D01*
X0035554Y0161550D01*
X0037762Y0161550D02*
X0038729Y0162518D01*
X0040664Y0162518D01*
X0041631Y0161550D01*
X0041631Y0160583D01*
X0040664Y0159615D01*
X0038729Y0159615D01*
X0037762Y0158648D01*
X0037762Y0157680D01*
X0038729Y0156713D01*
X0040664Y0156713D01*
X0041631Y0157680D01*
X0077482Y0180119D02*
X0081352Y0180119D01*
X0079417Y0180119D02*
X0079417Y0185923D01*
X0081352Y0183988D01*
X0083559Y0184956D02*
X0084526Y0185923D01*
X0086461Y0185923D01*
X0087429Y0184956D01*
X0087429Y0183988D01*
X0086461Y0183021D01*
X0084526Y0183021D01*
X0083559Y0182053D01*
X0083559Y0181086D01*
X0084526Y0180119D01*
X0086461Y0180119D01*
X0087429Y0181086D01*
X0129637Y0155276D02*
X0133507Y0155276D01*
X0131572Y0155276D02*
X0131572Y0161081D01*
X0133507Y0159146D01*
X0135714Y0161081D02*
X0137649Y0161081D01*
X0136682Y0161081D02*
X0136682Y0156243D01*
X0137649Y0155276D01*
X0138617Y0155276D01*
X0139584Y0156243D01*
X0145887Y0155276D02*
X0149757Y0155276D01*
X0145887Y0159146D01*
X0145887Y0160113D01*
X0146855Y0161081D01*
X0148790Y0161081D01*
X0149757Y0160113D01*
X0151964Y0161081D02*
X0153899Y0161081D01*
X0152932Y0161081D02*
X0152932Y0156243D01*
X0153899Y0155276D01*
X0154867Y0155276D01*
X0155834Y0156243D01*
X0153400Y0163439D02*
X0147100Y0163439D01*
X0147100Y0163438D02*
X0147041Y0163452D01*
X0146983Y0163469D01*
X0146926Y0163490D01*
X0146870Y0163514D01*
X0146816Y0163542D01*
X0146764Y0163572D01*
X0146713Y0163606D01*
X0146665Y0163643D01*
X0146619Y0163682D01*
X0146576Y0163725D01*
X0146535Y0163769D01*
X0146497Y0163817D01*
X0146462Y0163866D01*
X0146430Y0163918D01*
X0146401Y0163971D01*
X0146375Y0164026D01*
X0146353Y0164082D01*
X0146334Y0164140D01*
X0146318Y0164199D01*
X0146307Y0164258D01*
X0146298Y0164318D01*
X0146294Y0164379D01*
X0146293Y0164439D01*
X0146296Y0164500D01*
X0146302Y0164560D01*
X0146312Y0164620D01*
X0146312Y0170132D02*
X0146302Y0170192D01*
X0146296Y0170252D01*
X0146293Y0170313D01*
X0146294Y0170373D01*
X0146298Y0170434D01*
X0146307Y0170494D01*
X0146318Y0170553D01*
X0146334Y0170612D01*
X0146353Y0170670D01*
X0146375Y0170726D01*
X0146401Y0170781D01*
X0146430Y0170834D01*
X0146462Y0170886D01*
X0146497Y0170935D01*
X0146535Y0170983D01*
X0146576Y0171027D01*
X0146619Y0171070D01*
X0146665Y0171109D01*
X0146713Y0171146D01*
X0146764Y0171180D01*
X0146816Y0171210D01*
X0146870Y0171238D01*
X0146926Y0171262D01*
X0146983Y0171283D01*
X0147041Y0171300D01*
X0147100Y0171314D01*
X0147100Y0171313D02*
X0153400Y0171313D01*
X0153400Y0171314D02*
X0153459Y0171300D01*
X0153517Y0171283D01*
X0153574Y0171262D01*
X0153630Y0171238D01*
X0153684Y0171210D01*
X0153736Y0171180D01*
X0153787Y0171146D01*
X0153835Y0171109D01*
X0153881Y0171070D01*
X0153924Y0171027D01*
X0153965Y0170983D01*
X0154003Y0170935D01*
X0154038Y0170886D01*
X0154070Y0170834D01*
X0154099Y0170781D01*
X0154125Y0170726D01*
X0154147Y0170670D01*
X0154166Y0170612D01*
X0154182Y0170553D01*
X0154193Y0170494D01*
X0154202Y0170434D01*
X0154206Y0170373D01*
X0154207Y0170313D01*
X0154204Y0170252D01*
X0154198Y0170192D01*
X0154188Y0170132D01*
X0154188Y0164620D02*
X0154198Y0164560D01*
X0154204Y0164500D01*
X0154207Y0164439D01*
X0154206Y0164379D01*
X0154202Y0164318D01*
X0154193Y0164258D01*
X0154182Y0164199D01*
X0154166Y0164140D01*
X0154147Y0164082D01*
X0154125Y0164026D01*
X0154099Y0163971D01*
X0154070Y0163918D01*
X0154038Y0163866D01*
X0154003Y0163817D01*
X0153965Y0163769D01*
X0153924Y0163725D01*
X0153881Y0163682D01*
X0153835Y0163643D01*
X0153787Y0163606D01*
X0153736Y0163572D01*
X0153684Y0163542D01*
X0153630Y0163514D01*
X0153574Y0163490D01*
X0153517Y0163469D01*
X0153459Y0163452D01*
X0153400Y0163438D01*
X0137150Y0163439D02*
X0130850Y0163439D01*
X0130850Y0163438D02*
X0130791Y0163452D01*
X0130733Y0163469D01*
X0130676Y0163490D01*
X0130620Y0163514D01*
X0130566Y0163542D01*
X0130514Y0163572D01*
X0130463Y0163606D01*
X0130415Y0163643D01*
X0130369Y0163682D01*
X0130326Y0163725D01*
X0130285Y0163769D01*
X0130247Y0163817D01*
X0130212Y0163866D01*
X0130180Y0163918D01*
X0130151Y0163971D01*
X0130125Y0164026D01*
X0130103Y0164082D01*
X0130084Y0164140D01*
X0130068Y0164199D01*
X0130057Y0164258D01*
X0130048Y0164318D01*
X0130044Y0164379D01*
X0130043Y0164439D01*
X0130046Y0164500D01*
X0130052Y0164560D01*
X0130062Y0164620D01*
X0130062Y0170132D02*
X0130052Y0170192D01*
X0130046Y0170252D01*
X0130043Y0170313D01*
X0130044Y0170373D01*
X0130048Y0170434D01*
X0130057Y0170494D01*
X0130068Y0170553D01*
X0130084Y0170612D01*
X0130103Y0170670D01*
X0130125Y0170726D01*
X0130151Y0170781D01*
X0130180Y0170834D01*
X0130212Y0170886D01*
X0130247Y0170935D01*
X0130285Y0170983D01*
X0130326Y0171027D01*
X0130369Y0171070D01*
X0130415Y0171109D01*
X0130463Y0171146D01*
X0130514Y0171180D01*
X0130566Y0171210D01*
X0130620Y0171238D01*
X0130676Y0171262D01*
X0130733Y0171283D01*
X0130791Y0171300D01*
X0130850Y0171314D01*
X0130850Y0171313D02*
X0137150Y0171313D01*
X0137150Y0171314D02*
X0137209Y0171300D01*
X0137267Y0171283D01*
X0137324Y0171262D01*
X0137380Y0171238D01*
X0137434Y0171210D01*
X0137486Y0171180D01*
X0137537Y0171146D01*
X0137585Y0171109D01*
X0137631Y0171070D01*
X0137674Y0171027D01*
X0137715Y0170983D01*
X0137753Y0170935D01*
X0137788Y0170886D01*
X0137820Y0170834D01*
X0137849Y0170781D01*
X0137875Y0170726D01*
X0137897Y0170670D01*
X0137916Y0170612D01*
X0137932Y0170553D01*
X0137943Y0170494D01*
X0137952Y0170434D01*
X0137956Y0170373D01*
X0137957Y0170313D01*
X0137954Y0170252D01*
X0137948Y0170192D01*
X0137938Y0170132D01*
X0137938Y0164620D02*
X0137948Y0164560D01*
X0137954Y0164500D01*
X0137957Y0164439D01*
X0137956Y0164379D01*
X0137952Y0164318D01*
X0137943Y0164258D01*
X0137932Y0164199D01*
X0137916Y0164140D01*
X0137897Y0164082D01*
X0137875Y0164026D01*
X0137849Y0163971D01*
X0137820Y0163918D01*
X0137788Y0163866D01*
X0137753Y0163817D01*
X0137715Y0163769D01*
X0137674Y0163725D01*
X0137631Y0163682D01*
X0137585Y0163643D01*
X0137537Y0163606D01*
X0137486Y0163572D01*
X0137434Y0163542D01*
X0137380Y0163514D01*
X0137324Y0163490D01*
X0137267Y0163469D01*
X0137209Y0163452D01*
X0137150Y0163438D01*
X0142120Y0138955D02*
X0144055Y0138955D01*
X0145023Y0137987D01*
X0147230Y0137987D02*
X0148198Y0138955D01*
X0150133Y0138955D01*
X0151100Y0137987D01*
X0151100Y0134117D01*
X0150133Y0133150D01*
X0148198Y0133150D01*
X0147230Y0134117D01*
X0145023Y0133150D02*
X0141153Y0137020D01*
X0141153Y0137987D01*
X0142120Y0138955D01*
X0141153Y0133150D02*
X0145023Y0133150D01*
X0135116Y0113955D02*
X0132213Y0113955D01*
X0131246Y0112987D01*
X0131246Y0111052D01*
X0132213Y0110085D01*
X0135116Y0110085D01*
X0135116Y0108150D02*
X0135116Y0113955D01*
X0133181Y0110085D02*
X0131246Y0108150D01*
X0129039Y0109117D02*
X0128071Y0108150D01*
X0126136Y0108150D01*
X0125169Y0109117D01*
X0125169Y0110085D01*
X0126136Y0111052D01*
X0127104Y0111052D01*
X0126136Y0111052D02*
X0125169Y0112020D01*
X0125169Y0112987D01*
X0126136Y0113955D01*
X0128071Y0113955D01*
X0129039Y0112987D01*
X0127214Y0118727D02*
X0124616Y0117432D01*
X0123319Y0117866D01*
X0121592Y0121329D01*
X0122026Y0122627D01*
X0124623Y0123922D01*
X0127214Y0118727D01*
X0121775Y0116015D02*
X0118312Y0114288D01*
X0120043Y0115152D02*
X0117453Y0120347D01*
X0120048Y0119478D01*
X0126136Y0098955D02*
X0125169Y0097987D01*
X0125169Y0097020D01*
X0129039Y0093150D01*
X0125169Y0093150D01*
X0126136Y0098955D02*
X0128071Y0098955D01*
X0129039Y0097987D01*
X0131246Y0097987D02*
X0131246Y0096052D01*
X0132213Y0095085D01*
X0135116Y0095085D01*
X0135116Y0093150D02*
X0135116Y0098955D01*
X0132213Y0098955D01*
X0131246Y0097987D01*
X0133181Y0095085D02*
X0131246Y0093150D01*
X0132213Y0083955D02*
X0131246Y0082987D01*
X0131246Y0081052D01*
X0132213Y0080085D01*
X0135116Y0080085D01*
X0135116Y0078150D02*
X0135116Y0083955D01*
X0132213Y0083955D01*
X0129039Y0082020D02*
X0127104Y0083955D01*
X0127104Y0078150D01*
X0129039Y0078150D02*
X0125169Y0078150D01*
X0131246Y0078150D02*
X0133181Y0080085D01*
X0134148Y0068955D02*
X0132213Y0068955D01*
X0131246Y0067987D01*
X0129039Y0067020D02*
X0127104Y0068955D01*
X0127104Y0063150D01*
X0129039Y0063150D02*
X0125169Y0063150D01*
X0131246Y0064117D02*
X0132213Y0063150D01*
X0134148Y0063150D01*
X0135116Y0064117D01*
X0135116Y0067987D01*
X0134148Y0068955D01*
X0151249Y0048220D02*
X0155119Y0048220D01*
X0158294Y0049187D02*
X0160229Y0049187D01*
X0161196Y0050155D01*
X0161196Y0052090D01*
X0160229Y0053057D01*
X0158294Y0053057D01*
X0157326Y0052090D01*
X0157326Y0051122D01*
X0161196Y0051122D01*
X0163403Y0051122D02*
X0167273Y0051122D01*
X0167273Y0050155D02*
X0167273Y0052090D01*
X0166306Y0053057D01*
X0164371Y0053057D01*
X0163403Y0052090D01*
X0163403Y0051122D01*
X0164371Y0049187D02*
X0166306Y0049187D01*
X0167273Y0050155D01*
X0169435Y0053057D02*
X0170403Y0053057D01*
X0172338Y0051122D01*
X0172338Y0049187D02*
X0172338Y0053057D01*
X0174545Y0054992D02*
X0178415Y0054992D01*
X0178415Y0049187D01*
X0178415Y0052090D02*
X0176480Y0052090D01*
X0178415Y0059087D02*
X0178415Y0064892D01*
X0175512Y0064892D01*
X0174545Y0063925D01*
X0174545Y0061990D01*
X0175512Y0061022D01*
X0178415Y0061022D01*
X0172338Y0059087D02*
X0169435Y0059087D01*
X0168468Y0060055D01*
X0168468Y0061990D01*
X0169435Y0062957D01*
X0172338Y0062957D01*
X0172338Y0064892D02*
X0172338Y0059087D01*
X0166261Y0061990D02*
X0162391Y0061990D01*
X0158600Y0037705D02*
X0155698Y0037705D01*
X0154730Y0036737D01*
X0154730Y0034802D01*
X0155698Y0033835D01*
X0158600Y0033835D01*
X0156665Y0033835D02*
X0154730Y0031900D01*
X0152523Y0034802D02*
X0148653Y0034802D01*
X0149620Y0031900D02*
X0149620Y0037705D01*
X0152523Y0034802D01*
X0158600Y0031900D02*
X0158600Y0037705D01*
X0172101Y0098150D02*
X0175971Y0098150D01*
X0174036Y0098150D02*
X0174036Y0103955D01*
X0175971Y0102020D01*
X0178179Y0102987D02*
X0179146Y0103955D01*
X0181081Y0103955D01*
X0182049Y0102987D01*
X0182049Y0099117D01*
X0181081Y0098150D01*
X0179146Y0098150D01*
X0178179Y0099117D01*
X0184165Y0098150D02*
X0186100Y0098150D01*
X0185133Y0098150D02*
X0185133Y0103955D01*
X0186100Y0103955D02*
X0184165Y0103955D01*
X0043600Y0043955D02*
X0043600Y0038150D01*
X0043600Y0041052D02*
X0039730Y0041052D01*
X0037523Y0042020D02*
X0035588Y0043955D01*
X0035588Y0038150D01*
X0037523Y0038150D02*
X0033653Y0038150D01*
X0039730Y0038150D02*
X0039730Y0043955D01*
D12*
X0039916Y0125050D02*
X0038681Y0125050D01*
X0038681Y0126284D01*
X0039916Y0126284D01*
X0039916Y0125050D01*
X0035772Y0126284D02*
X0035772Y0128753D01*
X0034538Y0129988D01*
X0030835Y0129988D01*
X0027485Y0128753D02*
X0027485Y0126284D01*
X0026251Y0125050D01*
X0023782Y0125050D01*
X0022548Y0126284D01*
X0022548Y0128753D01*
X0023782Y0129988D01*
X0026251Y0129988D01*
X0027485Y0128753D01*
X0030835Y0125050D02*
X0034538Y0125050D01*
X0035772Y0126284D01*
X0043265Y0131222D02*
X0048203Y0126284D01*
X0048203Y0125050D01*
X0051552Y0126284D02*
X0051552Y0127519D01*
X0052787Y0128753D01*
X0054021Y0128753D01*
X0052787Y0128753D02*
X0051552Y0129988D01*
X0051552Y0131222D01*
X0052787Y0132456D01*
X0055255Y0132456D01*
X0056490Y0131222D01*
X0056490Y0126284D02*
X0055255Y0125050D01*
X0052787Y0125050D01*
X0051552Y0126284D01*
X0048203Y0132456D02*
X0043265Y0132456D01*
X0043265Y0131222D01*
X0059839Y0125050D02*
X0064777Y0125050D01*
X0062308Y0125050D02*
X0062308Y0132456D01*
X0064777Y0129988D01*
X0068126Y0128753D02*
X0068126Y0126284D01*
X0069361Y0125050D01*
X0071830Y0125050D01*
X0073064Y0126284D01*
X0073064Y0128753D02*
X0070595Y0129988D01*
X0069361Y0129988D01*
X0068126Y0128753D01*
X0068126Y0132456D02*
X0073064Y0132456D01*
X0073064Y0128753D01*
X0076414Y0128753D02*
X0076414Y0125050D01*
X0078882Y0125050D02*
X0078882Y0128753D01*
X0077648Y0129988D01*
X0076414Y0128753D01*
X0078882Y0128753D02*
X0080117Y0129988D01*
X0081351Y0129988D01*
X0081351Y0125050D01*
X0084701Y0125050D02*
X0088404Y0125050D01*
X0089638Y0126284D01*
X0088404Y0127519D01*
X0084701Y0127519D01*
X0084701Y0128753D02*
X0084701Y0125050D01*
X0084701Y0128753D02*
X0085935Y0129988D01*
X0088404Y0129988D01*
X0092988Y0128753D02*
X0092988Y0127519D01*
X0097925Y0127519D01*
X0097925Y0128753D02*
X0096691Y0129988D01*
X0094222Y0129988D01*
X0092988Y0128753D01*
X0094222Y0125050D02*
X0096691Y0125050D01*
X0097925Y0126284D01*
X0097925Y0128753D01*
X0100981Y0129988D02*
X0103450Y0129988D01*
X0102216Y0131222D02*
X0102216Y0126284D01*
X0100981Y0125050D01*
X0019198Y0125050D02*
X0019198Y0129988D01*
X0017964Y0129988D01*
X0016729Y0128753D01*
X0015495Y0129988D01*
X0014260Y0128753D01*
X0014260Y0125050D01*
X0016729Y0125050D02*
X0016729Y0128753D01*
D13*
X0002750Y0001500D02*
X0001500Y0001500D01*
X0049000Y0157750D02*
X0066500Y0157750D01*
X0066500Y0161500D01*
X0069000Y0161500D01*
X0069000Y0157750D01*
X0066500Y0157750D01*
X0065250Y0171500D02*
X0047750Y0161500D01*
X0047000Y0160250D02*
X0047002Y0160339D01*
X0047008Y0160428D01*
X0047018Y0160517D01*
X0047032Y0160605D01*
X0047049Y0160692D01*
X0047071Y0160778D01*
X0047097Y0160864D01*
X0047126Y0160948D01*
X0047159Y0161031D01*
X0047195Y0161112D01*
X0047236Y0161192D01*
X0047279Y0161269D01*
X0047326Y0161345D01*
X0047377Y0161418D01*
X0047430Y0161489D01*
X0047487Y0161558D01*
X0047547Y0161624D01*
X0047610Y0161688D01*
X0047675Y0161748D01*
X0047743Y0161806D01*
X0047814Y0161860D01*
X0047887Y0161911D01*
X0047962Y0161959D01*
X0048039Y0162004D01*
X0048118Y0162045D01*
X0048199Y0162082D01*
X0048281Y0162116D01*
X0048365Y0162147D01*
X0048450Y0162173D01*
X0048536Y0162196D01*
X0048623Y0162214D01*
X0048711Y0162229D01*
X0048800Y0162240D01*
X0048889Y0162247D01*
X0048978Y0162250D01*
X0049067Y0162249D01*
X0049156Y0162244D01*
X0049244Y0162235D01*
X0049333Y0162222D01*
X0049420Y0162205D01*
X0049507Y0162185D01*
X0049593Y0162160D01*
X0049677Y0162132D01*
X0049760Y0162100D01*
X0049842Y0162064D01*
X0049922Y0162025D01*
X0050000Y0161982D01*
X0050076Y0161936D01*
X0050150Y0161886D01*
X0050222Y0161833D01*
X0050291Y0161777D01*
X0050358Y0161718D01*
X0050422Y0161656D01*
X0050483Y0161592D01*
X0050542Y0161524D01*
X0050597Y0161454D01*
X0050649Y0161382D01*
X0050698Y0161307D01*
X0050743Y0161231D01*
X0050785Y0161152D01*
X0050823Y0161072D01*
X0050858Y0160990D01*
X0050889Y0160906D01*
X0050917Y0160821D01*
X0050940Y0160735D01*
X0050960Y0160648D01*
X0050976Y0160561D01*
X0050988Y0160472D01*
X0050996Y0160384D01*
X0051000Y0160295D01*
X0051000Y0160205D01*
X0050996Y0160116D01*
X0050988Y0160028D01*
X0050976Y0159939D01*
X0050960Y0159852D01*
X0050940Y0159765D01*
X0050917Y0159679D01*
X0050889Y0159594D01*
X0050858Y0159510D01*
X0050823Y0159428D01*
X0050785Y0159348D01*
X0050743Y0159269D01*
X0050698Y0159193D01*
X0050649Y0159118D01*
X0050597Y0159046D01*
X0050542Y0158976D01*
X0050483Y0158908D01*
X0050422Y0158844D01*
X0050358Y0158782D01*
X0050291Y0158723D01*
X0050222Y0158667D01*
X0050150Y0158614D01*
X0050076Y0158564D01*
X0050000Y0158518D01*
X0049922Y0158475D01*
X0049842Y0158436D01*
X0049760Y0158400D01*
X0049677Y0158368D01*
X0049593Y0158340D01*
X0049507Y0158315D01*
X0049420Y0158295D01*
X0049333Y0158278D01*
X0049244Y0158265D01*
X0049156Y0158256D01*
X0049067Y0158251D01*
X0048978Y0158250D01*
X0048889Y0158253D01*
X0048800Y0158260D01*
X0048711Y0158271D01*
X0048623Y0158286D01*
X0048536Y0158304D01*
X0048450Y0158327D01*
X0048365Y0158353D01*
X0048281Y0158384D01*
X0048199Y0158418D01*
X0048118Y0158455D01*
X0048039Y0158496D01*
X0047962Y0158541D01*
X0047887Y0158589D01*
X0047814Y0158640D01*
X0047743Y0158694D01*
X0047675Y0158752D01*
X0047610Y0158812D01*
X0047547Y0158876D01*
X0047487Y0158942D01*
X0047430Y0159011D01*
X0047377Y0159082D01*
X0047326Y0159155D01*
X0047279Y0159231D01*
X0047236Y0159308D01*
X0047195Y0159388D01*
X0047159Y0159469D01*
X0047126Y0159552D01*
X0047097Y0159636D01*
X0047071Y0159722D01*
X0047049Y0159808D01*
X0047032Y0159895D01*
X0047018Y0159983D01*
X0047008Y0160072D01*
X0047002Y0160161D01*
X0047000Y0160250D01*
D14*
X0113294Y0120413D02*
X0114120Y0118591D01*
X0115941Y0119417D01*
X0114120Y0118591D02*
X0112298Y0117765D01*
X0114120Y0118591D02*
X0114946Y0116770D01*
X0144500Y0124750D02*
X0146500Y0124750D01*
X0148500Y0124750D01*
X0146500Y0124750D02*
X0146500Y0130750D01*
X0144500Y0130750D01*
X0146500Y0130750D02*
X0148500Y0130750D01*
X0121231Y0085561D02*
X0122391Y0067570D01*
X0102391Y0032929D01*
X0086231Y0024939D01*
X0122260Y0044000D02*
X0122262Y0044144D01*
X0122268Y0044287D01*
X0122278Y0044430D01*
X0122292Y0044573D01*
X0122310Y0044716D01*
X0122331Y0044858D01*
X0122357Y0044999D01*
X0122387Y0045140D01*
X0122420Y0045280D01*
X0122458Y0045418D01*
X0122499Y0045556D01*
X0122544Y0045692D01*
X0122592Y0045827D01*
X0122645Y0045961D01*
X0122701Y0046093D01*
X0122761Y0046224D01*
X0122824Y0046353D01*
X0122891Y0046480D01*
X0122961Y0046605D01*
X0123035Y0046729D01*
X0123112Y0046850D01*
X0123193Y0046969D01*
X0123277Y0047085D01*
X0123364Y0047200D01*
X0123454Y0047312D01*
X0123547Y0047421D01*
X0123643Y0047528D01*
X0123742Y0047632D01*
X0123844Y0047733D01*
X0123949Y0047831D01*
X0124056Y0047927D01*
X0124166Y0048019D01*
X0124279Y0048108D01*
X0124394Y0048195D01*
X0124511Y0048278D01*
X0124630Y0048357D01*
X0124752Y0048434D01*
X0124876Y0048507D01*
X0125001Y0048576D01*
X0125129Y0048642D01*
X0125258Y0048705D01*
X0125389Y0048763D01*
X0125522Y0048819D01*
X0125656Y0048870D01*
X0125792Y0048918D01*
X0125928Y0048962D01*
X0126066Y0049002D01*
X0126205Y0049039D01*
X0126345Y0049071D01*
X0126486Y0049100D01*
X0126627Y0049124D01*
X0126770Y0049145D01*
X0126912Y0049162D01*
X0127055Y0049175D01*
X0127199Y0049184D01*
X0127342Y0049189D01*
X0127486Y0049190D01*
X0127630Y0049187D01*
X0127773Y0049180D01*
X0127916Y0049169D01*
X0128059Y0049154D01*
X0128202Y0049135D01*
X0128343Y0049113D01*
X0128485Y0049086D01*
X0128625Y0049055D01*
X0128764Y0049021D01*
X0128903Y0048983D01*
X0129040Y0048940D01*
X0129176Y0048895D01*
X0129311Y0048845D01*
X0129444Y0048791D01*
X0129576Y0048734D01*
X0129706Y0048674D01*
X0129835Y0048610D01*
X0129962Y0048542D01*
X0130086Y0048471D01*
X0130209Y0048396D01*
X0130330Y0048318D01*
X0130448Y0048236D01*
X0130564Y0048152D01*
X0130678Y0048064D01*
X0130789Y0047973D01*
X0130898Y0047879D01*
X0131004Y0047782D01*
X0131107Y0047683D01*
X0131208Y0047580D01*
X0131305Y0047475D01*
X0131400Y0047367D01*
X0131492Y0047256D01*
X0131580Y0047143D01*
X0131666Y0047027D01*
X0131748Y0046909D01*
X0131827Y0046789D01*
X0131902Y0046667D01*
X0131974Y0046543D01*
X0132043Y0046417D01*
X0132108Y0046289D01*
X0132170Y0046159D01*
X0132228Y0046028D01*
X0132282Y0045895D01*
X0132332Y0045760D01*
X0132379Y0045624D01*
X0132422Y0045487D01*
X0132462Y0045349D01*
X0132497Y0045210D01*
X0132529Y0045070D01*
X0132556Y0044929D01*
X0132580Y0044787D01*
X0132600Y0044645D01*
X0132616Y0044502D01*
X0132628Y0044359D01*
X0132636Y0044215D01*
X0132640Y0044072D01*
X0132640Y0043928D01*
X0132636Y0043785D01*
X0132628Y0043641D01*
X0132616Y0043498D01*
X0132600Y0043355D01*
X0132580Y0043213D01*
X0132556Y0043071D01*
X0132529Y0042930D01*
X0132497Y0042790D01*
X0132462Y0042651D01*
X0132422Y0042513D01*
X0132379Y0042376D01*
X0132332Y0042240D01*
X0132282Y0042105D01*
X0132228Y0041972D01*
X0132170Y0041841D01*
X0132108Y0041711D01*
X0132043Y0041583D01*
X0131974Y0041457D01*
X0131902Y0041333D01*
X0131827Y0041211D01*
X0131748Y0041091D01*
X0131666Y0040973D01*
X0131580Y0040857D01*
X0131492Y0040744D01*
X0131400Y0040633D01*
X0131305Y0040525D01*
X0131208Y0040420D01*
X0131107Y0040317D01*
X0131004Y0040218D01*
X0130898Y0040121D01*
X0130789Y0040027D01*
X0130678Y0039936D01*
X0130564Y0039848D01*
X0130448Y0039764D01*
X0130330Y0039682D01*
X0130209Y0039604D01*
X0130086Y0039529D01*
X0129962Y0039458D01*
X0129835Y0039390D01*
X0129706Y0039326D01*
X0129576Y0039266D01*
X0129444Y0039209D01*
X0129311Y0039155D01*
X0129176Y0039105D01*
X0129040Y0039060D01*
X0128903Y0039017D01*
X0128764Y0038979D01*
X0128625Y0038945D01*
X0128485Y0038914D01*
X0128343Y0038887D01*
X0128202Y0038865D01*
X0128059Y0038846D01*
X0127916Y0038831D01*
X0127773Y0038820D01*
X0127630Y0038813D01*
X0127486Y0038810D01*
X0127342Y0038811D01*
X0127199Y0038816D01*
X0127055Y0038825D01*
X0126912Y0038838D01*
X0126770Y0038855D01*
X0126627Y0038876D01*
X0126486Y0038900D01*
X0126345Y0038929D01*
X0126205Y0038961D01*
X0126066Y0038998D01*
X0125928Y0039038D01*
X0125792Y0039082D01*
X0125656Y0039130D01*
X0125522Y0039181D01*
X0125389Y0039237D01*
X0125258Y0039295D01*
X0125129Y0039358D01*
X0125001Y0039424D01*
X0124876Y0039493D01*
X0124752Y0039566D01*
X0124630Y0039643D01*
X0124511Y0039722D01*
X0124394Y0039805D01*
X0124279Y0039892D01*
X0124166Y0039981D01*
X0124056Y0040073D01*
X0123949Y0040169D01*
X0123844Y0040267D01*
X0123742Y0040368D01*
X0123643Y0040472D01*
X0123547Y0040579D01*
X0123454Y0040688D01*
X0123364Y0040800D01*
X0123277Y0040915D01*
X0123193Y0041031D01*
X0123112Y0041150D01*
X0123035Y0041271D01*
X0122961Y0041395D01*
X0122891Y0041520D01*
X0122824Y0041647D01*
X0122761Y0041776D01*
X0122701Y0041907D01*
X0122645Y0042039D01*
X0122592Y0042173D01*
X0122544Y0042308D01*
X0122499Y0042444D01*
X0122458Y0042582D01*
X0122420Y0042720D01*
X0122387Y0042860D01*
X0122357Y0043001D01*
X0122331Y0043142D01*
X0122310Y0043284D01*
X0122292Y0043427D01*
X0122278Y0043570D01*
X0122268Y0043713D01*
X0122262Y0043856D01*
X0122260Y0044000D01*
X0138110Y0044000D02*
X0138112Y0044144D01*
X0138118Y0044287D01*
X0138128Y0044430D01*
X0138142Y0044573D01*
X0138160Y0044716D01*
X0138181Y0044858D01*
X0138207Y0044999D01*
X0138237Y0045140D01*
X0138270Y0045280D01*
X0138308Y0045418D01*
X0138349Y0045556D01*
X0138394Y0045692D01*
X0138442Y0045827D01*
X0138495Y0045961D01*
X0138551Y0046093D01*
X0138611Y0046224D01*
X0138674Y0046353D01*
X0138741Y0046480D01*
X0138811Y0046605D01*
X0138885Y0046729D01*
X0138962Y0046850D01*
X0139043Y0046969D01*
X0139127Y0047085D01*
X0139214Y0047200D01*
X0139304Y0047312D01*
X0139397Y0047421D01*
X0139493Y0047528D01*
X0139592Y0047632D01*
X0139694Y0047733D01*
X0139799Y0047831D01*
X0139906Y0047927D01*
X0140016Y0048019D01*
X0140129Y0048108D01*
X0140244Y0048195D01*
X0140361Y0048278D01*
X0140480Y0048357D01*
X0140602Y0048434D01*
X0140726Y0048507D01*
X0140851Y0048576D01*
X0140979Y0048642D01*
X0141108Y0048705D01*
X0141239Y0048763D01*
X0141372Y0048819D01*
X0141506Y0048870D01*
X0141642Y0048918D01*
X0141778Y0048962D01*
X0141916Y0049002D01*
X0142055Y0049039D01*
X0142195Y0049071D01*
X0142336Y0049100D01*
X0142477Y0049124D01*
X0142620Y0049145D01*
X0142762Y0049162D01*
X0142905Y0049175D01*
X0143049Y0049184D01*
X0143192Y0049189D01*
X0143336Y0049190D01*
X0143480Y0049187D01*
X0143623Y0049180D01*
X0143766Y0049169D01*
X0143909Y0049154D01*
X0144052Y0049135D01*
X0144193Y0049113D01*
X0144335Y0049086D01*
X0144475Y0049055D01*
X0144614Y0049021D01*
X0144753Y0048983D01*
X0144890Y0048940D01*
X0145026Y0048895D01*
X0145161Y0048845D01*
X0145294Y0048791D01*
X0145426Y0048734D01*
X0145556Y0048674D01*
X0145685Y0048610D01*
X0145812Y0048542D01*
X0145936Y0048471D01*
X0146059Y0048396D01*
X0146180Y0048318D01*
X0146298Y0048236D01*
X0146414Y0048152D01*
X0146528Y0048064D01*
X0146639Y0047973D01*
X0146748Y0047879D01*
X0146854Y0047782D01*
X0146957Y0047683D01*
X0147058Y0047580D01*
X0147155Y0047475D01*
X0147250Y0047367D01*
X0147342Y0047256D01*
X0147430Y0047143D01*
X0147516Y0047027D01*
X0147598Y0046909D01*
X0147677Y0046789D01*
X0147752Y0046667D01*
X0147824Y0046543D01*
X0147893Y0046417D01*
X0147958Y0046289D01*
X0148020Y0046159D01*
X0148078Y0046028D01*
X0148132Y0045895D01*
X0148182Y0045760D01*
X0148229Y0045624D01*
X0148272Y0045487D01*
X0148312Y0045349D01*
X0148347Y0045210D01*
X0148379Y0045070D01*
X0148406Y0044929D01*
X0148430Y0044787D01*
X0148450Y0044645D01*
X0148466Y0044502D01*
X0148478Y0044359D01*
X0148486Y0044215D01*
X0148490Y0044072D01*
X0148490Y0043928D01*
X0148486Y0043785D01*
X0148478Y0043641D01*
X0148466Y0043498D01*
X0148450Y0043355D01*
X0148430Y0043213D01*
X0148406Y0043071D01*
X0148379Y0042930D01*
X0148347Y0042790D01*
X0148312Y0042651D01*
X0148272Y0042513D01*
X0148229Y0042376D01*
X0148182Y0042240D01*
X0148132Y0042105D01*
X0148078Y0041972D01*
X0148020Y0041841D01*
X0147958Y0041711D01*
X0147893Y0041583D01*
X0147824Y0041457D01*
X0147752Y0041333D01*
X0147677Y0041211D01*
X0147598Y0041091D01*
X0147516Y0040973D01*
X0147430Y0040857D01*
X0147342Y0040744D01*
X0147250Y0040633D01*
X0147155Y0040525D01*
X0147058Y0040420D01*
X0146957Y0040317D01*
X0146854Y0040218D01*
X0146748Y0040121D01*
X0146639Y0040027D01*
X0146528Y0039936D01*
X0146414Y0039848D01*
X0146298Y0039764D01*
X0146180Y0039682D01*
X0146059Y0039604D01*
X0145936Y0039529D01*
X0145812Y0039458D01*
X0145685Y0039390D01*
X0145556Y0039326D01*
X0145426Y0039266D01*
X0145294Y0039209D01*
X0145161Y0039155D01*
X0145026Y0039105D01*
X0144890Y0039060D01*
X0144753Y0039017D01*
X0144614Y0038979D01*
X0144475Y0038945D01*
X0144335Y0038914D01*
X0144193Y0038887D01*
X0144052Y0038865D01*
X0143909Y0038846D01*
X0143766Y0038831D01*
X0143623Y0038820D01*
X0143480Y0038813D01*
X0143336Y0038810D01*
X0143192Y0038811D01*
X0143049Y0038816D01*
X0142905Y0038825D01*
X0142762Y0038838D01*
X0142620Y0038855D01*
X0142477Y0038876D01*
X0142336Y0038900D01*
X0142195Y0038929D01*
X0142055Y0038961D01*
X0141916Y0038998D01*
X0141778Y0039038D01*
X0141642Y0039082D01*
X0141506Y0039130D01*
X0141372Y0039181D01*
X0141239Y0039237D01*
X0141108Y0039295D01*
X0140979Y0039358D01*
X0140851Y0039424D01*
X0140726Y0039493D01*
X0140602Y0039566D01*
X0140480Y0039643D01*
X0140361Y0039722D01*
X0140244Y0039805D01*
X0140129Y0039892D01*
X0140016Y0039981D01*
X0139906Y0040073D01*
X0139799Y0040169D01*
X0139694Y0040267D01*
X0139592Y0040368D01*
X0139493Y0040472D01*
X0139397Y0040579D01*
X0139304Y0040688D01*
X0139214Y0040800D01*
X0139127Y0040915D01*
X0139043Y0041031D01*
X0138962Y0041150D01*
X0138885Y0041271D01*
X0138811Y0041395D01*
X0138741Y0041520D01*
X0138674Y0041647D01*
X0138611Y0041776D01*
X0138551Y0041907D01*
X0138495Y0042039D01*
X0138442Y0042173D01*
X0138394Y0042308D01*
X0138349Y0042444D01*
X0138308Y0042582D01*
X0138270Y0042720D01*
X0138237Y0042860D01*
X0138207Y0043001D01*
X0138181Y0043142D01*
X0138160Y0043284D01*
X0138142Y0043427D01*
X0138128Y0043570D01*
X0138118Y0043713D01*
X0138112Y0043856D01*
X0138110Y0044000D01*
X0144500Y0063500D02*
X0146500Y0063500D01*
X0146500Y0069500D01*
X0148500Y0069500D01*
X0146500Y0069500D02*
X0144500Y0069500D01*
X0146500Y0063500D02*
X0148500Y0063500D01*
D15*
X0149996Y0078350D02*
X0142906Y0078350D01*
X0142906Y0084650D02*
X0149996Y0084650D01*
X0150094Y0093350D02*
X0143004Y0093350D01*
X0143004Y0099650D02*
X0150094Y0099650D01*
X0149996Y0108350D02*
X0142906Y0108350D01*
X0142906Y0114650D02*
X0149996Y0114650D01*
X0170250Y0107700D02*
X0170250Y0095300D01*
X0170252Y0095224D01*
X0170258Y0095148D01*
X0170267Y0095073D01*
X0170281Y0094998D01*
X0170298Y0094924D01*
X0170319Y0094851D01*
X0170343Y0094779D01*
X0170372Y0094708D01*
X0170403Y0094639D01*
X0170438Y0094572D01*
X0170477Y0094507D01*
X0170519Y0094443D01*
X0170564Y0094382D01*
X0170612Y0094323D01*
X0170663Y0094267D01*
X0170717Y0094213D01*
X0170773Y0094162D01*
X0170832Y0094114D01*
X0170893Y0094069D01*
X0170957Y0094027D01*
X0171022Y0093988D01*
X0171089Y0093953D01*
X0171158Y0093922D01*
X0171229Y0093893D01*
X0171301Y0093869D01*
X0171374Y0093848D01*
X0171448Y0093831D01*
X0171523Y0093817D01*
X0171598Y0093808D01*
X0171674Y0093802D01*
X0171750Y0093800D01*
X0188750Y0093800D01*
X0188826Y0093802D01*
X0188902Y0093808D01*
X0188977Y0093817D01*
X0189052Y0093831D01*
X0189126Y0093848D01*
X0189199Y0093869D01*
X0189271Y0093893D01*
X0189342Y0093922D01*
X0189411Y0093953D01*
X0189478Y0093988D01*
X0189543Y0094027D01*
X0189607Y0094069D01*
X0189668Y0094114D01*
X0189727Y0094162D01*
X0189783Y0094213D01*
X0189837Y0094267D01*
X0189888Y0094323D01*
X0189936Y0094382D01*
X0189981Y0094443D01*
X0190023Y0094507D01*
X0190062Y0094572D01*
X0190097Y0094639D01*
X0190128Y0094708D01*
X0190157Y0094779D01*
X0190181Y0094851D01*
X0190202Y0094924D01*
X0190219Y0094998D01*
X0190233Y0095073D01*
X0190242Y0095148D01*
X0190248Y0095224D01*
X0190250Y0095300D01*
X0190250Y0107700D01*
X0190248Y0107776D01*
X0190242Y0107852D01*
X0190233Y0107927D01*
X0190219Y0108002D01*
X0190202Y0108076D01*
X0190181Y0108149D01*
X0190157Y0108221D01*
X0190128Y0108292D01*
X0190097Y0108361D01*
X0190062Y0108428D01*
X0190023Y0108493D01*
X0189981Y0108557D01*
X0189936Y0108618D01*
X0189888Y0108677D01*
X0189837Y0108733D01*
X0189783Y0108787D01*
X0189727Y0108838D01*
X0189668Y0108886D01*
X0189607Y0108931D01*
X0189543Y0108973D01*
X0189478Y0109012D01*
X0189411Y0109047D01*
X0189342Y0109078D01*
X0189271Y0109107D01*
X0189199Y0109131D01*
X0189126Y0109152D01*
X0189052Y0109169D01*
X0188977Y0109183D01*
X0188902Y0109192D01*
X0188826Y0109198D01*
X0188750Y0109200D01*
X0171750Y0109200D01*
X0171674Y0109198D01*
X0171598Y0109192D01*
X0171523Y0109183D01*
X0171448Y0109169D01*
X0171374Y0109152D01*
X0171301Y0109131D01*
X0171229Y0109107D01*
X0171158Y0109078D01*
X0171089Y0109047D01*
X0171022Y0109012D01*
X0170957Y0108973D01*
X0170893Y0108931D01*
X0170832Y0108886D01*
X0170773Y0108838D01*
X0170717Y0108787D01*
X0170663Y0108733D01*
X0170612Y0108677D01*
X0170564Y0108618D01*
X0170519Y0108557D01*
X0170477Y0108493D01*
X0170438Y0108428D01*
X0170403Y0108361D01*
X0170372Y0108292D01*
X0170343Y0108221D01*
X0170319Y0108149D01*
X0170298Y0108076D01*
X0170281Y0108002D01*
X0170267Y0107927D01*
X0170258Y0107852D01*
X0170252Y0107776D01*
X0170250Y0107700D01*
X0190250Y0103500D02*
X0190162Y0103498D01*
X0190073Y0103492D01*
X0189985Y0103482D01*
X0189898Y0103469D01*
X0189811Y0103451D01*
X0189725Y0103430D01*
X0189640Y0103405D01*
X0189557Y0103376D01*
X0189474Y0103343D01*
X0189394Y0103307D01*
X0189315Y0103268D01*
X0189237Y0103225D01*
X0189162Y0103178D01*
X0189089Y0103128D01*
X0189018Y0103075D01*
X0188949Y0103019D01*
X0188883Y0102960D01*
X0188820Y0102898D01*
X0188760Y0102834D01*
X0188702Y0102767D01*
X0188648Y0102697D01*
X0188596Y0102625D01*
X0188548Y0102551D01*
X0188503Y0102474D01*
X0188462Y0102396D01*
X0188424Y0102316D01*
X0188390Y0102235D01*
X0188359Y0102152D01*
X0188332Y0102067D01*
X0188309Y0101982D01*
X0188290Y0101896D01*
X0188274Y0101808D01*
X0188262Y0101721D01*
X0188254Y0101633D01*
X0188250Y0101544D01*
X0188250Y0101456D01*
X0188254Y0101367D01*
X0188262Y0101279D01*
X0188274Y0101192D01*
X0188290Y0101104D01*
X0188309Y0101018D01*
X0188332Y0100933D01*
X0188359Y0100848D01*
X0188390Y0100765D01*
X0188424Y0100684D01*
X0188462Y0100604D01*
X0188503Y0100526D01*
X0188548Y0100449D01*
X0188596Y0100375D01*
X0188648Y0100303D01*
X0188702Y0100233D01*
X0188760Y0100166D01*
X0188820Y0100102D01*
X0188883Y0100040D01*
X0188949Y0099981D01*
X0189018Y0099925D01*
X0189089Y0099872D01*
X0189162Y0099822D01*
X0189237Y0099775D01*
X0189315Y0099732D01*
X0189394Y0099693D01*
X0189474Y0099657D01*
X0189557Y0099624D01*
X0189640Y0099595D01*
X0189725Y0099570D01*
X0189811Y0099549D01*
X0189898Y0099531D01*
X0189985Y0099518D01*
X0190073Y0099508D01*
X0190162Y0099502D01*
X0190250Y0099500D01*
X0121450Y0017205D02*
X0118247Y0017205D01*
X0117180Y0016138D01*
X0117180Y0014003D01*
X0118247Y0012935D01*
X0121450Y0012935D01*
X0121450Y0010800D02*
X0121450Y0017205D01*
X0119315Y0012935D02*
X0117180Y0010800D01*
X0115005Y0011868D02*
X0115005Y0014003D01*
X0113937Y0015070D01*
X0111802Y0015070D01*
X0110734Y0014003D01*
X0110734Y0012935D01*
X0115005Y0012935D01*
X0115005Y0011868D02*
X0113937Y0010800D01*
X0111802Y0010800D01*
X0108559Y0015070D02*
X0106424Y0010800D01*
X0104289Y0015070D01*
X0095668Y0015070D02*
X0093533Y0017205D01*
X0093533Y0010800D01*
X0095668Y0010800D02*
X0091398Y0010800D01*
X0089223Y0010800D02*
X0088155Y0010800D01*
X0088155Y0011868D01*
X0089223Y0011868D01*
X0089223Y0010800D01*
X0086000Y0011868D02*
X0081729Y0016138D01*
X0081729Y0011868D01*
X0082797Y0010800D01*
X0084932Y0010800D01*
X0086000Y0011868D01*
X0086000Y0016138D01*
X0084932Y0017205D01*
X0082797Y0017205D01*
X0081729Y0016138D01*
D16*
X0170250Y0095200D02*
X0190250Y0095200D01*
M02*
