G75*
%MOIN*%
%OFA0B0*%
%FSLAX25Y25*%
%IPPOS*%
%LPD*%
%AMOC8*
5,1,8,0,0,1.08239X$1,22.5*
%
%ADD10C,0.00197*%
D10*
X0003144Y0099925D02*
X0003174Y0102331D01*
X0003262Y0104735D01*
X0003410Y0107137D01*
X0003616Y0109534D01*
X0003881Y0111925D01*
X0004205Y0114309D01*
X0004587Y0116685D01*
X0005028Y0119050D01*
X0005526Y0121404D01*
X0006082Y0123745D01*
X0006695Y0126071D01*
X0007365Y0128382D01*
X0008092Y0130676D01*
X0008874Y0132951D01*
X0009713Y0135206D01*
X0010606Y0137440D01*
X0011554Y0139651D01*
X0012556Y0141839D01*
X0013611Y0144001D01*
X0014719Y0146136D01*
X0015880Y0148244D01*
X0017091Y0150323D01*
X0018353Y0152371D01*
X0019665Y0154388D01*
X0021026Y0156372D01*
X0022436Y0158322D01*
X0023893Y0160237D01*
X0025396Y0162115D01*
X0026945Y0163956D01*
X0028539Y0165759D01*
X0030176Y0167521D01*
X0031857Y0169243D01*
X0033579Y0170924D01*
X0035341Y0172561D01*
X0037144Y0174155D01*
X0038985Y0175704D01*
X0040863Y0177207D01*
X0042778Y0178664D01*
X0044728Y0180074D01*
X0046712Y0181435D01*
X0048729Y0182747D01*
X0050777Y0184009D01*
X0052856Y0185220D01*
X0054964Y0186381D01*
X0057099Y0187489D01*
X0059261Y0188544D01*
X0061449Y0189546D01*
X0063660Y0190494D01*
X0065894Y0191387D01*
X0068149Y0192226D01*
X0070424Y0193008D01*
X0072718Y0193735D01*
X0075029Y0194405D01*
X0077355Y0195018D01*
X0079696Y0195574D01*
X0082050Y0196072D01*
X0084415Y0196513D01*
X0086791Y0196895D01*
X0089175Y0197219D01*
X0091566Y0197484D01*
X0093963Y0197690D01*
X0096365Y0197838D01*
X0098769Y0197926D01*
X0101175Y0197956D01*
X0103581Y0197926D01*
X0105985Y0197838D01*
X0108387Y0197690D01*
X0110784Y0197484D01*
X0113175Y0197219D01*
X0115559Y0196895D01*
X0117935Y0196513D01*
X0120300Y0196072D01*
X0122654Y0195574D01*
X0124995Y0195018D01*
X0127321Y0194405D01*
X0129632Y0193735D01*
X0131926Y0193008D01*
X0134201Y0192226D01*
X0136456Y0191387D01*
X0138690Y0190494D01*
X0140901Y0189546D01*
X0143089Y0188544D01*
X0145251Y0187489D01*
X0147386Y0186381D01*
X0149494Y0185220D01*
X0151573Y0184009D01*
X0153621Y0182747D01*
X0155638Y0181435D01*
X0157622Y0180074D01*
X0159572Y0178664D01*
X0161487Y0177207D01*
X0163365Y0175704D01*
X0165206Y0174155D01*
X0167009Y0172561D01*
X0168771Y0170924D01*
X0170493Y0169243D01*
X0172174Y0167521D01*
X0173811Y0165759D01*
X0175405Y0163956D01*
X0176954Y0162115D01*
X0178457Y0160237D01*
X0179914Y0158322D01*
X0181324Y0156372D01*
X0182685Y0154388D01*
X0183997Y0152371D01*
X0185259Y0150323D01*
X0186470Y0148244D01*
X0187631Y0146136D01*
X0188739Y0144001D01*
X0189794Y0141839D01*
X0190796Y0139651D01*
X0191744Y0137440D01*
X0192637Y0135206D01*
X0193476Y0132951D01*
X0194258Y0130676D01*
X0194985Y0128382D01*
X0195655Y0126071D01*
X0196268Y0123745D01*
X0196824Y0121404D01*
X0197322Y0119050D01*
X0197763Y0116685D01*
X0198145Y0114309D01*
X0198469Y0111925D01*
X0198734Y0109534D01*
X0198940Y0107137D01*
X0199088Y0104735D01*
X0199176Y0102331D01*
X0199206Y0099925D01*
X0199176Y0097519D01*
X0199088Y0095115D01*
X0198940Y0092713D01*
X0198734Y0090316D01*
X0198469Y0087925D01*
X0198145Y0085541D01*
X0197763Y0083165D01*
X0197322Y0080800D01*
X0196824Y0078446D01*
X0196268Y0076105D01*
X0195655Y0073779D01*
X0194985Y0071468D01*
X0194258Y0069174D01*
X0193476Y0066899D01*
X0192637Y0064644D01*
X0191744Y0062410D01*
X0190796Y0060199D01*
X0189794Y0058011D01*
X0188739Y0055849D01*
X0187631Y0053714D01*
X0186470Y0051606D01*
X0185259Y0049527D01*
X0183997Y0047479D01*
X0182685Y0045462D01*
X0181324Y0043478D01*
X0179914Y0041528D01*
X0178457Y0039613D01*
X0176954Y0037735D01*
X0175405Y0035894D01*
X0173811Y0034091D01*
X0172174Y0032329D01*
X0170493Y0030607D01*
X0168771Y0028926D01*
X0167009Y0027289D01*
X0165206Y0025695D01*
X0163365Y0024146D01*
X0161487Y0022643D01*
X0159572Y0021186D01*
X0157622Y0019776D01*
X0155638Y0018415D01*
X0153621Y0017103D01*
X0151573Y0015841D01*
X0149494Y0014630D01*
X0147386Y0013469D01*
X0145251Y0012361D01*
X0143089Y0011306D01*
X0140901Y0010304D01*
X0138690Y0009356D01*
X0136456Y0008463D01*
X0134201Y0007624D01*
X0131926Y0006842D01*
X0129632Y0006115D01*
X0127321Y0005445D01*
X0124995Y0004832D01*
X0122654Y0004276D01*
X0120300Y0003778D01*
X0117935Y0003337D01*
X0115559Y0002955D01*
X0113175Y0002631D01*
X0110784Y0002366D01*
X0108387Y0002160D01*
X0105985Y0002012D01*
X0103581Y0001924D01*
X0101175Y0001894D01*
X0098769Y0001924D01*
X0096365Y0002012D01*
X0093963Y0002160D01*
X0091566Y0002366D01*
X0089175Y0002631D01*
X0086791Y0002955D01*
X0084415Y0003337D01*
X0082050Y0003778D01*
X0079696Y0004276D01*
X0077355Y0004832D01*
X0075029Y0005445D01*
X0072718Y0006115D01*
X0070424Y0006842D01*
X0068149Y0007624D01*
X0065894Y0008463D01*
X0063660Y0009356D01*
X0061449Y0010304D01*
X0059261Y0011306D01*
X0057099Y0012361D01*
X0054964Y0013469D01*
X0052856Y0014630D01*
X0050777Y0015841D01*
X0048729Y0017103D01*
X0046712Y0018415D01*
X0044728Y0019776D01*
X0042778Y0021186D01*
X0040863Y0022643D01*
X0038985Y0024146D01*
X0037144Y0025695D01*
X0035341Y0027289D01*
X0033579Y0028926D01*
X0031857Y0030607D01*
X0030176Y0032329D01*
X0028539Y0034091D01*
X0026945Y0035894D01*
X0025396Y0037735D01*
X0023893Y0039613D01*
X0022436Y0041528D01*
X0021026Y0043478D01*
X0019665Y0045462D01*
X0018353Y0047479D01*
X0017091Y0049527D01*
X0015880Y0051606D01*
X0014719Y0053714D01*
X0013611Y0055849D01*
X0012556Y0058011D01*
X0011554Y0060199D01*
X0010606Y0062410D01*
X0009713Y0064644D01*
X0008874Y0066899D01*
X0008092Y0069174D01*
X0007365Y0071468D01*
X0006695Y0073779D01*
X0006082Y0076105D01*
X0005526Y0078446D01*
X0005028Y0080800D01*
X0004587Y0083165D01*
X0004205Y0085541D01*
X0003881Y0087925D01*
X0003616Y0090316D01*
X0003410Y0092713D01*
X0003262Y0095115D01*
X0003174Y0097519D01*
X0003144Y0099925D01*
M02*
